<?xml version="1.0" encoding="UTF-8" standalone="no"?>
<!DOCTYPE svg PUBLIC "-//W3C//DTD SVG 1.1//EN" "http://www.w3.org/Graphics/SVG/1.1/DTD/svg11.dtd">
<svg xmlns="http://www.w3.org/2000/svg" version="1.1" viewBox="0 0 777 775" width="777.0pt" height="775.0pt">
<path d="M 0.00 0.00 L 777.00 0.00 L 777.00 775.00 L 0.00 775.00 L 0.00 0.00 Z" fill="#65feff" />
<path d="M 341.40 130.48 C 343.95 130.06 347.01 130.08 349.55 130.57 C 355.98 132.61 360.17 139.39 359.14 146.07 C 358.21 152.35 353.29 157.17 347.01 158.03 C 338.86 159.20 330.90 152.33 331.35 144.02 C 331.02 137.86 335.45 131.98 341.40 130.48 Z" fill="#03086b" />
<path d="M 467.01 131.58 C 472.02 130.99 476.96 130.87 481.39 133.63 C 488.06 137.38 491.54 145.69 488.96 152.99 C 486.52 158.19 481.43 160.26 476.08 161.20 C 471.30 162.20 466.78 161.23 462.01 161.31 C 456.73 161.32 452.13 164.53 447.03 164.78 C 443.83 164.92 443.95 161.82 444.42 159.52 C 446.01 153.63 448.42 147.81 451.70 142.67 C 455.24 137.08 460.34 132.70 467.01 131.58 Z" fill="#03066e" />
<path d="M 346.84 137.34 C 350.51 138.15 351.31 140.92 352.59 143.98 C 351.62 146.13 351.05 148.58 348.89 149.85 C 344.76 152.26 339.17 149.87 338.44 145.09 C 337.58 140.43 342.26 136.17 346.84 137.34 Z" fill="#68c8ff" />
<path d="M 475.21 138.79 C 479.49 140.07 482.98 144.23 482.58 148.82 C 482.34 150.79 480.63 152.19 478.89 152.90 C 474.71 154.56 470.38 154.63 465.98 154.03 C 461.55 153.43 457.58 154.53 453.32 155.49 C 455.45 150.59 457.30 146.01 461.39 142.36 C 464.95 138.90 470.43 137.52 475.21 138.79 Z" fill="#67cafe" />
<path d="M 421.47 169.51 C 425.84 171.73 429.95 176.58 434.96 176.70 C 440.08 177.19 443.99 174.77 448.99 174.40 C 456.28 173.66 463.37 175.52 469.47 179.51 C 474.18 182.45 476.88 186.67 482.11 188.90 C 488.05 191.62 493.48 189.98 500.21 191.38 C 509.95 193.00 518.81 198.41 524.23 206.72 C 527.70 212.24 529.93 218.58 531.15 224.97 C 532.36 233.24 531.83 241.53 526.04 248.03 C 519.34 255.41 507.15 255.52 499.63 249.35 C 496.19 246.84 494.72 243.08 491.84 240.17 C 489.36 238.02 486.30 238.00 483.61 239.82 C 478.78 242.77 473.53 245.31 467.77 243.32 C 463.41 242.10 461.17 238.99 457.93 236.19 C 455.97 234.48 453.29 234.05 450.92 235.11 C 447.36 236.78 444.90 239.81 443.57 243.47 C 431.44 272.91 428.30 306.77 428.46 338.35 C 435.41 335.09 442.12 331.52 448.87 327.88 C 459.56 322.24 470.33 316.77 480.83 310.78 C 496.01 302.19 511.08 294.29 527.84 289.17 C 546.26 283.55 565.74 280.71 585.00 281.59 C 601.86 282.72 618.64 286.53 632.77 296.19 C 643.36 303.27 651.58 313.30 655.79 325.38 C 660.77 327.12 665.41 328.98 669.12 332.88 C 673.67 337.35 675.65 343.53 674.57 349.83 C 674.04 353.38 672.25 356.21 670.25 359.09 C 670.36 370.78 670.76 382.57 670.03 394.23 C 668.39 420.30 663.93 445.82 654.42 470.24 C 642.17 503.45 621.30 533.40 594.56 556.58 C 568.59 579.10 537.11 595.55 504.22 605.30 C 480.78 612.59 456.48 616.36 432.00 617.57 C 417.06 617.70 401.87 618.18 387.01 616.62 C 361.31 614.58 336.08 609.17 311.60 601.16 C 309.60 600.65 308.17 599.83 306.36 601.35 C 279.99 619.53 246.72 627.52 214.98 623.31 C 211.60 622.81 208.37 622.52 205.43 620.66 C 200.77 617.84 198.60 612.25 199.59 606.94 C 200.11 603.41 202.29 601.11 204.74 598.74 C 209.41 594.38 213.52 589.60 217.75 584.82 C 223.39 578.24 229.12 571.23 232.98 563.43 C 220.61 555.23 209.57 545.38 199.48 534.51 C 183.87 517.59 171.96 497.68 163.67 476.23 C 149.17 437.22 146.35 395.74 149.65 354.53 C 138.44 352.21 127.77 349.08 117.87 343.17 C 106.21 336.56 97.05 325.74 93.13 312.86 C 91.23 306.46 90.12 299.66 90.43 292.97 C 90.64 288.00 95.14 284.26 100.00 284.40 C 102.81 284.31 105.48 286.05 108.04 287.10 C 114.02 289.80 120.08 290.53 126.46 291.62 C 130.86 294.75 134.99 293.17 140.00 293.40 C 144.89 293.49 149.66 293.56 154.47 292.52 C 162.57 293.90 168.24 298.41 171.86 305.71 C 175.39 300.80 180.07 297.32 185.93 295.70 C 193.13 293.53 199.76 295.34 207.01 295.75 C 213.33 296.32 219.65 296.70 226.00 296.64 C 231.09 296.57 235.97 297.06 240.82 295.50 C 244.23 294.50 246.81 292.22 250.00 290.91 C 253.19 290.06 256.85 292.71 257.24 295.97 C 258.26 302.17 257.66 308.60 255.51 314.50 C 251.82 325.12 244.46 333.90 235.40 340.39 C 222.57 349.42 206.99 354.38 191.26 353.76 C 191.52 362.11 193.60 370.66 196.87 378.32 C 201.82 390.08 211.98 399.46 223.87 403.93 C 233.66 407.61 244.60 408.72 255.00 408.33 C 272.92 407.23 290.61 403.15 307.18 396.24 C 324.32 389.08 341.16 380.79 357.99 372.97 C 369.93 367.53 381.58 361.48 393.49 355.99 C 393.77 347.64 393.40 339.33 392.86 331.01 C 392.76 323.64 391.94 316.35 391.37 309.01 C 388.93 284.10 384.35 258.14 375.09 234.80 C 373.39 230.23 366.95 229.11 363.61 232.55 C 359.75 236.33 356.88 240.14 351.03 240.68 C 343.70 241.64 338.57 238.04 332.93 234.05 C 329.90 231.72 325.57 232.13 323.04 234.99 C 319.63 238.84 316.57 242.63 311.88 245.02 C 306.23 248.27 298.55 248.73 293.03 244.99 C 288.60 242.10 286.05 237.09 285.24 231.97 C 283.74 224.62 285.82 217.02 287.77 209.93 C 290.43 201.14 294.84 191.93 302.78 186.78 C 307.95 183.51 313.18 183.78 319.02 183.51 C 323.89 183.12 326.33 179.69 329.68 176.69 C 334.14 172.63 339.08 169.40 345.05 168.10 C 351.21 166.78 357.62 167.91 363.15 170.85 C 366.47 172.52 369.07 174.68 373.01 174.61 C 377.63 174.72 381.34 171.24 385.41 169.38 C 396.75 163.74 410.30 163.05 421.47 169.51 Z" fill="#04066d" />
<path d="M 404.00 172.17 C 411.40 172.02 417.70 175.20 423.43 179.60 C 429.82 184.95 439.69 184.69 447.08 181.78 C 450.79 181.46 454.29 181.12 457.94 182.15 C 463.29 183.57 467.60 186.69 471.50 190.51 C 474.91 193.84 479.25 196.09 483.88 197.16 C 487.61 198.01 491.18 197.53 495.10 197.93 C 500.50 198.54 505.63 199.75 510.25 202.74 C 516.01 206.59 519.83 212.31 522.13 218.78 C 522.73 223.19 523.76 227.49 524.00 231.95 C 518.95 233.06 514.07 233.30 509.50 230.51 C 505.86 228.51 504.19 225.33 501.84 222.13 C 498.97 218.03 493.11 216.17 488.60 218.65 C 484.35 220.87 481.12 223.47 475.97 222.80 C 471.08 222.37 468.49 217.76 464.75 215.24 C 461.62 213.39 457.19 213.03 454.03 215.00 C 451.01 216.81 448.58 219.65 445.36 221.38 C 441.57 223.44 436.65 223.31 432.95 221.08 C 429.45 219.18 427.16 216.34 424.33 213.67 C 420.70 210.16 414.55 209.39 410.37 212.35 C 406.88 214.81 404.36 217.66 400.00 218.68 C 393.53 220.49 387.04 216.76 382.19 212.78 C 378.96 210.12 375.19 208.82 371.03 209.99 C 365.61 211.36 363.55 217.67 358.26 219.30 C 354.26 220.38 349.97 219.74 346.46 217.55 C 341.95 215.10 338.52 211.02 332.96 211.56 C 327.70 212.10 325.57 215.81 322.26 219.28 C 317.75 224.00 311.25 227.91 304.48 226.28 C 298.33 224.58 295.23 219.08 294.43 213.07 C 296.54 205.95 300.07 196.80 306.81 192.86 C 311.21 190.07 315.48 191.73 320.50 190.70 C 325.62 189.86 329.85 187.07 333.40 183.39 C 337.47 179.16 342.03 175.78 347.99 174.92 C 353.62 174.15 358.25 176.31 362.94 179.08 C 369.11 182.88 377.52 182.58 383.60 178.74 C 390.03 175.01 396.36 171.96 404.00 172.17 Z" fill="#ffffff" />
<path d="M 262.00 189.70 C 270.15 189.66 278.72 192.32 286.48 194.65 C 286.88 195.76 287.19 196.90 287.42 198.05 C 286.67 200.08 284.81 201.80 283.39 203.39 C 278.37 208.65 273.54 215.47 267.53 219.59 C 264.15 222.00 259.61 222.49 255.75 221.13 C 246.87 217.08 242.93 204.49 248.06 196.15 C 251.12 191.47 256.64 189.72 262.00 189.70 Z" fill="#03066d" />
<path d="M 257.94 197.54 C 264.09 196.31 270.86 198.01 276.94 199.04 C 272.93 204.38 268.33 209.98 262.94 213.96 C 258.76 216.53 255.62 212.49 253.88 209.15 C 251.94 205.02 252.80 198.71 257.94 197.54 Z" fill="#66cafe" />
<path d="M 371.03 209.99 C 375.19 208.82 378.96 210.12 382.19 212.78 C 387.04 216.76 393.53 220.49 400.00 218.68 C 404.36 217.66 406.88 214.81 410.37 212.35 C 414.55 209.39 420.70 210.16 424.33 213.67 C 427.16 216.34 429.45 219.18 432.95 221.08 C 436.65 223.31 441.57 223.44 445.36 221.38 C 448.58 219.65 451.01 216.81 454.03 215.00 C 457.19 213.03 461.62 213.39 464.75 215.24 C 468.49 217.76 471.08 222.37 475.97 222.80 C 481.12 223.47 484.35 220.87 488.60 218.65 C 493.11 216.17 498.97 218.03 501.84 222.13 C 504.19 225.33 505.86 228.51 509.50 230.51 C 514.07 233.30 518.95 233.06 524.00 231.95 C 523.76 227.49 522.73 223.19 522.13 218.78 C 524.77 224.62 525.43 230.91 523.99 237.17 C 523.10 240.39 521.11 243.50 518.14 245.15 C 514.29 247.48 509.10 247.11 505.44 244.57 C 502.25 242.42 500.74 239.43 498.43 236.53 C 494.26 231.30 486.23 229.87 480.50 233.30 C 477.65 234.76 475.32 236.82 471.98 236.73 C 468.10 236.81 466.13 233.78 463.51 231.46 C 458.76 226.73 450.62 226.22 445.22 230.12 C 442.53 232.07 440.15 234.84 437.02 236.07 C 434.30 237.17 431.33 236.64 428.84 235.22 C 425.13 233.16 423.00 229.77 419.79 227.21 C 415.75 224.08 410.20 223.54 405.46 225.24 C 402.05 226.56 400.07 229.22 397.11 231.14 C 395.34 232.26 393.02 232.74 391.02 233.32 C 388.88 232.75 386.56 232.26 384.56 231.32 C 381.12 229.66 378.39 226.58 375.16 224.82 C 369.61 222.03 362.11 223.19 357.94 227.91 C 355.23 230.55 353.28 233.87 349.01 233.68 C 343.98 233.92 340.31 230.14 336.38 227.64 C 331.67 224.31 324.64 224.73 320.01 228.01 C 317.00 230.27 315.03 233.70 312.07 236.09 C 308.84 238.85 304.30 241.01 299.99 240.09 C 296.17 239.38 293.62 235.81 292.69 232.25 C 291.14 225.68 292.65 219.38 294.43 213.07 C 295.23 219.08 298.33 224.58 304.48 226.28 C 311.25 227.91 317.75 224.00 322.26 219.28 C 325.57 215.81 327.70 212.10 332.96 211.56 C 338.52 211.02 341.95 215.10 346.46 217.55 C 349.97 219.74 354.26 220.38 358.26 219.30 C 363.55 217.67 365.61 211.36 371.03 209.99 Z" fill="#b3b1d5" />
<path d="M 562.72 228.97 C 568.16 230.11 573.34 231.87 577.88 235.15 C 583.46 239.27 585.87 247.23 583.81 253.80 C 581.63 259.89 575.39 263.69 568.96 262.67 C 563.88 261.98 560.27 258.33 558.21 253.83 C 555.40 247.52 553.58 241.45 549.02 235.98 C 547.83 234.55 546.29 233.82 544.69 232.97 C 543.61 230.60 543.47 229.96 544.63 227.55 C 550.55 226.70 556.88 227.91 562.72 228.97 Z" fill="#03076b" />
<path d="M 413.12 231.72 C 416.95 233.38 419.52 237.63 423.00 239.99 C 426.72 242.88 431.04 243.81 435.62 244.34 C 434.15 247.97 432.80 251.63 431.63 255.37 C 428.54 253.23 426.01 251.00 422.00 251.16 C 417.01 250.88 414.45 254.15 410.69 256.70 C 407.10 259.40 402.35 260.34 398.02 259.10 C 395.10 258.23 392.31 256.90 389.48 255.79 C 388.06 250.23 386.44 244.75 384.53 239.34 C 391.04 240.87 397.54 240.02 402.87 235.83 C 406.20 233.30 408.43 230.56 413.12 231.72 Z" fill="#498dd5" />
<path d="M 557.10 234.58 C 563.03 235.91 570.80 237.29 575.06 241.96 C 577.61 244.51 578.20 248.12 577.45 251.55 C 576.17 256.14 569.14 257.48 566.23 253.77 C 563.71 250.90 562.61 246.51 561.00 243.06 C 559.70 240.14 558.15 237.60 557.10 234.58 Z" fill="#68c9ff" />
<path d="M 422.00 251.16 C 426.01 251.00 428.54 253.23 431.63 255.37 C 422.92 282.78 421.11 313.48 421.33 342.08 C 414.48 345.32 407.89 349.24 400.85 352.07 C 400.63 319.72 397.87 287.13 389.48 255.79 C 392.31 256.90 395.10 258.23 398.02 259.10 C 402.35 260.34 407.10 259.40 410.69 256.70 C 414.45 254.15 417.01 250.88 422.00 251.16 Z" fill="#65caff" />
<path d="M 348.39 257.44 C 352.92 255.61 358.23 256.97 361.40 260.65 C 365.24 265.14 365.25 271.78 361.06 276.05 C 356.50 281.29 347.75 280.89 343.55 275.41 C 338.71 269.45 341.29 260.21 348.39 257.44 Z" fill="#04086b" />
<path d="M 350.36 263.39 C 353.98 262.20 357.74 263.97 357.87 268.03 C 358.17 272.41 352.94 275.30 349.47 272.49 C 346.20 270.18 346.75 264.99 350.36 263.39 Z" fill="#67c9fb" />
<path d="M 564.00 288.56 C 572.28 288.08 580.71 288.04 589.00 288.46 C 605.36 289.79 621.64 295.16 634.38 305.74 C 640.85 311.01 645.36 317.79 648.85 325.30 C 647.57 325.53 646.28 325.77 645.00 326.03 C 645.91 325.72 646.81 325.41 647.71 325.08 C 641.99 316.62 634.39 309.63 625.43 304.71 C 613.94 298.66 600.58 294.99 587.62 294.33 C 577.96 292.94 568.23 294.07 558.56 295.15 C 541.02 297.24 523.66 302.29 507.58 309.59 C 499.13 313.40 490.88 318.32 482.72 322.71 C 434.83 348.96 385.72 373.06 336.14 395.96 C 323.27 402.12 310.04 408.46 296.53 412.78 C 284.42 416.84 271.75 419.50 259.02 420.47 C 249.57 420.80 240.25 420.99 231.05 418.74 C 219.87 416.03 209.06 410.36 201.63 401.42 C 197.37 396.35 194.45 391.01 192.65 384.63 C 198.16 395.70 207.63 404.26 219.01 409.02 C 233.22 415.00 247.92 415.53 263.09 414.22 C 281.74 412.11 300.13 407.08 317.18 399.23 C 326.98 394.63 336.88 390.24 346.70 385.70 C 362.80 377.74 379.24 370.57 395.22 362.37 C 413.19 353.77 430.85 344.57 448.65 335.62 C 464.43 327.08 480.43 318.92 495.97 309.97 C 516.96 298.57 540.16 290.76 564.00 288.56 Z" fill="#aad0fd" />
<path d="M 100.00 291.10 C 102.96 291.68 105.69 293.45 108.54 294.43 C 120.83 298.77 133.13 298.88 146.00 298.57 C 151.59 298.47 157.61 299.22 161.98 303.03 C 164.98 305.73 165.85 309.34 167.00 313.03 C 162.76 307.15 156.17 304.26 149.00 304.43 C 134.27 304.63 118.10 305.05 104.54 298.28 C 102.07 297.01 99.55 297.15 96.85 297.10 C 96.70 295.93 96.54 294.75 96.38 293.58 C 97.60 292.45 98.13 291.07 100.00 291.10 Z" fill="#aad3fb" />
<path d="M 126.46 291.62 C 130.97 291.78 135.49 291.88 140.00 291.87 C 144.94 291.89 149.59 291.45 154.47 292.52 C 149.66 293.56 144.89 293.49 140.00 293.40 C 134.99 293.17 130.86 294.75 126.46 291.62 Z" fill="#032c6d" />
<path d="M 587.62 294.33 C 581.75 295.87 575.99 295.15 570.03 295.69 C 566.14 296.08 562.40 295.79 558.56 295.15 C 568.23 294.07 577.96 292.94 587.62 294.33 Z" fill="#2986e1" />
<path d="M 558.56 295.15 C 562.40 295.79 566.14 296.08 570.03 295.69 C 575.99 295.15 581.75 295.87 587.62 294.33 C 600.58 294.99 613.94 298.66 625.43 304.71 C 634.39 309.63 641.99 316.62 647.71 325.08 C 646.81 325.41 645.91 325.72 645.00 326.03 C 639.90 327.26 635.06 328.97 630.20 330.95 C 615.53 332.39 601.45 340.85 592.03 352.03 C 585.97 358.63 582.59 366.28 578.11 374.10 C 570.84 388.13 562.17 401.86 551.80 413.81 C 542.71 424.03 532.19 433.56 520.12 440.12 C 513.06 444.22 505.25 447.12 497.43 449.39 C 491.80 450.95 484.51 451.36 479.62 454.66 C 476.72 457.01 474.33 459.45 470.74 460.82 C 466.95 464.79 465.08 470.59 465.88 476.03 C 466.26 479.32 467.56 482.18 468.88 485.17 C 468.38 485.87 467.87 486.57 467.36 487.26 C 440.94 516.41 404.43 534.93 366.03 542.34 C 363.59 542.74 361.17 542.87 358.71 543.04 C 358.15 540.58 357.50 538.15 356.74 535.73 C 358.44 530.91 359.10 525.91 357.22 521.02 C 355.57 516.08 351.98 512.40 347.58 509.78 C 347.01 509.47 346.43 509.17 345.85 508.89 C 344.17 509.76 342.31 510.75 341.04 512.16 C 340.26 513.87 340.61 516.15 340.52 518.00 C 341.09 528.42 336.17 538.21 330.84 546.84 C 327.20 552.63 322.39 557.75 317.86 562.85 C 310.47 570.77 301.50 577.41 292.72 583.71 C 283.20 589.65 273.19 595.99 262.59 599.59 C 252.26 603.86 241.16 606.59 230.00 607.35 C 225.47 607.37 219.73 607.68 215.69 605.36 C 213.57 604.25 213.35 602.35 212.45 600.35 C 221.44 591.40 229.96 581.60 236.59 570.74 C 243.17 560.78 247.40 549.64 249.93 538.01 C 251.21 531.85 252.11 525.67 251.55 519.35 C 250.65 519.82 249.74 520.29 248.83 520.76 C 248.45 524.67 247.93 528.56 247.36 532.45 L 246.97 530.88 L 246.61 529.24 C 229.49 522.08 213.55 511.54 199.49 499.49 C 199.26 499.18 199.02 498.88 198.79 498.58 C 193.65 489.63 188.49 480.84 184.85 471.14 C 178.18 454.90 173.95 438.02 170.39 420.87 C 167.51 404.15 164.96 386.93 164.42 369.97 C 163.99 364.31 163.47 358.69 163.62 353.00 C 163.47 349.85 163.97 345.83 161.66 343.36 C 160.13 341.52 157.87 341.04 155.67 340.42 C 139.63 336.94 123.06 330.28 110.56 319.42 C 105.69 315.39 102.48 310.39 98.29 305.72 C 97.61 302.86 97.25 300.01 96.85 297.10 C 99.55 297.15 102.07 297.01 104.54 298.28 C 118.10 305.05 134.27 304.63 149.00 304.43 C 156.17 304.26 162.76 307.15 167.00 313.03 L 167.46 314.01 C 168.70 316.68 169.71 319.40 170.83 322.14 C 173.71 318.93 175.12 315.24 178.47 312.47 C 183.78 307.74 191.29 306.36 198.18 307.30 C 210.78 308.87 223.34 308.95 236.02 308.71 C 241.44 308.66 245.48 306.18 250.27 304.07 C 249.64 306.07 249.06 308.11 247.96 309.91 C 239.91 322.20 227.00 331.29 212.78 334.94 C 207.03 336.45 201.60 338.07 195.66 338.50 C 191.73 338.83 187.51 338.73 183.70 339.75 C 180.19 340.87 178.26 344.40 178.54 348.00 C 179.08 357.42 181.46 366.64 186.03 374.92 C 187.03 376.58 188.33 377.82 189.63 379.24 C 190.70 381.00 191.73 382.78 192.65 384.63 C 194.45 391.01 197.37 396.35 201.63 401.42 C 209.06 410.36 219.87 416.03 231.05 418.74 C 240.25 420.99 249.57 420.80 259.02 420.47 C 271.75 419.50 284.42 416.84 296.53 412.78 C 310.04 408.46 323.27 402.12 336.14 395.96 C 385.72 373.06 434.83 348.96 482.72 322.71 C 490.88 318.32 499.13 313.40 507.58 309.59 C 523.66 302.29 541.02 297.24 558.56 295.15 Z" fill="#238cff" />
<path d="M 250.64 297.80 C 250.99 298.13 251.33 298.46 251.66 298.80 C 251.59 311.15 245.78 322.53 236.68 330.69 C 226.03 340.54 211.39 346.18 197.00 347.17 C 192.54 347.57 188.58 346.79 184.27 348.30 C 184.08 358.94 186.31 369.19 189.63 379.24 C 188.33 377.82 187.03 376.58 186.03 374.92 C 181.46 366.64 179.08 357.42 178.54 348.00 C 178.26 344.40 180.19 340.87 183.70 339.75 C 187.51 338.73 191.73 338.83 195.66 338.50 C 201.60 338.07 207.03 336.45 212.78 334.94 C 227.00 331.29 239.91 322.20 247.96 309.91 C 249.06 308.11 249.64 306.07 250.27 304.07 C 250.59 303.03 250.92 301.99 251.24 300.95 C 250.31 300.43 249.37 299.92 248.43 299.41 C 249.16 298.87 249.90 298.34 250.64 297.80 Z" fill="#1862d6" />
<path d="M 248.43 299.41 C 249.37 299.92 250.31 300.43 251.24 300.95 C 250.92 301.99 250.59 303.03 250.27 304.07 C 245.48 306.18 241.44 308.66 236.02 308.71 C 223.34 308.95 210.78 308.87 198.18 307.30 C 191.29 306.36 183.78 307.74 178.47 312.47 C 175.12 315.24 173.71 318.93 170.83 322.14 C 169.71 319.40 168.70 316.68 167.46 314.01 C 169.53 316.14 173.04 316.56 174.73 313.75 C 177.36 309.47 179.72 305.55 184.44 303.27 C 191.82 299.62 200.20 302.12 208.00 302.49 C 217.65 302.93 227.37 302.90 237.03 302.76 C 241.18 302.80 244.82 301.28 248.43 299.41 Z" fill="#a9d0fd" />
<path d="M 98.29 305.72 C 102.48 310.39 105.69 315.39 110.56 319.42 C 123.06 330.28 139.63 336.94 155.67 340.42 C 157.87 341.04 160.13 341.52 161.66 343.36 C 163.97 345.83 163.47 349.85 163.62 353.00 C 163.47 358.69 163.99 364.31 164.42 369.97 C 164.96 386.93 167.51 404.15 170.39 420.87 C 173.95 438.02 178.18 454.90 184.85 471.14 C 188.49 480.84 193.65 489.63 198.79 498.58 C 185.86 487.06 175.15 473.45 166.49 458.48 C 164.85 455.40 163.61 452.11 162.27 448.90 C 160.38 443.13 159.65 436.95 158.53 430.99 C 154.81 408.75 154.71 386.46 155.69 363.99 C 155.81 358.84 157.32 353.56 155.46 348.77 C 139.24 345.83 124.10 341.73 111.58 330.39 C 104.84 323.64 99.86 315.22 98.29 305.72 Z" fill="#1962d4" />
<path d="M 563.63 312.47 C 568.23 314.34 572.15 317.37 573.95 322.14 C 575.29 325.56 574.65 329.39 572.11 332.07 C 567.06 337.36 560.58 340.09 554.11 343.13 C 546.85 346.67 539.41 349.77 532.05 353.08 C 524.58 356.52 516.24 360.56 508.00 361.40 C 502.42 362.02 498.15 357.03 497.08 352.02 C 495.55 345.67 499.03 338.74 502.72 333.75 C 512.11 321.08 526.68 314.13 541.76 310.85 C 548.76 309.99 557.07 309.43 563.63 312.47 Z" fill="#59a9fe" />
<path d="M 630.20 330.95 C 612.09 340.23 600.66 355.72 591.21 373.23 C 585.58 384.14 579.95 395.01 573.42 405.42 C 560.93 424.94 545.40 443.04 525.75 455.63 C 510.00 465.36 490.95 471.48 472.33 470.72 C 472.63 467.65 473.04 464.62 473.55 461.58 C 472.61 461.31 471.68 461.06 470.74 460.82 C 474.33 459.45 476.72 457.01 479.62 454.66 C 484.51 451.36 491.80 450.95 497.43 449.39 C 505.25 447.12 513.06 444.22 520.12 440.12 C 532.19 433.56 542.71 424.03 551.80 413.81 C 562.17 401.86 570.84 388.13 578.11 374.10 C 582.59 366.28 585.97 358.63 592.03 352.03 C 601.45 340.85 615.53 332.39 630.20 330.95 Z" fill="#1862d6" />
<path d="M 649.98 332.19 C 655.37 331.36 660.60 333.99 664.49 337.53 C 668.36 341.59 669.04 346.52 667.28 351.78 C 663.77 348.43 660.04 345.73 655.02 345.43 C 651.47 345.29 647.07 345.17 643.91 347.02 C 639.27 349.77 634.36 351.01 630.41 354.38 C 614.89 367.58 603.51 385.38 597.98 404.98 C 595.16 414.73 594.74 424.79 591.77 434.50 C 587.96 448.07 581.32 459.96 573.72 471.72 C 553.34 500.41 525.11 522.76 494.18 539.17 C 472.32 550.96 448.88 559.96 424.68 565.61 C 407.44 569.48 389.08 572.19 371.40 571.43 C 367.52 570.12 365.37 564.51 363.87 561.05 C 390.01 558.65 415.84 552.50 440.49 543.56 C 464.17 534.56 486.53 523.21 506.58 507.61 C 516.65 499.39 526.30 490.31 533.19 479.19 C 535.36 475.89 537.22 472.49 538.36 468.70 C 535.78 468.47 535.66 468.18 534.42 470.47 C 527.40 484.79 516.57 495.39 504.34 505.31 C 488.81 517.29 471.72 526.96 453.73 534.71 C 435.18 543.03 415.87 548.74 396.02 552.99 C 385.00 555.21 373.78 557.19 362.54 557.86 C 360.97 553.17 359.78 548.55 358.86 543.69 L 358.71 543.04 C 361.17 542.87 363.59 542.74 366.03 542.34 C 404.43 534.93 440.94 516.41 467.36 487.26 C 467.94 486.56 468.51 485.86 469.09 485.16 C 472.44 488.64 475.46 492.57 480.76 492.59 C 480.13 489.29 477.84 487.64 476.04 485.01 C 474.34 482.80 473.54 480.26 472.85 477.60 C 491.31 477.54 508.83 473.08 524.85 463.90 C 546.39 451.80 562.62 433.47 576.31 413.22 C 582.93 402.91 589.11 392.28 594.47 381.25 C 601.75 366.99 610.09 354.00 622.60 343.75 C 630.51 337.64 640.01 333.35 649.98 332.19 Z" fill="#fefffe" />
<path d="M 643.91 347.02 L 643.50 349.22 C 647.43 349.32 652.14 348.69 655.84 350.16 C 658.22 351.03 660.04 352.60 661.78 354.39 C 661.39 357.92 661.37 361.46 661.45 365.00 C 661.96 389.07 659.58 413.38 653.67 436.74 C 648.85 457.64 640.42 477.24 629.85 495.84 C 606.10 536.33 568.78 567.55 525.62 585.63 C 494.25 599.52 459.13 606.23 425.00 608.09 C 391.35 609.64 357.75 605.56 325.15 597.28 C 322.13 596.39 319.21 595.68 316.04 595.82 L 315.01 595.49 C 316.24 593.86 317.77 592.78 319.33 591.50 C 342.40 595.36 365.58 597.82 389.00 597.67 C 417.88 598.01 446.93 594.78 474.97 587.78 C 510.15 579.11 543.44 564.46 572.16 542.18 C 590.78 527.39 607.04 509.81 619.53 489.53 C 631.23 471.41 639.54 450.91 645.37 430.20 C 651.07 409.03 653.95 386.90 654.80 365.02 C 654.71 362.55 655.41 360.56 652.85 359.10 C 650.96 362.84 651.81 367.85 651.41 372.00 C 649.79 397.89 645.48 424.71 636.08 448.99 C 630.72 463.54 623.97 477.48 615.40 490.41 C 594.07 523.56 562.69 549.47 527.06 566.05 C 501.42 578.48 473.07 586.18 444.99 590.64 C 420.47 594.57 395.74 595.24 370.97 594.28 C 354.82 593.19 338.42 591.85 322.55 588.57 C 325.11 586.01 327.77 583.52 330.23 580.86 C 364.95 584.61 400.25 582.35 434.24 574.30 C 452.29 569.75 470.47 564.18 487.42 556.41 C 494.39 553.08 501.41 549.96 508.19 546.24 C 536.88 530.26 562.60 509.63 581.75 482.74 C 602.70 453.71 614.55 417.16 612.59 381.27 L 610.01 382.20 C 609.42 387.44 609.95 392.77 609.47 398.03 C 607.43 427.29 596.91 456.04 579.87 479.90 C 560.34 507.72 533.09 529.47 503.21 545.32 C 493.13 550.49 482.83 555.38 472.23 559.39 C 440.12 571.39 406.30 578.51 372.00 579.46 C 364.33 579.58 356.66 579.55 348.99 579.31 C 343.72 579.00 338.47 578.41 333.19 578.16 L 333.98 576.50 C 337.87 571.88 341.11 566.84 344.51 561.87 C 351.09 562.61 357.29 561.71 363.87 561.05 C 365.37 564.51 367.52 570.12 371.40 571.43 C 389.08 572.19 407.44 569.48 424.68 565.61 C 448.88 559.96 472.32 550.96 494.18 539.17 C 525.11 522.76 553.34 500.41 573.72 471.72 C 581.32 459.96 587.96 448.07 591.77 434.50 C 594.74 424.79 595.16 414.73 597.98 404.98 C 603.51 385.38 614.89 367.58 630.41 354.38 C 634.36 351.01 639.27 349.77 643.91 347.02 Z" fill="#b2b2d4" />
<path d="M 661.78 354.39 C 662.74 356.21 663.53 357.92 663.51 360.02 C 663.71 365.69 663.70 371.34 664.15 377.00 C 663.40 385.64 663.93 394.35 662.87 402.95 C 660.75 429.88 653.91 456.46 642.94 481.14 C 632.68 503.17 618.93 523.53 601.66 540.66 C 575.35 567.53 541.07 587.01 505.34 598.25 C 470.24 609.27 433.19 613.48 396.51 610.98 C 369.33 609.43 342.06 603.75 316.04 595.82 C 319.21 595.68 322.13 596.39 325.15 597.28 C 357.75 605.56 391.35 609.64 425.00 608.09 C 459.13 606.23 494.25 599.52 525.62 585.63 C 568.78 567.55 606.10 536.33 629.85 495.84 C 640.42 477.24 648.85 457.64 653.67 436.74 C 659.58 413.38 661.96 389.07 661.45 365.00 C 661.37 361.46 661.39 357.92 661.78 354.39 Z" fill="#f9fefd" />
<path d="M 470.42 358.46 C 475.65 356.55 482.45 357.49 486.49 361.51 C 489.33 364.81 490.38 369.86 487.60 373.56 C 484.15 378.48 477.34 381.18 471.74 382.69 C 466.53 384.03 459.89 382.75 458.19 376.97 C 456.47 368.22 462.48 361.14 470.42 358.46 Z" fill="#59a9fe" />
<path d="M 652.85 359.10 C 655.41 360.56 654.71 362.55 654.80 365.02 C 653.95 386.90 651.07 409.03 645.37 430.20 C 639.54 450.91 631.23 471.41 619.53 489.53 C 607.04 509.81 590.78 527.39 572.16 542.18 C 543.44 564.46 510.15 579.11 474.97 587.78 C 446.93 594.78 417.88 598.01 389.00 597.67 C 365.58 597.82 342.40 595.36 319.33 591.50 C 320.44 590.56 321.51 589.58 322.55 588.57 C 338.42 591.85 354.82 593.19 370.97 594.28 C 395.74 595.24 420.47 594.57 444.99 590.64 C 473.07 586.18 501.42 578.48 527.06 566.05 C 562.69 549.47 594.07 523.56 615.40 490.41 C 623.97 477.48 630.72 463.54 636.08 448.99 C 645.48 424.71 649.79 397.89 651.41 372.00 C 651.81 367.85 650.96 362.84 652.85 359.10 Z" fill="#4a42a3" />
<path d="M 610.01 382.20 L 612.59 381.27 C 614.55 417.16 602.70 453.71 581.75 482.74 C 562.60 509.63 536.88 530.26 508.19 546.24 C 501.41 549.96 494.39 553.08 487.42 556.41 C 470.47 564.18 452.29 569.75 434.24 574.30 C 400.25 582.35 364.95 584.61 330.23 580.86 C 331.50 579.43 332.75 577.97 333.98 576.50 L 333.19 578.16 C 338.47 578.41 343.72 579.00 348.99 579.31 C 356.66 579.55 364.33 579.58 372.00 579.46 C 406.30 578.51 440.12 571.39 472.23 559.39 C 482.83 555.38 493.13 550.49 503.21 545.32 C 533.09 529.47 560.34 507.72 579.87 479.90 C 596.91 456.04 607.43 427.29 609.47 398.03 C 609.95 392.77 609.42 387.44 610.01 382.20 Z" fill="#4942a1" />
<path d="M 424.35 396.40 C 429.58 394.62 435.38 395.14 440.17 397.91 C 444.27 400.15 447.60 403.94 450.17 407.78 C 455.61 416.53 456.64 426.99 455.16 437.02 C 453.57 445.60 448.90 454.62 441.21 459.20 C 437.79 461.31 433.97 461.91 430.00 461.74 C 423.22 461.95 416.94 457.17 413.03 452.00 C 404.97 440.92 403.61 425.38 408.62 412.75 C 411.46 405.72 417.00 398.93 424.35 396.40 Z" fill="#030171" />
<path d="M 431.47 402.55 C 436.56 401.29 441.27 405.46 443.14 409.88 C 445.42 414.67 445.43 421.19 440.52 424.32 C 434.30 426.27 429.62 421.97 427.32 416.59 C 425.50 411.76 425.66 404.53 431.47 402.55 Z" fill="#fcfffd" />
<path d="M 162.27 448.90 C 163.61 452.11 164.85 455.40 166.49 458.48 C 175.15 473.45 185.86 487.06 198.79 498.58 C 199.02 498.88 199.26 499.18 199.49 499.49 C 202.45 504.45 205.94 508.95 209.75 513.28 C 211.31 514.99 212.43 516.91 213.44 518.98 C 210.62 517.83 208.38 515.98 206.14 513.98 C 192.77 502.98 181.08 489.87 171.30 475.59 C 167.38 470.07 166.37 463.55 164.04 456.99 C 163.05 454.33 162.57 451.71 162.27 448.90 Z" fill="#b3b2d9" />
<path d="M 538.36 468.70 C 537.22 472.49 535.36 475.89 533.19 479.19 C 526.30 490.31 516.65 499.39 506.58 507.61 C 486.53 523.21 464.17 534.56 440.49 543.56 C 415.84 552.50 390.01 558.65 363.87 561.05 C 357.29 561.71 351.09 562.61 344.51 561.87 C 345.14 560.80 345.77 559.72 346.37 558.63 C 351.78 558.74 357.15 558.27 362.54 557.86 C 373.78 557.19 385.00 555.21 396.02 552.99 C 415.87 548.74 435.18 543.03 453.73 534.71 C 471.72 526.96 488.81 517.29 504.34 505.31 C 516.57 495.39 527.40 484.79 534.42 470.47 C 535.66 468.18 535.78 468.47 538.36 468.70 Z" fill="#675db8" />
<path d="M 425.00 482.32 C 428.56 482.12 430.86 484.00 433.60 485.88 C 433.65 488.53 434.01 491.50 433.31 494.08 C 429.95 499.45 424.81 502.71 419.08 505.10 C 414.35 507.38 408.14 506.75 402.98 506.70 C 400.05 506.80 396.89 504.77 395.80 502.03 C 394.55 497.87 397.05 493.75 399.97 490.96 C 406.72 484.87 415.86 481.41 425.00 482.32 Z" fill="#fe6dbc" />
<path d="M 177.04 487.12 C 188.85 502.41 203.29 515.78 219.19 526.72 C 227.20 531.82 235.28 537.19 244.01 540.99 C 243.29 543.91 242.34 546.66 241.02 549.36 C 218.07 536.64 197.87 518.66 182.83 497.14 C 181.96 495.90 180.82 494.95 179.66 493.99 C 178.62 491.75 177.56 489.56 177.04 487.12 Z" fill="#b0b3d8" />
<path d="M 179.66 493.99 C 180.82 494.95 181.96 495.90 182.83 497.14 C 197.87 518.66 218.07 536.64 241.02 549.36 C 240.54 550.37 240.04 551.36 239.53 552.36 C 225.24 544.13 212.04 534.29 200.22 522.79 C 197.09 519.79 195.12 516.43 191.33 514.19 C 188.38 510.92 186.48 506.70 183.97 503.03 C 182.02 500.16 180.59 497.36 179.66 493.99 Z" fill="#4845a2" />
<path d="M 199.49 499.49 C 213.55 511.54 229.49 522.08 246.61 529.24 L 246.97 530.88 C 246.66 533.61 245.95 536.24 245.22 538.89 C 241.66 537.33 238.15 535.70 234.90 533.53 L 233.46 533.65 L 233.38 532.16 L 231.50 532.86 L 231.57 531.82 C 225.20 528.18 218.87 523.91 213.44 518.98 C 212.43 516.91 211.31 514.99 209.75 513.28 C 205.94 508.95 202.45 504.45 199.49 499.49 Z" fill="#fbfdfd" />
<path d="M 345.85 508.89 C 346.43 509.17 347.01 509.47 347.58 509.78 C 346.71 509.82 345.84 509.90 344.98 510.02 L 344.86 511.66 C 347.02 513.99 349.99 515.58 351.64 518.37 C 354.47 523.19 354.27 529.16 352.01 534.17 C 345.93 548.65 337.49 562.31 327.01 574.02 C 317.77 583.82 308.45 592.89 296.67 599.65 C 279.82 609.88 260.68 616.08 241.01 617.49 C 231.20 617.89 221.63 617.85 211.93 616.17 C 208.99 615.78 206.06 613.12 206.17 610.00 C 205.53 606.06 210.08 602.97 212.45 600.35 C 213.35 602.35 213.57 604.25 215.69 605.36 C 219.73 607.68 225.47 607.37 230.00 607.35 C 241.16 606.59 252.26 603.86 262.59 599.59 C 273.19 595.99 283.20 589.65 292.72 583.71 C 301.50 577.41 310.47 570.77 317.86 562.85 C 322.39 557.75 327.20 552.63 330.84 546.84 C 336.17 538.21 341.09 528.42 340.52 518.00 C 340.61 516.15 340.26 513.87 341.04 512.16 C 342.31 510.75 344.17 509.76 345.85 508.89 Z" fill="#1962d6" />
<path d="M 200.22 522.79 C 212.04 534.29 225.24 544.13 239.53 552.36 C 238.56 554.23 237.56 556.09 236.55 557.95 C 219.18 545.91 203.70 531.37 191.33 514.19 C 195.12 516.43 197.09 519.79 200.22 522.79 Z" fill="#afb4d8" />
<path d="M 356.74 535.73 C 357.50 538.15 358.15 540.58 358.71 543.04 L 358.86 543.69 C 357.11 543.71 355.36 543.81 353.61 543.89 C 354.70 541.19 355.73 538.47 356.74 535.73 Z" fill="#245ecc" />
<path d="M 358.86 543.69 C 359.78 548.55 360.97 553.17 362.54 557.86 C 357.15 558.27 351.78 558.74 346.37 558.63 C 348.92 553.80 351.48 548.92 353.61 543.89 C 355.36 543.81 357.11 543.71 358.86 543.69 Z" fill="#b2b2d3" />
</svg>