<svg xmlns="http://www.w3.org/2000/svg" width="1036" height="775pt" viewBox="0 0 777 775"><path fill="#65feff" d="M0 0h777v775H0V0Z"/><path fill="#03086b" d="M341.4 130.48c2.55-.42 5.61-.4 8.15.09 6.43 2.04 10.62 8.82 9.59 15.5-.93 6.28-5.85 11.1-12.13 11.96-8.15 1.17-16.11-5.7-15.66-14.01-.33-6.16 4.1-12.04 10.05-13.54Z"/><path fill="#03066e" d="M467.01 131.58c5.01-.59 9.95-.71 14.38 2.05 6.67 3.75 10.15 12.06 7.57 19.36-2.44 5.2-7.53 7.27-12.88 8.21-4.78 1-9.3.03-14.07.11-5.28.01-9.88 3.22-14.98 3.47-3.2.14-3.08-2.96-2.61-5.26 1.59-5.89 4-11.71 7.28-16.85 3.54-5.59 8.64-9.97 15.31-11.09Z"/><path fill="#68c8ff" d="M346.84 137.34c3.67.81 4.47 3.58 5.75 6.64-.97 2.15-1.54 4.6-3.7 5.87-4.13 2.41-9.72.02-10.45-4.76-.86-4.66 3.82-8.92 8.4-7.75Z"/><path fill="#67cafe" d="M475.21 138.79c4.28 1.28 7.77 5.44 7.37 10.03-.24 1.97-1.95 3.37-3.69 4.08-4.18 1.66-8.51 1.73-12.91 1.13-4.43-.6-8.4.5-12.66 1.46 2.13-4.9 3.98-9.48 8.07-13.13 3.56-3.46 9.04-4.84 13.82-3.57Z"/><path fill="#04066d" d="M421.47 169.51c4.37 2.22 8.48 7.07 13.49 7.19 5.12.49 9.03-1.93 14.03-2.3 7.29-.74 14.38 1.12 20.48 5.11 4.71 2.94 7.41 7.16 12.64 9.39 5.94 2.72 11.37 1.08 18.1 2.48 9.74 1.62 18.6 7.03 24.02 15.34 3.47 5.52 5.7 11.86 6.92 18.25 1.21 8.27.68 16.56-5.11 23.06-6.7 7.38-18.89 7.49-26.41 1.32-3.44-2.51-4.91-6.27-7.79-9.18-2.48-2.15-5.54-2.17-8.23-.35-4.83 2.95-10.08 5.49-15.84 3.5-4.36-1.22-6.6-4.33-9.84-7.13-1.96-1.71-4.64-2.14-7.01-1.08-3.56 1.67-6.02 4.7-7.35 8.36-12.13 29.44-15.27 63.3-15.11 94.88 6.95-3.26 13.66-6.83 20.41-10.47 10.69-5.64 21.46-11.11 31.96-17.1 15.18-8.59 30.25-16.49 47.01-21.61 18.42-5.62 37.9-8.46 57.16-7.58 16.86 1.13 33.64 4.94 47.77 14.6 10.59 7.08 18.81 17.11 23.02 29.19 4.98 1.74 9.62 3.6 13.33 7.5 4.55 4.47 6.53 10.65 5.45 16.95-.53 3.55-2.32 6.38-4.32 9.26.11 11.69.51 23.48-.22 35.14-1.64 26.07-6.1 51.59-15.61 76.01-12.25 33.21-33.12 63.16-59.86 86.34-25.97 22.52-57.45 38.97-90.34 48.72-23.44 7.29-47.74 11.06-72.22 12.27-14.94.13-30.13.61-44.99-.95-25.7-2.04-50.93-7.45-75.41-15.46-2-.51-3.43-1.33-5.24.19-26.37 18.18-59.64 26.17-91.38 21.96-3.38-.5-6.61-.79-9.55-2.65-4.66-2.82-6.83-8.41-5.84-13.72.52-3.53 2.7-5.83 5.15-8.2 4.67-4.36 8.78-9.14 13.01-13.92 5.64-6.58 11.37-13.59 15.23-21.39-12.37-8.2-23.41-18.05-33.5-28.92-15.61-16.92-27.52-36.83-35.81-58.28-14.5-39.01-17.32-80.49-14.02-121.7-11.21-2.32-21.88-5.45-31.78-11.36-11.66-6.61-20.82-17.43-24.74-30.31-1.9-6.4-3.01-13.2-2.7-19.89.21-4.97 4.71-8.71 9.57-8.57 2.81-.09 5.48 1.65 8.04 2.7 5.98 2.7 12.04 3.43 18.42 4.52 4.4 3.13 8.53 1.55 13.54 1.78 4.89.09 9.66.16 14.47-.88 8.1 1.38 13.77 5.89 17.39 13.19 3.53-4.91 8.21-8.39 14.07-10.01 7.2-2.17 13.83-.36 21.08.05 6.32.57 12.64.95 18.99.89 5.09-.07 9.97.42 14.82-1.14 3.41-1 5.99-3.28 9.18-4.59 3.19-.85 6.85 1.8 7.24 5.06 1.02 6.2.42 12.63-1.73 18.53-3.69 10.62-11.05 19.4-20.11 25.89-12.83 9.03-28.41 13.99-44.14 13.37.26 8.35 2.34 16.9 5.61 24.56 4.95 11.76 15.11 21.14 27 25.61 9.79 3.68 20.73 4.79 31.13 4.4 17.92-1.1 35.61-5.18 52.18-12.09 17.14-7.16 33.98-15.45 50.81-23.27 11.94-5.44 23.59-11.49 35.5-16.98.28-8.35-.09-16.66-.63-24.98-.1-7.37-.92-14.66-1.49-22-2.44-24.91-7.02-50.87-16.28-74.21-1.7-4.57-8.14-5.69-11.48-2.25-3.86 3.78-6.73 7.59-12.58 8.13-7.33.96-12.46-2.64-18.1-6.63-3.03-2.33-7.36-1.92-9.89.94-3.41 3.85-6.47 7.64-11.16 10.03-5.65 3.25-13.33 3.71-18.85-.03-4.43-2.89-6.98-7.9-7.79-13.02-1.5-7.35.58-14.95 2.53-22.04 2.66-8.79 7.07-18 15.01-23.15 5.17-3.27 10.4-3 16.24-3.27 4.87-.39 7.31-3.82 10.66-6.82 4.46-4.06 9.4-7.29 15.37-8.59 6.16-1.32 12.57-.19 18.1 2.75 3.32 1.67 5.92 3.83 9.86 3.76 4.62.11 8.33-3.37 12.4-5.23 11.34-5.64 24.89-6.33 36.06.13Z"/><path fill="#fff" d="M404 172.17c7.4-.15 13.7 3.03 19.43 7.43 6.39 5.35 16.26 5.09 23.65 2.18 3.71-.32 7.21-.66 10.86.37 5.35 1.42 9.66 4.54 13.56 8.36 3.41 3.33 7.75 5.58 12.38 6.65 3.73.85 7.3.37 11.22.77 5.4.61 10.53 1.82 15.15 4.81 5.76 3.85 9.58 9.57 11.88 16.04.6 4.41 1.63 8.71 1.87 13.17-5.05 1.11-9.93 1.35-14.5-1.44-3.64-2-5.31-5.18-7.66-8.38-2.87-4.1-8.73-5.96-13.24-3.48-4.25 2.22-7.48 4.82-12.63 4.15-4.89-.43-7.48-5.04-11.22-7.56-3.13-1.85-7.56-2.21-10.72-.24-3.02 1.81-5.45 4.65-8.67 6.38-3.79 2.06-8.71 1.93-12.41-.3-3.5-1.9-5.79-4.74-8.62-7.41-3.63-3.51-9.78-4.28-13.96-1.32-3.49 2.46-6.01 5.31-10.37 6.33-6.47 1.81-12.96-1.92-17.81-5.9-3.23-2.66-7-3.96-11.16-2.79-5.42 1.37-7.48 7.68-12.77 9.31-4 1.08-8.29.44-11.8-1.75-4.51-2.45-7.94-6.53-13.5-5.99-5.26.54-7.39 4.25-10.7 7.72-4.51 4.72-11.01 8.63-17.78 7-6.15-1.7-9.25-7.2-10.05-13.21 2.11-7.12 5.64-16.27 12.38-20.21 4.4-2.79 8.67-1.13 13.69-2.16 5.12-.84 9.35-3.63 12.9-7.31 4.07-4.23 8.63-7.61 14.59-8.47 5.63-.77 10.26 1.39 14.95 4.16 6.17 3.8 14.58 3.5 20.66-.34 6.43-3.73 12.76-6.78 20.4-6.57Z"/><path fill="#03066d" d="M262 189.7c8.15-.04 16.72 2.62 24.48 4.95.4 1.11.71 2.25.94 3.4-.75 2.03-2.61 3.75-4.03 5.34-5.02 5.26-9.85 12.08-15.86 16.2-3.38 2.41-7.92 2.9-11.78 1.54-8.88-4.05-12.82-16.64-7.69-24.98 3.06-4.68 8.58-6.43 13.94-6.45Z"/><path fill="#66cafe" d="M257.94 197.54c6.15-1.23 12.92.47 19 1.5-4.01 5.34-8.61 10.94-14 14.92-4.18 2.57-7.32-1.47-9.06-4.81-1.94-4.13-1.08-10.44 4.06-11.61Z"/><path fill="#b3b1d5" d="M371.03 209.99c4.16-1.17 7.93.13 11.16 2.79 4.85 3.98 11.34 7.71 17.81 5.9 4.36-1.02 6.88-3.87 10.37-6.33 4.18-2.96 10.33-2.19 13.96 1.32 2.83 2.67 5.12 5.51 8.62 7.41 3.7 2.23 8.62 2.36 12.41.3 3.22-1.73 5.65-4.57 8.67-6.38 3.16-1.97 7.59-1.61 10.72.24 3.74 2.52 6.33 7.13 11.22 7.56 5.15.67 8.38-1.93 12.63-4.15 4.51-2.48 10.37-.62 13.24 3.48 2.35 3.2 4.02 6.38 7.66 8.38 4.57 2.79 9.45 2.55 14.5 1.44-.24-4.46-1.27-8.76-1.87-13.17 2.64 5.84 3.3 12.13 1.86 18.39-.89 3.22-2.88 6.33-5.85 7.98-3.85 2.33-9.04 1.96-12.7-.58-3.19-2.15-4.7-5.14-7.01-8.04-4.17-5.23-12.2-6.66-17.93-3.23-2.85 1.46-5.18 3.52-8.52 3.43-3.88.08-5.85-2.95-8.47-5.27-4.75-4.73-12.89-5.24-18.29-1.34-2.69 1.95-5.07 4.72-8.2 5.95-2.72 1.1-5.69.57-8.18-.85-3.71-2.06-5.84-5.45-9.05-8.01-4.04-3.13-9.59-3.67-14.33-1.97-3.41 1.32-5.39 3.98-8.35 5.9-1.77 1.12-4.09 1.6-6.09 2.18-2.14-.57-4.46-1.06-6.46-2-3.44-1.66-6.17-4.74-9.4-6.5-5.55-2.79-13.05-1.63-17.22 3.09-2.71 2.64-4.66 5.96-8.93 5.77-5.03.24-8.7-3.54-12.63-6.04-4.71-3.33-11.74-2.91-16.37.37-3.01 2.26-4.98 5.69-7.94 8.08-3.23 2.76-7.77 4.92-12.08 4-3.82-.71-6.37-4.28-7.3-7.84-1.55-6.57-.04-12.87 1.74-19.18.8 6.01 3.9 11.51 10.05 13.21 6.77 1.63 13.27-2.28 17.78-7 3.31-3.47 5.44-7.18 10.7-7.72 5.56-.54 8.99 3.54 13.5 5.99 3.51 2.19 7.8 2.83 11.8 1.75 5.29-1.63 7.35-7.94 12.77-9.31Z"/><path fill="#03076b" d="M562.72 228.97c5.44 1.14 10.62 2.9 15.16 6.18 5.58 4.12 7.99 12.08 5.93 18.65-2.18 6.09-8.42 9.89-14.85 8.87-5.08-.69-8.69-4.34-10.75-8.84-2.81-6.31-4.63-12.38-9.19-17.85-1.19-1.43-2.73-2.16-4.33-3.01-1.08-2.37-1.22-3.01-.06-5.42 5.92-.85 12.25.36 18.09 1.42Z"/><path fill="#498dd5" d="M413.12 231.72c3.83 1.66 6.4 5.91 9.88 8.27 3.72 2.89 8.04 3.82 12.62 4.35-1.47 3.63-2.82 7.29-3.99 11.03-3.09-2.14-5.62-4.37-9.63-4.21-4.99-.28-7.55 2.99-11.31 5.54-3.59 2.7-8.34 3.64-12.67 2.4-2.92-.87-5.71-2.2-8.54-3.31-1.42-5.56-3.04-11.04-4.95-16.45 6.51 1.53 13.01.68 18.34-3.51 3.33-2.53 5.56-5.27 10.25-4.11Z"/><path fill="#68c9ff" d="M557.1 234.58c5.93 1.33 13.7 2.71 17.96 7.38 2.55 2.55 3.14 6.16 2.39 9.59-1.28 4.59-8.31 5.93-11.22 2.22-2.52-2.87-3.62-7.26-5.23-10.71-1.3-2.92-2.85-5.46-3.9-8.48Z"/><path fill="#65caff" d="M422 251.16c4.01-.16 6.54 2.07 9.63 4.21-8.71 27.41-10.52 58.11-10.3 86.71-6.85 3.24-13.44 7.16-20.48 9.99-.22-32.35-2.98-64.94-11.37-96.28 2.83 1.11 5.62 2.44 8.54 3.31 4.33 1.24 9.08.3 12.67-2.4 3.76-2.55 6.32-5.82 11.31-5.54Z"/><path fill="#04086b" d="M348.39 257.44c4.53-1.83 9.84-.47 13.01 3.21 3.84 4.49 3.85 11.13-.34 15.4-4.56 5.24-13.31 4.84-17.51-.64-4.84-5.96-2.26-15.2 4.84-17.97Z"/><path fill="#67c9fb" d="M350.36 263.39c3.62-1.19 7.38.58 7.51 4.64.3 4.38-4.93 7.27-8.4 4.46-3.27-2.31-2.72-7.5.89-9.1Z"/><path fill="#aad0fd" d="M564 288.56c8.28-.48 16.71-.52 25-.1 16.36 1.33 32.64 6.7 45.38 17.28 6.47 5.27 10.98 12.05 14.47 19.56-1.28.23-2.57.47-3.85.73.91-.31 1.81-.62 2.71-.95-5.72-8.46-13.32-15.45-22.28-20.37-11.49-6.05-24.85-9.72-37.81-10.38-9.66-1.39-19.39-.26-29.06.82-17.54 2.09-34.9 7.14-50.98 14.44-8.45 3.81-16.7 8.73-24.86 13.12-47.89 26.25-97 50.35-146.58 73.25-12.87 6.16-26.1 12.5-39.61 16.82-12.11 4.06-24.78 6.72-37.51 7.69-9.45.33-18.77.52-27.97-1.73-11.18-2.71-21.99-8.38-29.42-17.32-4.26-5.07-7.18-10.41-8.98-16.79 5.51 11.07 14.98 19.63 26.36 24.39 14.21 5.98 28.91 6.51 44.08 5.2 18.65-2.11 37.04-7.14 54.09-14.99 9.8-4.6 19.7-8.99 29.52-13.53 16.1-7.96 32.54-15.13 48.52-23.33 17.97-8.6 35.63-17.8 53.43-26.75 15.78-8.54 31.78-16.7 47.32-25.65 20.99-11.4 44.19-19.21 68.03-21.41Z"/><path fill="#aad3fb" d="M100 291.1c2.96.58 5.69 2.35 8.54 3.33 12.29 4.34 24.59 4.45 37.46 4.14 5.59-.1 11.61.65 15.98 4.46 3 2.7 3.87 6.31 5.02 10-4.24-5.88-10.83-8.77-18-8.6-14.73.2-30.9.62-44.46-6.15-2.47-1.27-4.99-1.13-7.69-1.18-.15-1.17-.31-2.35-.47-3.52 1.22-1.13 1.75-2.51 3.62-2.48Z"/><path fill="#032c6d" d="M126.46 291.62c4.51.16 9.03.26 13.54.25 4.94.02 9.59-.42 14.47.65-4.81 1.04-9.58.97-14.47.88-5.01-.23-9.14 1.35-13.54-1.78Z"/><path fill="#2986e1" d="M587.62 294.33c-5.87 1.54-11.63.82-17.59 1.36-3.89.39-7.63.1-11.47-.54 9.67-1.08 19.4-2.21 29.06-.82Z"/><path fill="#238cff" d="M558.56 295.15c3.84.64 7.58.93 11.47.54 5.96-.54 11.72.18 17.59-1.36 12.96.66 26.32 4.33 37.81 10.38 8.96 4.92 16.56 11.91 22.28 20.37-.9.33-1.8.64-2.71.95-5.1 1.23-9.94 2.94-14.8 4.92-14.67 1.44-28.75 9.9-38.17 21.08-6.06 6.6-9.44 14.25-13.92 22.07-7.27 14.03-15.94 27.76-26.31 39.71-9.09 10.22-19.61 19.75-31.68 26.31-7.06 4.1-14.87 7-22.69 9.27-5.63 1.56-12.92 1.97-17.81 5.27-2.9 2.35-5.29 4.79-8.88 6.16-3.79 3.97-5.66 9.77-4.86 15.21.38 3.29 1.68 6.15 3 9.14-.5.7-1.01 1.4-1.52 2.09-26.42 29.15-62.93 47.67-101.33 55.08-2.44.4-4.86.53-7.32.7-.56-2.46-1.21-4.89-1.97-7.31 1.7-4.82 2.36-9.82.48-14.71-1.65-4.94-5.24-8.62-9.64-11.24-.57-.31-1.15-.61-1.73-.89-1.68.87-3.54 1.86-4.81 3.27-.78 1.71-.43 3.99-.52 5.84.57 10.42-4.35 20.21-9.68 28.84-3.64 5.79-8.45 10.91-12.98 16.01-7.39 7.92-16.36 14.56-25.14 20.86-9.52 5.94-19.53 12.28-30.13 15.88-10.33 4.27-21.43 7-32.59 7.76-4.53.02-10.27.33-14.31-1.99-2.12-1.11-2.34-3.01-3.24-5.01 8.99-8.95 17.51-18.75 24.14-29.61 6.58-9.96 10.81-21.1 13.34-32.73 1.28-6.16 2.18-12.34 1.62-18.66-.9.47-1.81.94-2.72 1.41-.38 3.91-.9 7.8-1.47 11.69l-.39-1.57-.36-1.64c-17.12-7.16-33.06-17.7-47.12-29.75-.23-.31-.47-.61-.7-.91-5.14-8.95-10.3-17.74-13.94-27.44-6.67-16.24-10.9-33.12-14.46-50.27-2.88-16.72-5.43-33.94-5.97-50.9-.43-5.66-.95-11.28-.8-16.97-.15-3.15.35-7.17-1.96-9.64-1.53-1.84-3.79-2.32-5.99-2.94-16.04-3.48-32.61-10.14-45.11-21-4.87-4.03-8.08-9.03-12.27-13.7-.68-2.86-1.04-5.71-1.44-8.62 2.7.05 5.22-.09 7.69 1.18 13.56 6.77 29.73 6.35 44.46 6.15 7.17-.17 13.76 2.72 18 8.6l.46.98c1.24 2.67 2.25 5.39 3.37 8.13 2.88-3.21 4.29-6.9 7.64-9.67 5.31-4.73 12.82-6.11 19.71-5.17 12.6 1.57 25.16 1.65 37.84 1.41 5.42-.05 9.46-2.53 14.25-4.64-.63 2-1.21 4.04-2.31 5.84-8.05 12.29-20.96 21.38-35.18 25.03-5.75 1.51-11.18 3.13-17.12 3.56-3.93.33-8.15.23-11.96 1.25-3.51 1.12-5.44 4.65-5.16 8.25.54 9.42 2.92 18.64 7.49 26.92 1 1.66 2.3 2.9 3.6 4.32 1.07 1.76 2.1 3.54 3.02 5.39 1.8 6.38 4.72 11.72 8.98 16.79 7.43 8.94 18.24 14.61 29.42 17.32 9.2 2.25 18.52 2.06 27.97 1.73 12.73-.97 25.4-3.63 37.51-7.69 13.51-4.32 26.74-10.66 39.61-16.82 49.58-22.9 98.69-47 146.58-73.25 8.16-4.39 16.41-9.31 24.86-13.12 16.08-7.3 33.44-12.35 50.98-14.44Z"/><path fill="#1862d6" d="M250.64 297.8c.35.33.69.66 1.02 1-.07 12.35-5.88 23.73-14.98 31.89-10.65 9.85-25.29 15.49-39.68 16.48-4.46.4-8.42-.38-12.73 1.13-.19 10.64 2.04 20.89 5.36 30.94-1.3-1.42-2.6-2.66-3.6-4.32-4.57-8.28-6.95-17.5-7.49-26.92-.28-3.6 1.65-7.13 5.16-8.25 3.81-1.02 8.03-.92 11.96-1.25 5.94-.43 11.37-2.05 17.12-3.56 14.22-3.65 27.13-12.74 35.18-25.03 1.1-1.8 1.68-3.84 2.31-5.84.32-1.04.65-2.08.97-3.12-.93-.52-1.87-1.03-2.81-1.54.73-.54 1.47-1.07 2.21-1.61Z"/><path fill="#a9d0fd" d="M248.43 299.41c.94.51 1.88 1.02 2.81 1.54-.32 1.04-.65 2.08-.97 3.12-4.79 2.11-8.83 4.59-14.25 4.64-12.68.24-25.24.16-37.84-1.41-6.89-.94-14.4.44-19.71 5.17-3.35 2.77-4.76 6.46-7.64 9.67-1.12-2.74-2.13-5.46-3.37-8.13 2.07 2.13 5.58 2.55 7.27-.26 2.63-4.28 4.99-8.2 9.71-10.48 7.38-3.65 15.76-1.15 23.56-.78 9.65.44 19.37.41 29.03.27 4.15.04 7.79-1.48 11.4-3.35Z"/><path fill="#1962d4" d="M98.29 305.72c4.19 4.67 7.4 9.67 12.27 13.7 12.5 10.86 29.07 17.52 45.11 21 2.2.62 4.46 1.1 5.99 2.94 2.31 2.47 1.81 6.49 1.96 9.64-.15 5.69.37 11.31.8 16.97.54 16.96 3.09 34.18 5.97 50.9 3.56 17.15 7.79 34.03 14.46 50.27 3.64 9.7 8.8 18.49 13.94 27.44-12.93-11.52-23.64-25.13-32.3-40.1-1.64-3.08-2.88-6.37-4.22-9.58-1.89-5.77-2.62-11.95-3.74-17.91-3.72-22.24-3.82-44.53-2.84-67 .12-5.15 1.63-10.43-.23-15.22-16.22-2.94-31.36-7.04-43.88-18.38-6.74-6.75-11.72-15.17-13.29-24.67Z"/><path fill="#59a9fe" d="M563.63 312.47c4.6 1.87 8.52 4.9 10.32 9.67 1.34 3.42.7 7.25-1.84 9.93-5.05 5.29-11.53 8.02-18 11.06-7.26 3.54-14.7 6.64-22.06 9.95-7.47 3.44-15.81 7.48-24.05 8.32-5.58.62-9.85-4.37-10.92-9.38-1.53-6.35 1.95-13.28 5.64-18.27 9.39-12.67 23.96-19.62 39.04-22.9 7-.86 15.31-1.42 21.87 1.62Z"/><path fill="#1862d6" d="M630.2 330.95c-18.11 9.28-29.54 24.77-38.99 42.28-5.63 10.91-11.26 21.78-17.79 32.19-12.49 19.52-28.02 37.62-47.67 50.21-15.75 9.73-34.8 15.85-53.42 15.09.3-3.07.71-6.1 1.22-9.14-.94-.27-1.87-.52-2.81-.76 3.59-1.37 5.98-3.81 8.88-6.16 4.89-3.3 12.18-3.71 17.81-5.27 7.82-2.27 15.63-5.17 22.69-9.27 12.07-6.56 22.59-16.09 31.68-26.31 10.37-11.95 19.04-25.68 26.31-39.71 4.48-7.82 7.86-15.47 13.92-22.07 9.42-11.18 23.5-19.64 38.17-21.08Z"/><path fill="#fefffe" d="M649.98 332.19c5.39-.83 10.62 1.8 14.51 5.34 3.87 4.06 4.55 8.99 2.79 14.25-3.51-3.35-7.24-6.05-12.26-6.35-3.55-.14-7.95-.26-11.11 1.59-4.64 2.75-9.55 3.99-13.5 7.36-15.52 13.2-26.9 31-32.43 50.6-2.82 9.75-3.24 19.81-6.21 29.52-3.81 13.57-10.45 25.46-18.05 37.22-20.38 28.69-48.61 51.04-79.54 67.45-21.86 11.79-45.3 20.79-69.5 26.44-17.24 3.87-35.6 6.58-53.28 5.82-3.88-1.31-6.03-6.92-7.53-10.38 26.14-2.4 51.97-8.55 76.62-17.49 23.68-9 46.04-20.35 66.09-35.95 10.07-8.22 19.72-17.3 26.61-28.42 2.17-3.3 4.03-6.7 5.17-10.49-2.58-.23-2.7-.52-3.94 1.77-7.02 14.32-17.85 24.92-30.08 34.84-15.53 11.98-32.62 21.65-50.61 29.4-18.55 8.32-37.86 14.03-57.71 18.28-11.02 2.22-22.24 4.2-33.48 4.87-1.57-4.69-2.76-9.31-3.68-14.17l-.15-.65c2.46-.17 4.88-.3 7.32-.7 38.4-7.41 74.91-25.93 101.33-55.08.58-.7 1.15-1.4 1.73-2.1 3.35 3.48 6.37 7.41 11.67 7.43-.63-3.3-2.92-4.95-4.72-7.58-1.7-2.21-2.5-4.75-3.19-7.41 18.46-.06 35.98-4.52 52-13.7 21.54-12.1 37.77-30.43 51.46-50.68 6.62-10.31 12.8-20.94 18.16-31.97 7.28-14.26 15.62-27.25 28.13-37.5 7.91-6.11 17.41-10.4 27.38-11.56Z"/><path fill="#b2b2d4" d="m643.91 347.02-.41 2.2c3.93.1 8.64-.53 12.34.94 2.38.87 4.2 2.44 5.94 4.23-.39 3.53-.41 7.07-.33 10.61.51 24.07-1.87 48.38-7.78 71.74-4.82 20.9-13.25 40.5-23.82 59.1-23.75 40.49-61.07 71.71-104.23 89.79-31.37 13.89-66.49 20.6-100.62 22.46-33.65 1.55-67.25-2.53-99.85-10.81-3.02-.89-5.94-1.6-9.11-1.46l-1.03-.33c1.23-1.63 2.76-2.71 4.32-3.99 23.07 3.86 46.25 6.32 69.67 6.17 28.88.34 57.93-2.89 85.97-9.89 35.18-8.67 68.47-23.32 97.19-45.6 18.62-14.79 34.88-32.37 47.37-52.65 11.7-18.12 20.01-38.62 25.84-59.33 5.7-21.17 8.58-43.3 9.43-65.18-.09-2.47.61-4.46-1.95-5.92-1.89 3.74-1.04 8.75-1.44 12.9-1.62 25.89-5.93 52.71-15.33 76.99-5.36 14.55-12.11 28.49-20.68 41.42-21.33 33.15-52.71 59.06-88.34 75.64-25.64 12.43-53.99 20.13-82.07 24.59-24.52 3.93-49.25 4.6-74.02 3.64-16.15-1.09-32.55-2.43-48.42-5.71 2.56-2.56 5.22-5.05 7.68-7.71 34.72 3.75 70.02 1.49 104.01-6.56 18.05-4.55 36.23-10.12 53.18-17.89 6.97-3.33 13.99-6.45 20.77-10.17 28.69-15.98 54.41-36.61 73.56-63.5 20.95-29.03 32.8-65.58 30.84-101.47l-2.58.93c-.59 5.24-.06 10.57-.54 15.83-2.04 29.26-12.56 58.01-29.6 81.87-19.53 27.82-46.78 49.57-76.66 65.42-10.08 5.17-20.38 10.06-30.98 14.07-32.11 12-65.93 19.12-100.23 20.07-7.67.12-15.34.09-23.01-.15-5.27-.31-10.52-.9-15.8-1.15l.79-1.66c3.89-4.62 7.13-9.66 10.53-14.63 6.58.74 12.78-.16 19.36-.82 1.5 3.46 3.65 9.07 7.53 10.38 17.68.76 36.04-1.95 53.28-5.82 24.2-5.65 47.64-14.65 69.5-26.44 30.93-16.41 59.16-38.76 79.54-67.45 7.6-11.76 14.24-23.65 18.05-37.22 2.97-9.71 3.39-19.77 6.21-29.52 5.53-19.6 16.91-37.4 32.43-50.6 3.95-3.37 8.86-4.61 13.5-7.36Z"/><path fill="#f9fefd" d="M661.78 354.39c.96 1.82 1.75 3.53 1.73 5.63.2 5.67.19 11.32.64 16.98-.75 8.64-.22 17.35-1.28 25.95-2.12 26.93-8.96 53.51-19.93 78.19-10.26 22.03-24.01 42.39-41.28 59.52-26.31 26.87-60.59 46.35-96.32 57.59-35.1 11.02-72.15 15.23-108.83 12.73-27.18-1.55-54.45-7.23-80.47-15.16 3.17-.14 6.09.57 9.11 1.46 32.6 8.28 66.2 12.36 99.85 10.81 34.13-1.86 69.25-8.57 100.62-22.46 43.16-18.08 80.48-49.3 104.23-89.79 10.57-18.6 19-38.2 23.82-59.1 5.91-23.36 8.29-47.67 7.78-71.74-.08-3.54-.06-7.08.33-10.61Z"/><path fill="#59a9fe" d="M470.42 358.46c5.23-1.91 12.03-.97 16.07 3.05 2.84 3.3 3.89 8.35 1.11 12.05-3.45 4.92-10.26 7.62-15.86 9.13-5.21 1.34-11.85.06-13.55-5.72-1.72-8.75 4.29-15.83 12.23-18.51Z"/><path fill="#4a42a3" d="M652.85 359.1c2.56 1.46 1.86 3.45 1.95 5.92-.85 21.88-3.73 44.01-9.43 65.18-5.83 20.71-14.14 41.21-25.84 59.33-12.49 20.28-28.75 37.86-47.37 52.65-28.72 22.28-62.01 36.93-97.19 45.6-28.04 7-57.09 10.23-85.97 9.89-23.42.15-46.6-2.31-69.67-6.17 1.11-.94 2.18-1.92 3.22-2.93 15.87 3.28 32.27 4.62 48.42 5.71 24.77.96 49.5.29 74.02-3.64 28.08-4.46 56.43-12.16 82.07-24.59 35.63-16.58 67.01-42.49 88.34-75.64 8.57-12.93 15.32-26.87 20.68-41.42 9.4-24.28 13.71-51.1 15.33-76.99.4-4.15-.45-9.16 1.44-12.9Z"/><path fill="#4942a1" d="m610.01 382.2 2.58-.93c1.96 35.89-9.89 72.44-30.84 101.47-19.15 26.89-44.87 47.52-73.56 63.5-6.78 3.72-13.8 6.84-20.77 10.17-16.95 7.77-35.13 13.34-53.18 17.89-33.99 8.05-69.29 10.31-104.01 6.56 1.27-1.43 2.52-2.89 3.75-4.36l-.79 1.66c5.28.25 10.53.84 15.8 1.15 7.67.24 15.34.27 23.01.15 34.3-.95 68.12-8.07 100.23-20.07 10.6-4.01 20.9-8.9 30.98-14.07 29.88-15.85 57.13-37.6 76.66-65.42 17.04-23.86 27.56-52.61 29.6-81.87.48-5.26-.05-10.59.54-15.83Z"/><path fill="#030171" d="M424.35 396.4c5.23-1.78 11.03-1.26 15.82 1.51 4.1 2.24 7.43 6.03 10 9.87 5.44 8.75 6.47 19.21 4.99 29.24-1.59 8.58-6.26 17.6-13.95 22.18-3.42 2.11-7.24 2.71-11.21 2.54-6.78.21-13.06-4.57-16.97-9.74-8.06-11.08-9.42-26.62-4.41-39.25 2.84-7.03 8.38-13.82 15.73-16.35Z"/><path fill="#fcfffd" d="M431.47 402.55c5.09-1.26 9.8 2.91 11.67 7.33 2.28 4.79 2.29 11.31-2.62 14.44-6.22 1.95-10.9-2.35-13.2-7.73-1.82-4.83-1.66-12.06 4.15-14.04Z"/><path fill="#b3b2d9" d="M162.27 448.9c1.34 3.21 2.58 6.5 4.22 9.58 8.66 14.97 19.37 28.58 32.3 40.1.23.3.47.6.7.91 2.96 4.96 6.45 9.46 10.26 13.79 1.56 1.71 2.68 3.63 3.69 5.7-2.82-1.15-5.06-3-7.3-5-13.37-11-25.06-24.11-34.84-38.39-3.92-5.52-4.93-12.04-7.26-18.6-.99-2.66-1.47-5.28-1.77-8.09Z"/><path fill="#675db8" d="M538.36 468.7c-1.14 3.79-3 7.19-5.17 10.49-6.89 11.12-16.54 20.2-26.61 28.42-20.05 15.6-42.41 26.95-66.09 35.95-24.65 8.94-50.48 15.09-76.62 17.49-6.58.66-12.78 1.56-19.36.82.63-1.07 1.26-2.15 1.86-3.24 5.41.11 10.78-.36 16.17-.77 11.24-.67 22.46-2.65 33.48-4.87 19.85-4.25 39.16-9.96 57.71-18.28 17.99-7.75 35.08-17.42 50.61-29.4 12.23-9.92 23.06-20.52 30.08-34.84 1.24-2.29 1.36-2 3.94-1.77Z"/><path fill="#fe6dbc" d="M425 482.32c3.56-.2 5.86 1.68 8.6 3.56.05 2.65.41 5.62-.29 8.2-3.36 5.37-8.5 8.63-14.23 11.02-4.73 2.28-10.94 1.65-16.1 1.6-2.93.1-6.09-1.93-7.18-4.67-1.25-4.16 1.25-8.28 4.17-11.07 6.75-6.09 15.89-9.55 25.03-8.64Z"/><path fill="#b0b3d8" d="M177.04 487.12c11.81 15.29 26.25 28.66 42.15 39.6 8.01 5.1 16.09 10.47 24.82 14.27-.72 2.92-1.67 5.67-2.99 8.37-22.95-12.72-43.15-30.7-58.19-52.22-.87-1.24-2.01-2.19-3.17-3.15-1.04-2.24-2.1-4.43-2.62-6.87Z"/><path fill="#4845a2" d="M179.66 493.99c1.16.96 2.3 1.91 3.17 3.15 15.04 21.52 35.24 39.5 58.19 52.22-.48 1.01-.98 2-1.49 3-14.29-8.23-27.49-18.07-39.31-29.57-3.13-3-5.1-6.36-8.89-8.6-2.95-3.27-4.85-7.49-7.36-11.16-1.95-2.87-3.38-5.67-4.31-9.04Z"/><path fill="#fbfdfd" d="M199.49 499.49c14.06 12.05 30 22.59 47.12 29.75l.36 1.64c-.31 2.73-1.02 5.36-1.75 8.01-3.56-1.56-7.07-3.19-10.32-5.36l-1.44.12-.08-1.49-1.88.7.07-1.04c-6.37-3.64-12.7-7.91-18.13-12.84-1.01-2.07-2.13-3.99-3.69-5.7-3.81-4.33-7.3-8.83-10.26-13.79Z"/><path fill="#1962d6" d="M345.85 508.89c.58.28 1.16.58 1.73.89-.87.04-1.74.12-2.6.24l-.12 1.64c2.16 2.33 5.13 3.92 6.78 6.71 2.83 4.82 2.63 10.79.37 15.8-6.08 14.48-14.52 28.14-25 39.85-9.24 9.8-18.56 18.87-30.34 25.63-16.85 10.23-35.99 16.43-55.66 17.84-9.81.4-19.38.36-29.08-1.32-2.94-.39-5.87-3.05-5.76-6.17-.64-3.94 3.91-7.03 6.28-9.65.9 2 1.12 3.9 3.24 5.01 4.04 2.32 9.78 2.01 14.31 1.99 11.16-.76 22.26-3.49 32.59-7.76 10.6-3.6 20.61-9.94 30.13-15.88 8.78-6.3 17.75-12.94 25.14-20.86 4.53-5.1 9.34-10.22 12.98-16.01 5.33-8.63 10.25-18.42 9.68-28.84.09-1.85-.26-4.13.52-5.84 1.27-1.41 3.13-2.4 4.81-3.27Z"/><path fill="#afb4d8" d="M200.22 522.79c11.82 11.5 25.02 21.34 39.31 29.57-.97 1.87-1.97 3.73-2.98 5.59-17.37-12.04-32.85-26.58-45.22-43.76 3.79 2.24 5.76 5.6 8.89 8.6Z"/><path fill="#245ecc" d="M356.74 535.73c.76 2.42 1.41 4.85 1.97 7.31l.15.65c-1.75.02-3.5.12-5.25.2 1.09-2.7 2.12-5.42 3.13-8.16Z"/><path fill="#b2b2d3" d="M358.86 543.69c.92 4.86 2.11 9.48 3.68 14.17-5.39.41-10.76.88-16.17.77 2.55-4.83 5.11-9.71 7.24-14.74 1.75-.08 3.5-.18 5.25-.2Z"/></svg>