<svg xmlns="http://www.w3.org/2000/svg" xmlns:xlink="http://www.w3.org/1999/xlink" width="640pt" height="640pt" viewBox="0 0 640 640"><defs><path id="a" d="M0 0h640v640H0V0Zm283.41 257.48c-16.15-26.59-32.18-53.03-48.24-79.68a89.054 89.054 0 0 0-6.31-9.55l-2.74.15c.04 1.17.09 2.33.15 3.5a46.86 46.86 0 0 0-6.12-1.05c-.7 2.6-1.46 5.08-.93 7.8 1.49 7.55 6.97 13.13 7.15 21.15-.04 3.76-.45 8.62-2.95 11.62-3.71 3.77-10.62 4.76-14.12 8.89-3.24 4.12-3.28 10.54-.48 14.91 2.42 4.12 5.33 7.17 5.73 12.21.54 9.91-3.37 19.95-10.8 26.62-2.92-4.18-5.4-8.52-7.61-13.1-2.24-4.39-4.71-9.45-9.26-11.86-5.69-3.22-13.74.51-15.24 6.79-1.32 5.62.85 11.57 5.23 15.27 5.72 4.89 13.95 7.68 21.45 6.13 1.58-.08 3.93-.87 5.26.22 3.35 2.38 6.13 5.27 9.92 7.03 5.8 2.82 11.08 5.68 14.5 11.4 1.91 3.34 1.19 7.11-.94 10.15-4.3 6.3-11.26 12.09-14.84 19.16-3.13 6.08-4.72 13.67-2.82 20.36 2.58 8.17 9.03 14.73 17.15 17.51-1.01 10.86-1.74 21.35.05 32.2-7.21 3.62-15.2 2.26-22.07 6.21-8.16 4.66-11.01 16.33-6.46 24.41 2.46 4.18 6.54 6.44 10.99 8.02 5.27 2.03 12.84 2.97 16.79 7.2 3.14 3.33 2.86 7.17 3.16 11.42-4.69-.4-10.06-1.38-14.33 1.09-5.79 3.26-8.27 11-5.45 17.03 2.05 5.04 6.88 7.93 11.99 9.09 8.44 1.74 18.44-1.12 26.76 1.27 5.26 1.48 9.86 5.55 10.76 11.11.57 3.41-1.51 6.68-2.92 9.64-2.71-.63-5.71-1.52-8.5-1.24-1.62.39-2.96 2.1-4.2 3.16.13-3.03.07-6.04-.41-9.04-3.81.69-5.33 3.69-7.85 6.28-3.32-.52-6.62-1.07-9.99-1.24.81 3.13 2.5 6.05 3.1 9.21-.78 2.76-2.41 5.23-3.19 8.02.54.53 1.11 1.01 1.72 1.43 2.59-.07 5.24-1.5 7.63-2.42 1.35 2.57 2.72 5.12 4.15 7.64.85.01 1.7.02 2.55.02.85-2.93.83-6.78 2.38-9.36 2.43-1.77 8.22.07 10.3-2.76 1.72-2.8 2.44-6.13 4.05-9.01 1.8-3.43 3.98-6.25 3.41-10.37-.72-5.79-5.26-9.58-10.19-12-11.31-5.68-23.92 2.48-35.17-4.74-6.39-3.86-7.56-12.76-2.26-18.04 4.05-3.93 9.09-3.29 14.27-3.22-.07 3.03-.57 6.75.61 9.6 2.01 4.1 8.57 5.97 10.95 1.1.68-5.48-4.51-8.33-8.27-11.1.04-5.49.03-10.38-4.19-14.47-6.39-5.75-17.97-5.21-24.56-11.41-5.09-4.7-5.14-13.01-2.15-18.86 2.71-5.29 8.47-7.97 14.15-8.63 4.42-.8 9.18-.08 12.69-3.3 1.39 9.93 4.3 19.48 8.62 28.53 2.16 3.78-.06 7.42 1.63 11.27 1.82 4.12 4.01 9.03 8.79 10.27 4.89 1.22 6.31 5.07 9.67 8.32 13.87 13.32 30.64 21.33 48.76 27.23 4.01 1.01 4.5 5.38 8.53 6.43 6.43 1.8 13.37 2.09 19.99 1.56 4.29-.18 6.11-4.78 10.3-5.29 12.75-1.81 25.03-5.58 36.27-11.94 3.92-2.44 7.8-.23 11.89-2.14 4.99-2.23 9.61-5.69 13.31-9.69 3.14-3.02.92-7.92 3.79-11.21 10.47-11.9 17.96-26.61 22.19-41.85 1.53-5.02 1.38-10.58 4.14-14.85 2.4-3.94 2.66-9.23 2.27-13.71-.28-3.21-2.49-5.37-3.9-8.25 6.71.71 14.14.79 20.86.18 6.91-.55 11.94-6.51 12.81-13.11.39-4.59-1.89-9.42-6.06-11.57-3.98-2.14-9.09-1.78-13.36-.83-6.34 1.51-12.33 4.95-17.54 8.79-2.18-9-6.34-17.03-11.07-24.92-2.41-3.76-1-7.96-3.5-11.52-2.8-4.01-6.22-7.96-10.38-10.6-2.61-1.92-6.84.42-9-1.96-1.96-1.73-3.47-3.84-5.55-5.47-3.35-2.67-7.37-4.71-11.07-6.86 5.79-3.8 11.92-7.09 17.67-10.96 1.74-1.22 3.64-2.52 4.97-4.2.73-2.93-.22-6.39-.38-9.39-1.01-11.8-1.89-23.58-3.69-35.3-1-6.91-1.26-14.56-3.71-21.1-5.98-3.08-13.48-3.59-19.99-5.17 2.14-11.2 1.96-22.51-2.81-33.03-4.66-10.04-12.35-18.62-22.18-23.84-9.92-5.24-21.76-7.32-32.83-5.31-8.74 1.6-16.44 5.89-23.17 11.58-6.15 5.27-10.5 12.6-12.65 20.38-1.23 4.24-1.07 8.59-2.04 12.9-2.08 10.42-1.41 22.35 4.85 31.31 2.45 3.9 5.95 6.91 8.64 10.59 1.39 3.6-.61 6.31-2.27 9.33-3.01 4.99-4.37 10.38-6.24 15.83Z"/><path id="b" d="M316.29 145.56c11.07-2.01 22.91.07 32.83 5.31 9.83 5.22 17.52 13.8 22.18 23.84 4.77 10.52 4.95 21.83 2.81 33.03 6.51 1.58 14.01 2.09 19.99 5.17 2.45 6.54 2.71 14.19 3.71 21.1 1.8 11.72 2.68 23.5 3.69 35.3.16 3 1.11 6.46.38 9.39-1.33 1.68-3.23 2.98-4.97 4.2-5.75 3.87-11.88 7.16-17.67 10.96 3.7 2.15 7.72 4.19 11.07 6.86 2.08 1.63 3.59 3.74 5.55 5.47 2.16 2.38 6.39.04 9 1.96 4.16 2.64 7.58 6.59 10.38 10.6 2.5 3.56 1.09 7.76 3.5 11.52 4.73 7.89 8.89 15.92 11.07 24.92l-1.03 1.21c-2.37-5.47-4.06-11.15-6.67-16.53-1.73-3.83-4.01-7.32-6.13-10.94-2.2-3.37-.01-6.99-2.68-10.25-2.58-3.37-5.85-7.34-9.81-9.05-3.33-.3-6.46-.21-9.7-1.27-.62 5.18-1.04 10.81-2.58 15.82-.62 2.32-2.73 3.25-4.6 4.44-7.6 4.3-15.91 7.54-23.91 11.07-2.31.48-4.26 1.26-6.53.14-7.39-3.15-14.66-6.74-21.48-11.01-.41-1.77-.83-3.55-1.34-5.3-5.7 5.35-9.72 11.93-12.69 19.12-1.24 3.23-3.25 5.93-4.91 8.92-1.26 4.08-2.52 7.87-4.9 11.47-3.58 2.35-6.61 3.87-10.9 2.09-7.46-3.42-13.86-10.08-20.32-15.1-2.13 2.59-3.69 5.37-7.15 6.3-5.43 1.38-9.85-1.43-13.94-4.63l1.42-.59c4.48-.28 8.97-.26 13.45-.6l-.53-.69c-.56-.76-1.11-1.52-1.66-2.29l-.51-.69c-.18-1.99-.16-4.26-.93-6.13-.78-1.5-2.18-2.73-3.35-3.94-1.95-.12-3.89-.33-5.83-.54l.39-.83c.39-.86.78-1.72 1.16-2.59-2.57-2.3-5.23-4.47-8.02-6.52-.71.41-1.42.81-2.13 1.22l-1.8-1.05-.84-.48c-1.23-.76-2.44-1.55-3.65-2.34 1.3.09 2.61.18 3.92.28l-.24-2.25c3.39 1.89 6.43 4.14 9.65 6.34.39-2.42.96-4.64.13-7.05-.78-2.46-2.55-4.01-4.56-5.49-.85-.27-1.7-.51-2.56-.72-1.64-.37-3.28-.59-4.95-.68-1.92.14-3.82.37-5.73.55l-1.75-.33c3.6-1.87 7.26-1.5 11.08-2.23 2.99-2.43 5.35-5.55 8.32-8.02 4.51-4 10-6.53 14.48-10.5 3.69-3.28 7.57-5.72 10.15-10.08-3.14 2.13-6.03 4.96-9.44 6.61-4.57 1.33-9.85.82-14.56.54-3.25-.35-7.65-.61-9.63-3.64-2.01-3.32-1.86-8.1-1.65-11.84.35-4.33 2.09-8.64 6.47-10.23 5.49-1.9 10.9-3.66 16.78-3.72.5.57 1.02 1.12 1.54 1.67-2.29.08-4.58.15-6.86.27.42.55.85 1.1 1.28 1.64-4.59.04-10.02.17-13.93 2.88-3.2 2.24-3.46 6.84-3.58 10.39.02 2.94 0 7.27 2.9 8.98 4.05 2.08 9.56 1.84 14.01 1.86 3.71-.08 6.04-.42 8.85-2.96-1.45-.06-2.89-.12-4.33-.17-.39-4.05-.2-7.84 1.2-11.71l.41-.56c.81 1.74 1.62 3.49 2.45 5.23.59-1.93 1.17-3.86 1.62-5.83.26-1.25.49-2.5.71-3.76-2.72-1.55-5.47-3.05-8.13-4.7 1.99.26 3.97.55 5.94.97 2.13.99 4.32 1.76 6.58 2.4-.2-1.77-.35-3.47-.79-5.2-1.97-.35-3.98-.45-5.97-.7 1.24-.74 2.48-1.49 3.72-2.23-1.93-3.23-3.69-6.9-6.23-9.67-.51-.54-1.03-1.06-1.55-1.58l-.48-1.55c-.24-.71-.49-1.42-.76-2.12-3.33-6.14-7.17-12.02-10.82-17.97-.47-.71-.94-1.42-1.44-2.12-.46-.66-.9-1.33-1.32-2.01-.48-.87-.95-1.75-1.42-2.63-2.72-5.07-5.73-9.99-8.88-14.81-.85-1.31-1.73-2.6-2.6-3.9-2.18-4.52-4.76-8.81-7.55-12.98-.59-.89-1.18-1.78-1.78-2.67-.79-1.2-1.47-2.46-2.13-3.74-1.31-2.6-2.73-5.13-4.58-7.39-.44-.55-.89-1.09-1.34-1.63l-.09-.97c-.06-1.17-.11-2.33-.15-3.5l2.74-.15c2.32 3.07 4.4 6.21 6.31 9.55 16.06 26.65 32.09 53.09 48.24 79.68 1.87-5.45 3.23-10.84 6.24-15.83 1.66-3.02 3.66-5.73 2.27-9.33-2.69-3.68-6.19-6.69-8.64-10.59-6.26-8.96-6.93-20.89-4.85-31.31.97-4.31.81-8.66 2.04-12.9 2.15-7.78 6.5-15.11 12.65-20.38 6.73-5.69 14.43-9.98 23.17-11.58Zm-35.06 35.54c3.53-4.9 7.39-9.18 12.72-12.17 4.81-3.11 10.15-3.67 15.3-5.77-4.22.16-8.5 1.03-12.39 2.69-4.38 1.9-7.38 4.99-11.48 7.36 5.68-7.7 14.28-10.18 23.31-11.57 2.84-6.39 6.64-10.49 12.25-14.54-6.22.92-12.18 1.96-17.72 5.1-8.18 4.24-14.89 10.8-18.77 19.19-1.03 3.27-1.85 6.54-3.22 9.71Zm39.64-31.44c-4.63 2.69-7.78 6.81-10.14 11.53 10.49.64 20.36 1.7 28.65 8.84-3.65-1.43-6.93-3.5-10.64-4.81-5.71-2.18-12.51-2.36-18.58-2.62l-.01 1.01c8.14.26 15.88 1.21 23.18 5.05 5.79 2.9 10.64 7.51 13.96 13.06 2.12 3.46 3.41 7.24 5.77 10.56-.99-9.27-7.72-14.93-13.1-21.65 7.19 5.12 11.74 12.25 15.05 20.3.53.47 1.06.93 1.6 1.39l.59.69c-2.64.55-5.13.1-7.14 2.04-4.16 5.5-4.41 14.25-.54 20.04.75 1.31 2.06 2.49 3.67 2.4 2.74-.03 5.56-1.43 8.18-2.19-2.09 3.74-5.48 3.52-9.13 4.65-2.55 4.92-5.72 8.96-9.59 12.91-3.41 2.38-6.91 4.57-10.85 5.98-6.9 1.15-13.51.48-20.44.18.3 1.31.6 2.62.92 3.93 6.21 1.29 12.13.31 18.36.29l1.63.49c-7.3 1.43-14.43 2.06-21.81.77l-1.3-.16-1.89-.2c-1.01 1.37-1.92 2.8-2.78 4.27l-.05-1.39c.31-1.03.61-2.06.93-3.1-1.18-.74-2.36-1.48-3.53-2.25 1.47.07 2.94.15 4.4.22-.13-1.2-.26-2.41-.4-3.62-3.94-1.03-7.66-2.52-11.39-4.11.12 1.86.46 3.76.36 5.63-1.37 3.87-3.83 7.12-4.6 11.29 1.99 1.24 4.12 1.76 6.37 2.3l1.24.23c-.21 2.43-.85 5.27-.21 7.66.72 1.76 2.38 3.22 3.61 4.64l-.74.34-1.12.5c-.2 2.72-.21 5.49-.25 8.21 1.02-.05 2.04-.11 3.06-.16.03-2.72.07-5.46-.06-8.17 2.84-1.05 5.58-2.42 8.33-3.67.87.31 1.73.62 2.59.93.16-1.66.32-3.32.5-4.97.19 1.72.36 3.43.52 5.15 1.72.33 3.46.68 5.2.94 3.81.05 5.84-3.88 8.13-6.38-2.77-.15-5.58-.25-8.33-.56-1.41-.26-2.82-.53-4.23-.8l2.51-.57c4.08-.11 8.17.03 12.25-.03 2.84-3.32 5.71-6.65 8.83-9.71 4.72-4.28 9.6-8.48 13.97-13.12-5.03 1.63-9.42 3.96-14.85 4.08 3.77-2.53 7.96-3.46 11.95-5.49 7.22-3.62 13.43-9.36 17.91-16.06 4.15-6.33 5.06-13.49 5.66-20.87-.55.02-1.1.05-1.65.08l-1.57.01c1.24-1.68 3.15-3.41 2.99-5.65-.15-6.77-2.96-13.65-6.34-19.44-3.66-6.03-8.22-11.96-14.38-15.6-6.25-3.83-13.69-7.65-21.1-8.2-3.7-.47-6.99 1.24-10.13 2.96Zm-93.77 19.9c-.98 1.02.03 2.75 1.36 1.91 1.03-1.03-.02-2.71-1.36-1.91Zm8.5 14.18c-.11-1.54-.19-2.97-.97-4.35-1.48-2.74-3.23-6.1-6.01-7.69.93 4.49 4.08 8.6 6.98 12.04Zm10.32 16.01c-1.28-4.55-4.41-8.72-6.77-12.86-.88-1.22-1.8-3.38-3.54-3.33.95 3.14 2.67 5.68 4.33 8.46 1.81 2.87 3.11 5.7 5.98 7.73Zm41.76 10.81c-.07-4.3-1.19-8.3-.94-12.58.19-4.26 1.23-8.26 1.63-12.48-1.32.89-2.68 1.17-3.16 2.85-1.86 5.94-1.9 12.54-.3 18.55.41 1.67 1.64 2.48 2.77 3.66Zm-27.87 12.26c-1.37-4.99-4.98-9.51-7.54-14.07-2-3.21-3.56-7.05-6.76-9.16 1.21 4.6 4.5 8.85 6.89 13 2.23 3.44 4.12 7.78 7.41 10.23Zm103.74 2.77c3.64 0 7.51.69 11.09.1 4.66-1.97 8.41-5.39 13.41-6.8-6.03 5.32-13.89 8.36-20.63 12.93 1.19 2.63 2.08 5.27 2.6 8.12 1.1 5.76 3.3 11.16 4.16 16.98 1.16 6.47 1.02 12.85 1.27 19.38 5.29-1.08 9.26-4.1 13.41-7.33-.91-6.15-1.53-12.32-2.93-18.39-2.7 1.57-5.69 3.22-7.92 5.44-1.22 1.11-.9 2.35-.91 3.83.29 4.19.78 8.34.69 12.55-2.19-10.23-2.75-20.79-5.04-31.02-.82-3.55-1.34-7.1-1.31-10.76 2.42 6.43 2.35 13.43 4.65 19.94 6.77-4.17 13.12-8.93 20.08-12.82-1.02-7.09-1.64-14.26-2.76-21.31-.37-2.82-3.02-2.84-5.2-3.69-4.69-1.14-9.82-2.71-14.68-2.36-3.13 5.26-6.32 10.27-9.98 15.21Zm-76.01-13.47c-.89 1.61 1.01 3.08 2.27 1.66.91-1.67-.97-3.06-2.27-1.66Zm45.55 24.24c6.63-1.63 10.88-6.23 14.85-11.47 1.51-2.02 2.53-4.22 3.21-6.65-3.26 2.75-4.45 6.48-7.28 9.63-3.09 3.62-6.92 5.84-10.78 8.49Zm-59.26 10.62c-.14-4.31-3.72-8.37-5.75-12.06-2.72-3.97-4.7-9.16-8.44-12.22.85 4.22 3.78 7.97 5.99 11.65 2.76 4.24 4.9 8.93 8.2 12.63Zm75.13-6.65c4.59-.76 7.68-3.49 11.41-5.99 2.93-2.07 5.95-3.95 8.79-6.15-5.28-.19-8.24 2.96-12.3 5.67-2.8 1.96-5.49 4.04-7.9 6.47Zm10.77-4.14c2.98.38 5.94.85 8.91 1.3-1.02-1.24-1.99-3.3-3.66-3.65-1.81.57-3.56 1.5-5.25 2.35Zm-1.77 3.48c1.53 1.6 3.06 3.19 4.53 4.84-1.54-.56-3.07-1.15-4.62-1.69-4.64-1.81-8.44-1.09-12.59 1.46-6.61 4.39-12.06 11.32-17.57 17.03 5.42 1.48 9.36 4.61 13.86 7.74-2.47-4.04-6.22-5.95-10.04-8.43 4.92.65 8.31 3.05 11.24 6.93.69 1.37 1.29 2.78 1.89 4.19-1-.44-1.99-.9-2.98-1.36a98.57 98.57 0 0 1 2.99 10.66c0-2.55 0-5.1.18-7.65.77 1.87 1.41 3.79 2.04 5.72 5.36-4.6 10.01-9.83 14.48-15.28.21 1.86-.17 4.14 1.19 5.6 2.75 3.27 6.67 4.57 10.55 5.97 1.12-8.34-.3-17.08-2.3-25.19-1.06-3.88-2.48-8.76-5.52-11.56-1.84-1.38-5.4.31-7.33 1.02Zm-48.68 4.18c.68-1.76 1.46-3.05.87-4.98a14.7 14.7 0 0 0-3.26-.21c.6 1.82 1.46 3.52 2.39 5.19Zm67.05 8.52-.15 2.71c4.96-2.96 9.49-6.51 14.53-9.33 2.8-1.69 5.46-2.73 6.57-6.11-7.62 2.52-14.21 8.44-20.95 12.73Zm-90.32 10.11c1.08-6.79 2.88-13.01 4.98-19.53-2.76 4.39-4.64 9.33-5.58 14.42-.33 1.82.18 3.37.6 5.11Zm101.57-13.46c.78 6.42 1.54 12.86 2.47 19.27 3.19-1.58 6.24-3.38 9.22-5.33-.57-6.47-1.04-12.92-2.15-19.32-3.26 1.64-6.42 3.47-9.54 5.38Zm-101.5 17.39c-1.22-4.36-4.05-8.17-6.34-12.14-1.77-2.76-3.06-5.89-5.88-7.72 1.03 3.94 3.29 6.81 5.33 10.26 2.18 3.48 3.67 6.9 6.89 9.6Zm7.52-6.07c.87.27 1.74.53 2.61.78.04-2.01.09-4.01.05-6.02l-.92-.28c-2.01-.58-4.1-1.23-6.17-1.55-.36 1.55-.62 3.15-.66 4.75 1.49 1.17 3.31 1.73 5.09 2.32Zm4.08 16.89c-.2-4.33.79-9.45-.31-13.57-2.21-2.04-6.45-2.35-9.34-2.62.2 3.02 1.87 5.07 3.39 7.52 1.23 1.9 1.95 4.01 2.99 6 .97 1 2.16 1.82 3.27 2.67Zm15.81-3.22c.71.53 1.41 1.07 2.11 1.61 1.17.98 2.26 2.04 3.32 3.15l.58.63c-3.39-1.4-6.27-3.56-9.82-4.63 3.12 2.98 6.61 4.8 8.99 8.56 2.75 3.87 3.75 8.2 4.81 12.73.38-1.9.76-3.8 1.09-5.71.75.64 1.5 1.29 2.25 1.92 4.71-2.58 9.67-5.18 13.86-8.56 2.86-1.75 1.33-6.2.9-8.89-.3-1-.71-1.98-1.24-2.94-.59-.93-1.2-1.84-1.91-2.69-2.81-3.28-6.93-5.99-11.4-5.59-1.76.09-3.31 1.78-4.58 2.87-2.84 2.7-5.85 5.16-8.96 7.54Zm-9.93.72c2.68-.39 5.73-.7 8.12-2.05 2.82-1.57 5.42-3.78 7.89-5.84-3.16-.62-6.4-1.48-9.62-1.59-2.14.29-4.62 1.38-6.35 2.66-.22 2.24-.1 4.57-.04 6.82Zm95.54-2.46c.65-2.44 1.1-4.87.95-7.4l-2.14.2c-.52 2.6.37 4.78 1.19 7.2Zm-115.92-4.78c1.04 1.35 2.09 2.69 3.13 4.04 2.09-1.85 2.41-2.44 2.25-5.2-1.8.36-3.59.78-5.38 1.16Zm113.44.21c-1.49-.62-.98 4.97.33 4.61.75-1.04.52-3.67-.33-4.61Zm-7.38 3.56-.12 2.16c-.83-.39-1.65-.78-2.48-1.17.35 2.08.71 4.15 1.1 6.21.51-1.01 1.02-2.02 1.52-3.03.44.29.88.58 1.32.86l2.28-1.92c.08-1.42.16-2.84.25-4.26.63 1.41 1.27 2.82 1.92 4.23.03-2.13.03-4.25.03-6.38-1.93 1.12-3.86 2.25-5.82 3.3Zm-32.4 2.63c2.23-.21 4.44-.49 6.65-.84-1.22-1.41-2.45-2.82-3.75-4.17-1.05 1.62-1.99 3.31-2.9 5.01Zm-76.88-4.01c-.55 1.04-.27 1.72.85 2.05 2.02-.41.9-3.3-.85-2.05Zm3.12.79c-.9 1.26.86 3.72 2.33 3.08.78-.83-1.31-3.81-2.33-3.08Zm4.14 2.93c1.39.81 2.55 1.37 4.2 1.24.1-1.27.16-2.53.19-3.81-1.48.83-2.94 1.69-4.39 2.57Zm-9.13 10.12c2.79-2.39 2.37-5.39 2.33-8.71-.03-1.3-.52-2.17-1.47-2.63-1.13 3.77-1.36 7.44-.86 11.34Zm101.96 1.48c-.04 1.52-.08 3.04-.1 4.56-1.43-3.14-2.31-3.5-5.57-4.44-.15 1.31-.3 2.62-.44 3.93.79.3 1.58.6 2.38.9l.62.22c1.24.35 2.32.72 3.59.19 4.06-1.53 7.76-4.3 11.45-6.56 2.78-1.83 6.07-3.62 8.22-6.18.24-1.55.18-3.19.15-4.75-7.12 3.27-13.75 7.85-20.3 12.13Zm-35.73-.88c6.54.2 12.49-1.33 18.78-2.84-2.54-2.33-4.97-4.94-7.8-6.92-3.87 2.97-7.42 6.43-10.98 9.76Zm14.99-8.71c2.07 1.87 4.12 3.69 6.47 5.2 1.91.9 3.89 1.64 5.89 2.34-.28-2.39-.65-4.77-1.18-7.12l-1.54-.65c-3.69-1.84-5.96-1.18-9.64.23Zm25.79-1.58-.33 5.28c-.47-1.49-.93-2.99-1.41-4.48-.26 1.31-.5 2.62-.74 3.94-.57-.92-1.13-1.84-1.69-2.76-.05 2.06-.07 4.11-.06 6.17 1.49-.87 3.18-1.74 4.43-2.93.76-1.54.91-3.4 1.28-5.06l-1.48-.16Zm-98.1 9.54c.33-2.69.43-5.37.38-8.07-4.7.41-3.13 6.12-.38 8.07Zm4.56-7.27c-.76 1.19.74 2.63 1.83 1.63.76-1.2-.74-2.55-1.83-1.63Zm6.64 2.43c1.72.78 3.44 1.53 5.21 2.17-2.18 1.92-4.78 4.92-7.73 5.5-1.56-.2-3.09-.83-4.59-1.3-1.11 2.41-2.28 4.42-1.42 7.17 1.28 4.44 3.49 9.03 6.59 12.48 3.37 3.55 8.43 3.48 12.87 2.5 5.34-1.23 10.19-5.08 11.52-10.54 1.15-6.75-2.35-12.88-7.59-16.9-2.64-1.57-5.85-3.4-8.99-3.51-2.22-.11-4.05 1.37-5.87 2.43Zm-9.08-1.46-.4.73.4.72h.82l.41-.73-.4-.73-.83.01Zm2.03 2.83c1.27 1.72 2.56 3.44 3.85 5.14 1.32-.82 2.63-1.64 3.94-2.47-.89-1.54-1.78-3.06-2.76-4.55-1.69.6-3.35 1.26-5.03 1.88Zm82.31 3.59c2.03.07 4.05.13 6.07.18-.6-2.11-1.05-4.22-1.43-6.38-1.87.09-3.77.16-5.63.37.15 1.94.62 3.9.99 5.83Zm-99.86-3.32c-.29.85-.58 1.7-.86 2.56 1.27.12 2.53.23 3.8.35-.18-1.16-.37-2.32-.56-3.48-.8.17-1.59.36-2.38.57Zm.8 14.95c1.03.73 2.13 1.42 3.08 2.26 1.05 1.71 1.37 4.08 1.14 6.04-.61 1.74-2.5 3.09-4.19 3.67-3.2.57-6.65-.26-9.86.24-2.51 2.14-4.21 5.5-5.89 8.3.38.79.75 1.57 1.12 2.36 1.64 3.61 1.63 7.02 1.09 10.89 1.83 1.7 3.67 3.38 5.53 5.05 1.05-3.62 2.29-7.08 4.54-10.14 2.44-1.73 5.14-2.86 7.99-3.72 4.89-.8 6.72-5.83 9.5-9.32-1.03-.96-2.07-1.93-3.11-2.88-1.34-1.25-2.6-2.56-3.79-3.94 1.91.91 3.72 1.94 5.47 3.13 1.33.9 2.67 1.8 4.01 2.68.55 1.42 1.13 2.82 1.72 4.22 1.88-1.75 3.74-3.52 5.6-5.29-1.53-.52-3.05-1.04-4.58-1.53-.35-1.73-.67-3.4-1.37-5.04-1.78-3.58-4.5-7.38-5.03-11.43-.5-2.83 1.66-5.66 2.71-8.22.14-.75.27-1.51.38-2.27-2.41 3.77-6.01 5.89-9.28 8.8-2.34 1.96-4.54 4.07-6.78 6.14Zm86.51-8.79c-.6-.66-1.2-1.32-1.8-1.97-4.03.91-8.01 1.76-12.16 1.84-2.45.14-5.13-.07-7.5.61-1.16 1.93-1.65 4.65-3.23 6.24-4.41.81-8.12-.22-11.61 3.38-3.49 4-5.9 8.48-10.37 11.65-.15.96-.31 1.93-.49 2.89-.76 1.45-1.61 2.81-2.84 3.91l-1.81.68c.54-2.05 1.15-4.09 1.71-6.14-3.7.28-7.4.52-11.1.82.09 2.32.62 4.55 1.19 6.79-.89 0-1.79.01-2.68 0-1.38 2.36-3.4 4.99-3.82 7.73.35 1.07.86 2.12 1.3 3.16 1.5 4 .75 7.71.17 11.79 3.9 4.51 7.96 8.87 11.67 13.55 2.39-2.83 3.39-5.54 4.12-9.12 1.21-1 2.69-1.82 3.23-3.37 1.31-3.46 2.09-7.05 3.81-10.37-.23 2.64-.53 5.23-1.41 7.75-1.09 3.49-3.13 6.03-2.74 9.87 3.68-4.42 5.71-10.15 8.51-15.19 1.42-2.43.52-4.54.18-7.11-1.07.96-2.13 1.94-3.19 2.92.48-1.59 1.08-3.2 1.35-4.84-.21-1.28-1.24-2.48-2.03-3.47-2.07-2.38-4.44-4.47-6.48-6.89 2.62 1.21 4.94 2.74 6.96 4.81 1.18 1.34 2.29 2.76 3.42 4.14 2.72-3.06 5.32-6.24 7.81-9.49 1.24-1.55 1.45-3.29 1.97-5.14 1.08-4.6 7.22-6.08 10.99-7.89 4.77-1.72 9.6-3.55 14.06-5.96 2.26-1.03 3.09-4.13 4.22-6.2.04 1.42.08 2.83.13 4.25 4.16-1.49 7.99-2.14 10.57-6.16-2.51-1.29-5.18-2.98-7.98-3.55-1.83-.02-3.1 2.82-4.13 4.08Zm-26.64 3.44c-1.62.78-1.04 2.71.75 2.3 1.64-.75 1.05-2.75-.75-2.3Zm-.35 19.96c7.12 4.52 14.4 8.71 22.21 11.96 4.02-.33 7.47-1.91 11.06-3.62 8.28-3.96 16.79-6.87 25.19-10.53-.32-1.53-.61-3.11-1.08-4.6-5.33-3.99-11.36-7.2-17.29-10.21-1.69-.7-3.47-2.02-5.36-1.25-8.46 2.78-16.69 6.55-24.88 10.05-4.27 2.08-8.36 3.11-9.85 8.2Zm-67.29-2.96c3.67-.79 6.84-1.92 10.14-3.7-.03-1.82-.01-3.65.01-5.47-3.42-.23-6.39-.68-9.02 2.01-2.35 2.14-1.33 4.4-1.13 7.16Zm-13.87 6.12c1.32.55 2.63 1.1 3.96 1.64 2.56-3.85 6.28-7.5 7.71-11.86-5.13 2.1-8.36 5.98-11.67 10.22Zm136.27 11.55c2.42-4.71 2.97-9.78 3.01-15l-1.88.55c-.82 4.67-1.24 9.71-1.13 14.45Zm-26.44-2.77c-.06 5.24-.25 10.49-.21 15.73 7.01-2.47 13.4-5.89 20.15-8.99 1.55-.78 3.33-1.5 4.61-2.69 1.38-4.86 1.58-10.17 2.1-15.18-8.96 3.54-17.92 7.04-26.65 11.13Zm-74.77-.2c1.04-1.85 2.33-3.72 3-5.74-.17-1.22-.42-2.42-.76-3.61-2.35 2.08-4.84 4.12-5.42 7.38 1.04.69 2.1 1.35 3.18 1.97Zm1.97.25c.72.67 1.45 1.34 2.17 2.01 2.13-3.72 4.4-7.12 6.03-11.11-3.72 2.2-6.03 5.47-8.2 9.1Zm45.69 1.44c.54 1.8.1 4.28 2.01 5.23 6.02 3.9 12.56 7.23 19.22 9.88 1.31.22 2.62.36 3.94.5.84-5.5.72-10.93.8-16.46-1.48.13-2.97.24-4.46.33-8.56-1.64-15.05-7.33-22.43-10.38l.2 2.35c3.48 2.84 9.91 3.48 12.65 7.26-.5 1.86-.74 2.97-2.85 3.3-3.05-.12-6.11-1.36-9.08-2.01Zm-5.63-7.43c-.2 1.54-.87 2.33.7 3.36 3.16 1.93 6.96 2.92 10.46 4.08.8.22 1.61.42 2.42.61 2.42.67 3.37-2.1 1.06-3.1-4.11-2.18-8.35-4.11-12.49-6.23-.73.4-1.45.82-2.15 1.28Zm-5.79 8.18c.62 1.33 1.25 2.66 1.87 4 1.99-2.15 3.97-4.31 5.99-6.43-1.23-.37-2.47-.81-3.73-1.03-1.51.93-2.82 2.27-4.13 3.46Zm-53.66 3.18c4.6-.19 8.89-.29 13.1 1.89 3.71 2.77 7.11 5.93 10.82 8.71 1.41-5.01 1.13-9.4-3.2-12.78-4.34-2.81-9.42-3.88-14.44-2.42-2.54.87-4.37 2.82-6.28 4.6Zm1.09 4.22c1.6.62 4.43 1.58 5.9.37 0-2.06-4.74-.82-5.9-.37Zm-3.03 2.71c4.81 2.71 11.77 1.45 17.07 1.4-4.97-3.19-11.51-2.15-17.07-1.4Zm1.54 3.66c5.72 2.02 12.32 1.77 18.28 1.24.89-1.83-2.19-1.92-3.3-2.18-5.04-.52-10.08-.46-14.98.94Zm2.72 2.89c6.03 1.5 12.66.99 18.81.64-6.1-1.25-12.61-.94-18.81-.64Zm3.58 3.26c5.72 2.16 12.57 1.57 18.53.86-5.56-2.41-12.65-1.47-18.53-.86Zm3.4 3.17c1.56.61 3.06 1.21 4.75 1.25 4.61.17 9.33.13 13.94-.15-5.94-2.04-12.54-2.22-18.69-1.1Zm30.63 12.06c1.94-3.39 2.4-6.53 2.37-10.41-1.18 1.98-2.59 4.02-3.27 6.22.14 1.41.56 2.82.9 4.19Zm-27.69-8.84c5.86 1.98 12.48 2.1 18.48.7-6.12-1.92-12.23-1.61-18.48-.7Zm-19.71 2.42c1.99.67 4.1 1.55 6.2 1.72 1.68-.08 3.35-1.09 4.89-1.69-4.26-1.73-6.81-1.47-11.09-.03Zm23.4 1.03c5.57 1.45 11.63 1.5 17.31.73-4.79-3.07-12.06-1.93-17.31-.73Zm3 2.47c5.41 3 10.94 2.07 16.69.78-5.48-1.99-11.04-1.66-16.69-.78Zm3.77 3.42c4.76 1.99 9.59 1.7 14.58.95-4.17-3.39-9.83-2.19-14.58-.95Zm4.34 2.5c3.74 1.82 7.01 3.59 10.31-.16-3.49-.31-6.83-.24-10.31.16Z"/><path id="c" d="M320.94 147.1c-5.61 4.05-9.41 8.15-12.25 14.54-9.03 1.39-17.63 3.87-23.31 11.57 4.1-2.37 7.1-5.46 11.48-7.36 3.89-1.66 8.17-2.53 12.39-2.69-5.15 2.1-10.49 2.66-15.3 5.77-5.33 2.99-9.19 7.27-12.72 12.17 1.37-3.17 2.19-6.44 3.22-9.71 3.88-8.39 10.59-14.95 18.77-19.19 5.54-3.14 11.5-4.18 17.72-5.1Z"/><path id="d" d="M331 146.7c7.41.55 14.85 4.37 21.1 8.2 6.16 3.64 10.72 9.57 14.38 15.6 3.38 5.79 6.19 12.67 6.34 19.44.16 2.24-1.75 3.97-2.99 5.65-1.93 1.01-3.79 2.12-5.65 3.23-2.04-3.13-3.85-5.37-7.57-6.5-.54-.46-1.07-.92-1.6-1.39.88-.01 1.76-.03 2.65-.04-.79-12.45-7.07-24.03-16.47-32.09-5.92-4.99-12.89-7.41-20.32-9.14 3.14-1.72 6.43-3.43 10.13-2.96Z"/><path id="e" d="M320.87 149.66c7.43 1.73 14.4 4.15 20.32 9.14 9.4 8.06 15.68 19.64 16.47 32.09-.89.01-1.77.03-2.65.04-3.31-8.05-7.86-15.18-15.05-20.3 5.38 6.72 12.11 12.38 13.1 21.65-2.36-3.32-3.65-7.1-5.77-10.56-3.32-5.55-8.17-10.16-13.96-13.06-7.3-3.84-15.04-4.79-23.18-5.05l.01-1.01c6.07.26 12.87.44 18.58 2.62 3.71 1.31 6.99 3.38 10.64 4.81-8.29-7.14-18.16-8.2-28.65-8.84 2.36-4.72 5.51-8.84 10.14-11.53Z"/><path id="f" d="M227.1 169.56c1.34-.8 2.39.88 1.36 1.91-1.33.84-2.34-.89-1.36-1.91Z"/><path id="g" d="M220.15 170.85c2.06.22 4.11.56 6.12 1.05l.09.97c-1.74.18-3.48.36-5.22.6-1.23 6 2.09 10.78 4.37 16.04 3.11 6.36 3.54 14.3.92 20.89-1.94 4.81-8.89 6.37-12.91 9.14-4.06 2.37-5.96 7.11-4.72 11.63 1.41 4.56 6.01 8.3 7.01 12.99 1.93 11.51-1.83 23.69-10.81 31.37 2.47 2.43 4.94 4.76 7.96 6.5 4.9 2.92 10.03 4.7 13.86 9.16 2.65 3.14 4.86 7.07 3.83 11.31-1.28 6.46-7.56 10.65-11.42 15.75-5.4 6.9-10.48 15.88-8.4 24.95 1.64 7.84 8.13 16.25 16.36 17.71l1.53-.18c1.12-4.73 1.53-9.31 3.11-13.96 1.57-4.53 3.57-8.94 5.84-13.16 6.72 6.33 13.35 12.67 20.87 18.08 4.09 3.2 8.51 6.01 13.94 4.63 3.46-.93 5.02-3.71 7.15-6.3 6.46 5.02 12.86 11.68 20.32 15.1 4.29 1.78 7.32.26 10.9-2.09 7.84-1.19 15.6-2.76 23.27-4.77 1.79-.61 4.52-1.19 5.17-3.21 1.32-3.12-.53-6.44-2.58-8.75-2.77-3.02-7.76-4.21-11.53-5.56 2.46-4.65 5.3-8.69 9.51-11.92 6.82 4.27 14.09 7.86 21.48 11.01 2.27 1.12 4.22.34 6.53-.14 3.93.39 7.51-.08 9.7 3.84 5.19 8.85 7.21 19.99 9.06 29.96.31 2.44 1.21 5.3.71 7.74-1.35 2.85-3.23 5.42-4.5 8.33 1.02-.25 2.03-.5 3.04-.75l.65.04c1.63.13 3.27.21 4.91.19l.7-.03c1.14-.27 2.28-.57 3.41-.89l.77-.23.88-.26c.7-.2 1.4-.41 2.09-.62 4.81-1.37 9.14-3.79 13.16-6.73 8.67-5.94 14.16-15.88 21.5-23.88l1.03-1.21c5.21-3.84 11.2-7.28 17.54-8.79 4.27-.95 9.38-1.31 13.36.83 4.17 2.15 6.45 6.98 6.06 11.57-.87 6.6-5.9 12.56-12.81 13.11-6.72.61-14.15.53-20.86-.18l-.42-.86c7.74-2.26 14.55 1.53 22.13-1.07 5.44-1.69 10.47-6.64 10.08-12.68-.33-5.82-6.06-10.22-11.72-9.78-9.57.75-16.65 5.59-24.04 11.21-1.92 1.73-3.14 3.9-4.17 6.24-1.12 1.22-2.25 2.42-3.38 3.63-5.21 5.13-9.15 10.73-15.53 14.62-6.18 4.25-13.08 6.41-20.37 7.86-1.08.25-2.15.52-3.22.81-.33.81-.66 1.62-.98 2.43l-.36.86c-.99-1.49-2.01-2.96-3.17-4.33-.83 4.34 1.98 7.72 1.81 12.18-.14 2.1-.94 4.05-2.58 5.41-3.12 2.65-7.23 4.36-11.07 5.67.56-1.93-1.68-2.63-2.45-.84-.34.54-.69 1.08-1.03 1.62-5.7-.3-11.74 1.08-16.14-3.33 1.53-2.57 2.66-5.27 3.57-8.11-.7.21-1.39.42-2.09.64-3.12.96-5.93 2.57-8.95 3.77l-1.2-.03c-.59-.04-1.18-.07-1.78-.1-6.31-.49-12.29-1.61-18.31-3.56-1-.67-2.01-1.32-3.05-1.94 1.66 6.99 8.04 12.33 15.4 10.68 2.1-.94 4.13-2.01 6.23-2.94l.98-.28c-.3 1.14-.59 2.28-.88 3.43 1.48-.44 2.96-.89 4.44-1.33l1.47 2.49c-1.71 1.42-3.53 2.69-5.29 4.04 2.86-1.03 5.58-2.2 7.87-4.25 6.38 2.49 13.14 3.55 19.9 2.1 4.32-.88 7.91-2.81 11.86-4.6l1.49 1.81c-2.31 1.79-3.63 3.75-4.77 6.42-2.62 6.12-6.55 10.98-10.57 16.22-5.07 6.4-10.14 12.35-16.93 17.01-6.82 4.64-13.3 9.09-21.1 11.94-7.69 2.8-15.47 5.95-23.75 6.11-7 .17-14.12-.01-21.09-.71-5.55-2.67-10.32-6.29-15.34-9.8-7.68-5.97-13.2-13.99-19.49-20.6.11 1.52.25 3.03.38 4.54-4.84-3.47-6.56-6.37-7.95-12.16 1.26.55 2.51 1.12 3.77 1.68-6.69-12.17-11.53-25.17-12.9-39.07-1.77-10.37-1.09-20.51.08-30.9-.65-.25-1.3-.51-1.94-.77-8.12-2.78-14.57-9.34-17.15-17.51-1.9-6.69-.31-14.28 2.82-20.36 3.58-7.07 10.54-12.86 14.84-19.16 2.13-3.04 2.85-6.81.94-10.15-3.42-5.72-8.7-8.58-14.5-11.4-3.79-1.76-6.57-4.65-9.92-7.03-1.33-1.09-3.68-.3-5.26-.22-7.5 1.55-15.73-1.24-21.45-6.13-4.38-3.7-6.55-9.65-5.23-15.27 1.5-6.28 9.55-10.01 15.24-6.79 4.55 2.41 7.02 7.47 9.26 11.86 2.21 4.58 4.69 8.92 7.61 13.1 7.43-6.67 11.34-16.71 10.8-26.62-.4-5.04-3.31-8.09-5.73-12.21-2.8-4.37-2.76-10.79.48-14.91 3.5-4.13 10.41-5.12 14.12-8.89 2.5-3 2.91-7.86 2.95-11.62-.18-8.02-5.66-13.6-7.15-21.15-.53-2.72.23-5.2.93-7.8ZM201.73 275.1c-2.83-4.63-5.29-9.39-7.59-14.29-2.22-4.41-5.12-9.33-10.17-10.81-3.62-1.24-7.56 1.56-9.55 4.4-2.77 4.34-1.05 10.32 2.36 13.82 6.54 6.49 15.98 9.03 24.95 6.88Zm43.49 78.82c-3.33 1.67-5.86 3.2-7.9 6.42 3.55-.02 6.58.34 10.02 1.23-.84-.98-1.65-2.09-2.67-2.89-1.43-.25-2.9-.29-4.34-.43 2.2-1 4.44-1.86 6.72-2.65.83 1.95 1.56 3.95 2.28 5.95 1.51-.32 3.01-.63 4.52-.94a98.092 98.092 0 0 0-5.84-6.71c.55-.99 1.11-1.98 1.67-2.98-1.47 1.01-2.95 2.04-4.46 3Zm107.53 7.47c1.09.36 2.18.71 3.28 1.06.85-1.79 1.68-3.6 2.57-5.38l1-.22c-.12 1.34-.3 2.67-.53 4-.93 1.74-2.71 3.05-4.04 4.49 2.78-.89 5.15-1.37 6.12-4.51-.09-2.07-.68-4.14-1.18-6.14-3.79-1.07-7.96 2.86-7.22 6.7Zm11.56-7.25c-.57 1.01-.29 1.68.84 2 2.1-.4.95-3.21-.84-2Zm-.36 7.25c1.24-.18 2.46-.35 3.67-.68-.23-.87-.51-1.73-.82-2.58-1.04 1.01-1.94 2.13-2.85 3.26Zm-114.36 1.73c1.49 4.53 2.4 8.73 1.68 13.52-.75-.55-1.5-1.11-2.26-1.66-1.5 4.19-3.2 7.07-6.57 10.02l-2.04-1.17c7.07-4.8 7.15-12.03 7.32-19.77l-1.78.21c-.99.1-1.97.17-2.96.21-1.35-.12-2.69-.3-4.03-.48-.72.6-1.43 1.22-2.12 1.84-2.68 3.36-2.55 9.03-2.58 13.12-.16 5.25 4.1 8.42 8.14 10.84 4.18 2.49 8.65 4.31 13.56 4.6 5.74.29 11.18.39 16.47-2.18-5.71-.05-11.58 1.05-17.16.37-3.69-.45-6.86-1.84-10.22-3.3 3.23-3.16 6.35-5.89 8.12-10.18 2.31-5.27 2.22-10.54 2.07-16.16-1.88.05-3.76.11-5.64.17Zm33.51 25.25c-1.84-1.55-4.17-2.92-5.62-4.85-1.31-1.74-1.31-4.44-1.45-6.54l1.86 1.38c.67 2.66 1.5 4.92 3.59 6.81 5.31-.21 8.35-5.12 7.51-10.06-.48-3.21-2.41-6.45-6.14-5.67-1.46.1-2.93.33-4.38.54 1.82-1.65 3.75-3.16 5.51-4.88-2.71.9-5.18 1.49-6.89 3.98-3.29 4.6-3.91 12.32.15 16.65 1.58 1.88 3.62 2.09 5.86 2.64Zm2.95-22.9c1.53 2.51 3.57 5.03 4.49 7.84.45 2.7-.09 5.63-.35 8.34.56-.01 1.13-.02 1.69-.02-.9 1.33-1.79 2.68-2.66 4.03 1.49-.83 3.71-1.48 4.51-3.08 2.54-4.42 2.61-11.35-1.43-14.93-1.8-1.8-3.9-1.81-6.25-2.18Zm36.44 11.63c-4.56.7-7.72 3.32-11.36 5.9-.96.48-2.02 2.32-.38 2.62.91-.25 1.63-.93 2.16-2.06 2.27-.53 4.3-.83 6.58-.16 5.04 1.44 9.34-1.47 14.43.83 3.94 1.81 8.24 5.25 9.56 9.55.73 3.2.06 6.83-.23 10.08 2.59-1.09 5.19-2.18 7.79-3.24-.1-1.97-.24-3.94-.47-5.91l-.06-.57c-.13-7.27-4.32-14.47-11.54-16.56-2.56-.8-5.25-1.91-7.94-2.07-2.87.26-5.7 1.09-8.54 1.59Zm-57.93 3.06c-1.14 1.59.51 3.35 2.16 2.24 1.47-1.36-.77-3.51-2.16-2.24Zm50.2 18c1.49 1.13 2.98 2.27 4.5 3.36 6.31 4.64 13.2 4.51 20.61 3.42.31-1.55.63-3.11.91-4.66 1.54-5.25-.56-8.48-4.63-11.54-.57-.47-1.15-.92-1.75-1.35-5.37-3.77-13.42-2.65-17.19 2.83-1.78 2.39-2.1 5.07-2.45 7.94Zm-58.79 17.61c-1.1-.95-2.21-1.89-3.32-2.83-.44-2.75-1.41-5.07-2.8-7.48-.29-.59-.6-1.17-.92-1.74-1.25 2.83-1.54 4.65-.12 7.51 1.02 2.97 4.62 3.36 7.16 4.54Zm-15.66-9.23c-1.39 1.28-.01 3.2 1.64 2.26 1.38-1.27 0-3.2-1.64-2.26Zm45.09 18.42c-3.36-1.26-7.03-1.04-8.51-4.89l-.12-2.41.56.33c1.8 1.84 3.54 3.75 5.38 5.57l.84-.9c4-3.02 3.55-8.21.36-11.59-1.69-1.43-3.54-1.31-5.61-1.31l.02.96c.02.81.04 1.62.07 2.43-.93-.4-1.86-.81-2.79-1.21.66-1.52 1.37-3.02 2.01-4.55-2.07 1.88-3.79 3.64-3.86 6.63.04 4.07 1.81 8.73 5.64 10.7 2.01 1.21 3.88.58 6.01.24Zm-1.26-16.44c1.9 3.04 3.71 6.12 5.6 9.17-.01-1.97.29-4.19-.3-6.08-.68-1.45-1.96-2.7-3.1-3.81-.73.24-1.47.48-2.2.72Zm82.93 12.52.78.42.8-.4.75-.46c.3-.93.58-1.86.85-2.79-1.44.08-2.88.2-4.31.35.33.97.7 1.93 1.13 2.88Zm-116.59 1.01c-.49.88-.24 1.46.73 1.74 1.81-.36.8-2.78-.73-1.74Zm106.7 7.14c-.59 1.02-.32 1.69.82 2 2.1-.41.97-3.2-.82-2Zm-53.96 7.2c-.58 1.03-.31 1.7.83 2 2.1-.42.94-3.19-.83-2Zm-60.14.99c-.6 1.03-.33 1.7.81 2.01 2.09-.42.98-3.19-.81-2.01Zm47.88 2.08c.9.09 1.81.19 2.71.28-.13-.95-.25-1.9-.38-2.85-.77.86-1.55 1.71-2.33 2.57Zm29.66 7.15c3.65 2.43 7.21 4.81 10.1 8.15-.76.87-1.52 1.73-2.29 2.6-.31-1.45-.62-2.89-1-4.33-4.72-4.3-10.82-5.67-17.06-4.75-3.08.34-3.98 1.73-4.81 4.59l-.48-.33c-.91-1.62-1.84-3.22-2.9-4.74.66 3.44 1.59 6.31 4.32 8.69 1.77.73 3.61.85 5.5.89.42.45.84.9 1.25 1.36 4.3.94 8.94 1.65 13.3.67 3.14-.74 5.66-4.09 7.91-6.23-2.51-5.78-8-7.26-13.84-6.57Zm-34.95 12.03.54-1.88c-1.9-1.97-2.88-2.22-5.6-2.26-2.06-.97-4.09-1.99-6.2-2.86-.53-1.55-1.08-3.09-1.72-4.6-.15 1.99-1.07 5.2.47 6.81 3.3 3.66 7.36 6.47 12.51 4.79Z"/><path id="h" d="M228.62 171.7c2.78 1.59 4.53 4.95 6.01 7.69.78 1.38.86 2.81.97 4.35-2.9-3.44-6.05-7.55-6.98-12.04Z"/><path id="i" d="M221.14 173.47c1.74-.24 3.48-.42 5.22-.6.45.54.9 1.08 1.34 1.63-1.95 1.3-1.16 3.35-.36 5.09 1.1 1.83 3.12 3.26 4.76 4.6l.18-2.3c.66 1.28 1.34 2.54 2.13 3.74-1.86 3.54-1.13 8.32-.14 12.01.62 3.29 5.26 3.03 7.8 3.73-2.04-1.65-4.54-3.19-6.1-5.33-1.44-2.11-.18-5.44.22-7.74 2.79 4.17 5.37 8.46 7.55 12.98-.26 5.51-.79 11.79.96 17.06 2.27 4.84 7.48 4.27 11.94 4.28.42.68.86 1.35 1.32 2.01-.81 4.51-1.35 9.1-1.47 13.68-.07 3.42 1 7.46 3.8 9.64 3.44.56 7.31-.44 10.69-1.11l.48 1.55c-.59 4.28-.77 8.53.16 12.78-5.88.06-11.29 1.82-16.78 3.72-4.38 1.59-6.12 5.9-6.47 10.23-.21 3.74-.36 8.52 1.65 11.84 1.98 3.03 6.38 3.29 9.63 3.64 4.71.28 9.99.79 14.56-.54 3.41-1.65 6.3-4.48 9.44-6.61-2.58 4.36-6.46 6.8-10.15 10.08-4.48 3.97-9.97 6.5-14.48 10.5-2.97 2.47-5.33 5.59-8.32 8.02-3.82.73-7.48.36-11.08 2.23-3.81 1.57-7.24 5.64-7.8 9.76-.51 2.93 2.33 5.84 3.84 8.12-2.13 5.18-4.47 10.24-5.86 15.66-1.18 4.33-1.75 8.7-2.61 13.09-8.23-1.46-14.72-9.87-16.36-17.71-2.08-9.07 3-18.05 8.4-24.95 3.86-5.1 10.14-9.29 11.42-15.75 1.03-4.24-1.18-8.17-3.83-11.31-3.83-4.46-8.96-6.24-13.86-9.16-3.02-1.74-5.49-4.07-7.96-6.5 8.98-7.68 12.74-19.86 10.81-31.37-1-4.69-5.6-8.43-7.01-12.99-1.24-4.52.66-9.26 4.72-11.63 4.02-2.77 10.97-4.33 12.91-9.14 2.62-6.59 2.19-14.53-.92-20.89-2.28-5.26-5.6-10.04-4.37-16.04Z"/><path id="j" d="M227.7 174.5c1.85 2.26 3.27 4.79 4.58 7.39l-.18 2.3c-1.64-1.34-3.66-2.77-4.76-4.6-.8-1.74-1.59-3.79.36-5.09Z"/><path id="k" d="M235.61 183.56c1.74-.05 2.66 2.11 3.54 3.33 2.36 4.14 5.49 8.31 6.77 12.86-2.87-2.03-4.17-4.86-5.98-7.73-1.66-2.78-3.38-5.32-4.33-8.46Z"/><path id="l" d="M234.41 185.63c.6.89 1.19 1.78 1.78 2.67-.4 2.3-1.66 5.63-.22 7.74 1.56 2.14 4.06 3.68 6.1 5.33-2.54-.7-7.18-.44-7.8-3.73-.99-3.69-1.72-8.47.14-12.01Z"/><path id="m" d="M288.37 185.5c-.4 4.22-1.44 8.22-1.63 12.48-.25 4.28.87 8.28.94 12.58-1.13-1.18-2.36-1.99-2.77-3.66-1.6-6.01-1.56-12.61.3-18.55.48-1.68 1.84-1.96 3.16-2.85Z"/><path id="n" d="M356.61 192.32c3.72 1.13 5.53 3.37 7.57 6.5 1.86-1.11 3.72-2.22 5.65-3.23l1.57-.01c-2.12 2-4.44 3.72-6.83 5.38.25 5.12-.22 10.01-3.2 14.34.02-1.48.1-2.95.22-4.43.46-4.37.38-8.74-.25-13.1-1.32-1.65-2.78-3.15-4.14-4.76l-.59-.69Z"/><path id="o" d="M357.2 193.01c1.36 1.61 2.82 3.11 4.14 4.76-2.27-1.35-4.49-3.9-7.14-1.7-4.72 4.17-4.79 12.97-1.31 17.92 1.14 2.02 3.09 1.71 5.1 1.64 1.77-.74 2.74-3.16 3.6-4.76-.12 1.48-.2 2.95-.22 4.43-2.62.76-5.44 2.16-8.18 2.19-1.61.09-2.92-1.09-3.67-2.4-.2-1.42-.33-2.86-.51-4.29 1.88-.59 1.65-3.12-.17-3.6.18-2.99.31-5.94.9-8.9 2.28.33 2.81-2.22 3.13-3.94-.65.12-1.28.27-1.9.44l-.91.25c2.01-1.94 4.5-1.49 7.14-2.04Z"/><path id="p" d="M352.87 194.36c-.32 1.72-.85 4.27-3.13 3.94.26-1.19.67-2.36 1.23-3.5.62-.17 1.25-.32 1.9-.44Z"/><path id="q" d="m350.06 195.05.91-.25c-.56 1.14-.97 2.31-1.23 3.5-.59 2.96-.72 5.91-.9 8.9-.12 1.18-.06 2.38.17 3.6.18 1.43.31 2.87.51 4.29-3.87-5.79-3.62-14.54.54-20.04Z"/><path id="r" d="M361.34 197.77c.63 4.36.71 8.73.25 13.1-.86 1.6-1.83 4.02-3.6 4.76-2.01.07-3.96.38-5.1-1.64-3.48-4.95-3.41-13.75 1.31-17.92 2.65-2.2 4.87.35 7.14 1.7Zm-7.4 13.59c1.84-.73 5.31-1.08 6.29-3.01.5-2.66-.06-5.59-.24-8.27-2.03.03-4.1-.03-6.13.2-.79 3.72-.45 7.36.08 11.08Z"/><path id="s" d="M373.05 195.5c-.6 7.38-1.51 14.54-5.66 20.87-4.48 6.7-10.69 12.44-17.91 16.06-3.99 2.03-8.18 2.96-11.95 5.49 5.43-.12 9.82-2.45 14.85-4.08-4.37 4.64-9.25 8.84-13.97 13.12-2.01-1.16-4.02-2.29-6.14-3.23l-1.63-.49c2.23-.86 4.38-1.86 6.53-2.88-1.78-.54-3.56-1.07-5.37-1.52 3.94-1.41 7.44-3.6 10.85-5.98 2.44-1.21 5.15-2.03 6.9-4.22 2.16-2.64 3.75-5.91 5.28-8.94-.87.07-1.73.15-2.59.25 3.65-1.13 7.04-.91 9.13-4.65 2.98-4.33 3.45-9.22 3.2-14.34 2.39-1.66 4.71-3.38 6.83-5.38.55-.03 1.1-.06 1.65-.08Z"/><path id="t" d="M245.51 199.59c3.2 2.11 4.76 5.95 6.76 9.16 2.56 4.56 6.17 9.08 7.54 14.07-3.29-2.45-5.18-6.79-7.41-10.23-2.39-4.15-5.68-8.4-6.89-13Z"/><path id="u" d="M353.86 200.28c2.03-.23 4.1-.17 6.13-.2.18 2.68.74 5.61.24 8.27-.98 1.93-4.45 2.28-6.29 3.01-.53-3.72-.87-7.36-.08-11.08Z"/><path id="v" d="M243.74 201.28c.87 1.3 1.75 2.59 2.6 3.9-1.83 5.06-1.69 11.03 2.36 14.94 1.96.71 4.5.05 6.52-.13.47.88.94 1.76 1.42 2.63-4.46-.01-9.67.56-11.94-4.28-1.75-5.27-1.22-11.55-.96-17.06Z"/><path id="w" d="M246.34 205.18c3.15 4.82 6.16 9.74 8.88 14.81-2.02.18-4.56.84-6.52.13-4.05-3.91-4.19-9.88-2.36-14.94Z"/><path id="x" d="M348.84 207.2c1.82.48 2.05 3.01.17 3.6-.23-1.22-.29-2.42-.17-3.6Z"/><path id="y" d="M373.53 210.38c4.86-.35 9.99 1.22 14.68 2.36 2.18.85 4.83.87 5.2 3.69 1.12 7.05 1.74 14.22 2.76 21.31-6.96 3.89-13.31 8.65-20.08 12.82-2.3-6.51-2.23-13.51-4.65-19.94-.03 3.66.49 7.21 1.31 10.76 2.29 10.23 2.85 20.79 5.04 31.02.09-4.21-.4-8.36-.69-12.55.01-1.48-.31-2.72.91-3.83 2.23-2.22 5.22-3.87 7.92-5.44 1.4 6.07 2.02 12.24 2.93 18.39-4.15 3.23-8.12 6.25-13.41 7.33-.25-6.53-.11-12.91-1.27-19.38-.86-5.82-3.06-11.22-4.16-16.98-.52-2.85-1.41-5.49-2.6-8.12 6.74-4.57 14.6-7.61 20.63-12.93-5 1.41-8.75 4.83-13.41 6.8-3.58.59-7.45-.1-11.09-.1 3.66-4.94 6.85-9.95 9.98-15.21Zm16.59 5.77c-.99.25-1.25.82-.77 1.71 1.5 1.06 2.58-1.29.77-1.71Z"/><path id="z" d="M287.54 212.12c1.3-1.4 3.18-.01 2.27 1.66-1.26 1.42-3.16-.05-2.27-1.66Z"/><path id="A" d="M390.12 216.15c1.81.42.73 2.77-.77 1.71-.48-.89-.22-1.46.77-1.71Z"/><path id="B" d="M351.15 218.24c-.68 2.43-1.7 4.63-3.21 6.65-3.97 5.24-8.22 9.84-14.85 11.47 3.86-2.65 7.69-4.87 10.78-8.49 2.83-3.15 4.02-6.88 7.28-9.63Z"/><path id="C" d="M352.24 219.95c.86-.1 1.72-.18 2.59-.25-1.53 3.03-3.12 6.3-5.28 8.94-1.75 2.19-4.46 3.01-6.9 4.22 3.87-3.95 7.04-7.99 9.59-12.91Z"/><path id="D" d="M259.64 222.7c3.74 3.06 5.72 8.25 8.44 12.22 2.03 3.69 5.61 7.75 5.75 12.06-3.3-3.7-5.44-8.39-8.2-12.63-2.21-3.68-5.14-7.43-5.99-11.65Z"/><path id="E" d="M257.96 224.63c.5.7.97 1.41 1.44 2.12-.34 4.31-1.39 8.81-1.16 13.11.15 2.38 1.15 5.23 3.51 6.25 2.74.37 5.8-.83 8.47-1.39.27.7.52 1.41.76 2.12-3.38.67-7.25 1.67-10.69 1.11-2.8-2.18-3.87-6.22-3.8-9.64.12-4.58.66-9.17 1.47-13.68Z"/><path id="F" d="M259.4 226.75c3.65 5.95 7.49 11.83 10.82 17.97-2.67.56-5.73 1.76-8.47 1.39-2.36-1.02-3.36-3.87-3.51-6.25-.23-4.3.82-8.8 1.16-13.11Z"/><path id="G" d="M369.16 228.19c-2.84 2.2-5.86 4.08-8.79 6.15-3.73 2.5-6.82 5.23-11.41 5.99 2.41-2.43 5.1-4.51 7.9-6.47 4.06-2.71 7.02-5.86 12.3-5.67Z"/><path id="H" d="M294.45 234.16c3.73 1.59 7.45 3.08 11.39 4.11.14 1.21.27 2.42.4 3.62-1.46-.07-2.93-.15-4.4-.22 1.17.77 2.35 1.51 3.53 2.25-.32 1.04-.62 2.07-.93 3.1-2.04 2.77-4.99 4.21-7.86 6.36-2.25-.54-4.38-1.06-6.37-2.3.77-4.17 3.23-7.42 4.6-11.29.1-1.87-.24-3.77-.36-5.63Z"/><path id="I" d="M364.98 233.84c1.67.35 2.64 2.41 3.66 3.65-2.97-.45-5.93-.92-8.91-1.3 1.69-.85 3.44-1.78 5.25-2.35Z"/><path id="J" d="M365.29 238.65c3.04 2.8 4.46 7.68 5.52 11.56 2 8.11 3.42 16.85 2.3 25.19-3.88-1.4-7.8-2.7-10.55-5.97-1.36-1.46-.98-3.74-1.19-5.6-4.47 5.45-9.12 10.68-14.48 15.28-.63-1.93-1.27-3.85-2.04-5.72-.18 2.55-.18 5.1-.18 7.65a98.57 98.57 0 0 0-2.99-10.66c.99.46 1.98.92 2.98 1.36-.6-1.41-1.2-2.82-1.89-4.19 4.61-2.33 10.51-4.85 13.7-9.06 3.19-4.29 1.79-10.69 1.4-15.67 1.55.54 3.08 1.13 4.62 1.69-1.47-1.65-3-3.24-4.53-4.84 1.93-.71 5.49-2.4 7.33-1.02Z"/><path id="K" d="M306.89 238.66c1.11-.05 2.2.02 3.26.21.59 1.93-.19 3.22-.87 4.98-.93-1.67-1.79-3.37-2.39-5.19Z"/><path id="L" d="M311.36 239.02c6.93.3 13.54.97 20.44-.18 1.81.45 3.59.98 5.37 1.52-2.15 1.02-4.3 2.02-6.53 2.88-6.23.02-12.15 1-18.36-.29-.32-1.31-.62-2.62-.92-3.93Z"/><path id="M" d="M397.28 239.64c-1.11 3.38-3.77 4.42-6.57 6.11-5.04 2.82-9.57 6.37-14.53 9.33l.15-2.71c6.74-4.29 13.33-10.21 20.95-12.73Z"/><path id="N" d="M357.87 242.82c.39 4.98 1.79 11.38-1.4 15.67-3.19 4.21-9.09 6.73-13.7 9.06-2.93-3.88-6.32-6.28-11.24-6.93 3.82 2.48 7.57 4.39 10.04 8.43-4.5-3.13-8.44-6.26-13.86-7.74 5.51-5.71 10.96-12.64 17.57-17.03 4.15-2.55 7.95-3.27 12.59-1.46Z"/><path id="O" d="M290.99 242.95c-2.1 6.52-3.9 12.74-4.98 19.53-.42-1.74-.93-3.29-.6-5.11.94-5.09 2.82-10.03 5.58-14.42Z"/><path id="P" d="m307.27 244.14 1.89.2c-1.13 2.64-1.29 5.34-4.53 6.18l-.14-2.11c.86-1.47 1.77-2.9 2.78-4.27Z"/><path id="Q" d="m309.16 244.34 1.3.16c-.95 1.84-1.88 3.69-2.81 5.54 1.65 1.81 3.12 3.81 4.88 5.53 1.51.59 3.2.86 4.8 1.13l-2.51.57c-.89.14-1.77.29-2.65.47-.63 1.72-1.17 3.48-1.73 5.22-2.75 1.25-5.49 2.62-8.33 3.67l-1.63-.38.74-.34c2.48-1.25 4.96-2.13 5.81-5.06.97-2.81 1.16-7.41-1.24-9.57-2.47-.9-2.42 2.52-3.04 4.12.13 3.07.69 5.46-.8 8.39-.48-4.6-1.03-8.54.98-12.9-1.72.87-3.39 1.84-5.11 2.72l-1.24-.23c2.87-2.15 5.82-3.59 7.86-6.36l.05 1.39.14 2.11c3.24-.84 3.4-3.54 4.53-6.18Z"/><path id="R" d="M332.27 243.73c2.12.94 4.13 2.07 6.14 3.23-3.12 3.06-5.99 6.39-8.83 9.71-4.08.06-8.17-.08-12.25.03-1.6-.27-3.29-.54-4.8-1.13-1.76-1.72-3.23-3.72-4.88-5.53.93-1.85 1.86-3.7 2.81-5.54 7.38 1.29 14.51.66 21.81-.77Z"/><path id="S" d="M397.12 243.64c1.11 6.4 1.58 12.85 2.15 19.32-2.98 1.95-6.03 3.75-9.22 5.33-.93-6.41-1.69-12.85-2.47-19.27 3.12-1.91 6.28-3.74 9.54-5.38Z"/><path id="T" d="M273.86 246.55c2.82 1.83 4.11 4.96 5.88 7.72 2.29 3.97 5.12 7.78 6.34 12.14-3.22-2.7-4.71-6.12-6.89-9.6-2.04-3.45-4.3-6.32-5.33-10.26Z"/><path id="U" d="M183.97 250c5.05 1.48 7.95 6.4 10.17 10.81 2.3 4.9 4.76 9.66 7.59 14.29-8.97 2.15-18.41-.39-24.95-6.88-3.41-3.5-5.13-9.48-2.36-13.82 1.99-2.84 5.93-5.64 9.55-4.4Z"/><path id="V" d="M271.46 248.39c.52.52 1.04 1.04 1.55 1.58.22 3.95.22 7.84.99 11.73l1.52.17c1.99.25 4 .35 5.97.7.44 1.73.59 3.43.79 5.2-2.26-.64-4.45-1.41-6.58-2.4-.87-.82-1.71-1.67-2.54-2.53-.52-.55-1.04-1.1-1.54-1.67-.93-4.25-.75-8.5-.16-12.78Z"/><path id="W" d="M273.01 249.97c2.54 2.77 4.3 6.44 6.23 9.67-1.24.74-2.48 1.49-3.72 2.23l-1.52-.17c-.77-3.89-.77-7.78-.99-11.73Z"/><path id="X" d="M302.93 250.89c-2.01 4.36-1.46 8.3-.98 12.9 1.49-2.93.93-5.32.8-8.39.62-1.6.57-5.02 3.04-4.12 2.4 2.16 2.21 6.76 1.24 9.57-.85 2.93-3.33 3.81-5.81 5.06-1.23-1.42-2.89-2.88-3.61-4.64-.64-2.39 0-5.23.21-7.66 1.72-.88 3.39-1.85 5.11-2.72Z"/><path id="Y" d="M289.17 253.27c2.07.32 4.16.97 6.17 1.55-.62 1.83-1.18 3.67-1.74 5.52-1.78-.59-3.6-1.15-5.09-2.32.04-1.6.3-3.2.66-4.75Z"/><path id="Z" d="m295.34 254.82.92.28c.04 2.01-.01 4.01-.05 6.02-.87-.25-1.74-.51-2.61-.78.56-1.85 1.12-3.69 1.74-5.52Z"/><path id="aa" d="M312.17 257.74c.88-.18 1.76-.33 2.65-.47 1.41.27 2.82.54 4.23.8.07 2.31.13 4.62.2 6.94-1.74-.26-3.48-.61-5.2-.94-.16-1.72-.33-3.43-.52-5.15-.18 1.65-.34 3.31-.5 4.97-.86-.31-1.72-.62-2.59-.93.56-1.74 1.1-3.5 1.73-5.22Z"/><path id="ab" d="M319.05 258.07c2.75.31 5.56.41 8.33.56-2.29 2.5-4.32 6.43-8.13 6.38-.07-2.32-.13-4.63-.2-6.94Z"/><path id="ac" d="M288.03 261.04c2.89.27 7.13.58 9.34 2.62 1.1 4.12.11 9.24.31 13.57-1.11-.85-2.3-1.67-3.27-2.67-1.04-1.99-1.76-4.1-2.99-6-1.52-2.45-3.19-4.5-3.39-7.52Z"/><path id="ad" d="M266.3 263.11c2.28-.12 4.57-.19 6.86-.27.83.86 1.67 1.71 2.54 2.53-1.97-.42-3.95-.71-5.94-.97 2.66 1.65 5.41 3.15 8.13 4.7-.22 1.26-.45 2.51-.71 3.76-1.36.19-2.72.37-4.07.6l-.41.56c-3.31 3.83-2.72 7.96-3.04 12.67-.9.72-1.79 1.44-2.68 2.17-4.45-.02-9.96.22-14.01-1.86-2.9-1.71-2.88-6.04-2.9-8.98.12-3.55.38-8.15 3.58-10.39 3.91-2.71 9.34-2.84 13.93-2.88-.43-.54-.86-1.09-1.28-1.64Z"/><path id="ae" d="M327.03 263.6c4.47-.4 8.59 2.31 11.4 5.59-7.45 2.81-15.22 4.2-22.83 6.43-.7-.54-1.4-1.08-2.11-1.61 3.11-2.38 6.12-4.84 8.96-7.54 1.27-1.09 2.82-2.78 4.58-2.87Z"/><path id="af" d="M309.95 265.25c3.22.11 6.46.97 9.62 1.59-2.47 2.06-5.07 4.27-7.89 5.84-2.39 1.35-5.44 1.66-8.12 2.05-.06-2.25-.18-4.58.04-6.82 1.73-1.28 4.21-2.37 6.35-2.66Z"/><path id="ag" d="m397.91 265.07 2.14-.2c.15 2.53-.3 4.96-.95 7.4-.82-2.42-1.71-4.6-1.19-7.2Z"/><path id="ah" d="M288.56 266.33c.16 2.76-.16 3.35-2.25 5.2-1.04-1.35-2.09-2.69-3.13-4.04 1.79-.38 3.58-.8 5.38-1.16Z"/><path id="ai" d="m299.36 266.75 1.12-.5 1.63.38c.13 2.71.09 5.45.06 8.17-1.02.05-2.04.11-3.06.16.04-2.72.05-5.49.25-8.21Z"/><path id="aj" d="M396.62 267.7c.85.94 1.08 3.57.33 4.61-1.31.36-1.82-5.23-.33-4.61Z"/><path id="ak" d="M395.06 267.96c0 2.13 0 4.25-.03 6.38-.65-1.41-1.29-2.82-1.92-4.23-.09 1.42-.17 2.84-.25 4.26l-2.28 1.92c-.44-.28-.88-.57-1.32-.86-.5 1.01-1.01 2.02-1.52 3.03-.39-2.06-.75-4.13-1.1-6.21.83.39 1.65.78 2.48 1.17l.12-2.16c1.96-1.05 3.89-2.18 5.82-3.3Z"/><path id="al" d="M338.43 269.19c.71.85 1.32 1.76 1.91 2.69-6.92 3.15-14.11 4.94-21.42 6.89-1.06-1.11-2.15-2.17-3.32-3.15 7.61-2.23 15.38-3.62 22.83-6.43Z"/><path id="am" d="M359.74 268.88c1.3 1.35 2.53 2.76 3.75 4.17-2.21.35-4.42.63-6.65.84.91-1.7 1.85-3.39 2.9-5.01Z"/><path id="an" d="M279.96 269.88c1.75-1.25 2.87 1.64.85 2.05-1.12-.33-1.4-1.01-.85-2.05Z"/><path id="ao" d="M283.08 270.67c1.02-.73 3.11 2.25 2.33 3.08-1.47.64-3.23-1.82-2.33-3.08Z"/><path id="ap" d="M277.18 272.86c-.45 1.97-1.03 3.9-1.62 5.83-.83-1.74-1.64-3.49-2.45-5.23 1.35-.23 2.71-.41 4.07-.6Z"/><path id="aq" d="M291.61 271.03c-.03 1.28-.09 2.54-.19 3.81-1.65.13-2.81-.43-4.2-1.24 1.45-.88 2.91-1.74 4.39-2.57Z"/><path id="ar" d="M340.34 271.88c.53.96.94 1.94 1.24 2.94-3 4.34-7.16 7.66-11.96 9.83-1.35.57-2.77 1.09-4.27.91-2.17-1.77-3.92-4.12-5.85-6.16l-.58-.63c7.31-1.95 14.5-3.74 21.42-6.89Z"/><path id="as" d="M278.95 272.38c.95.46 1.44 1.33 1.47 2.63.04 3.32.46 6.32-2.33 8.71-.5-3.9-.27-7.57.86-11.34Z"/><path id="at" d="M400.35 273.07c.03 1.56.09 3.2-.15 4.75-2.15 2.56-5.44 4.35-8.22 6.18-3.69 2.26-7.39 5.03-11.45 6.56-1.27.53-2.35.16-3.59-.19.87-.52 2.15-2.58.5-2.91-.93.37-1.31 1.27-1.12 2.69-.8-.3-1.59-.6-2.38-.9.14-1.31.29-2.62.44-3.93 3.26.94 4.14 1.3 5.57 4.44.02-1.52.06-3.04.1-4.56 6.55-4.28 13.18-8.86 20.3-12.13Z"/><path id="au" d="M272.7 274.02c-1.4 3.87-1.59 7.66-1.2 11.71 1.44.05 2.88.11 4.33.17-2.81 2.54-5.14 2.88-8.85 2.96.89-.73 1.78-1.45 2.68-2.17.32-4.71-.27-8.84 3.04-12.67Z"/><path id="av" d="M355.3 274.56c2.83 1.98 5.26 4.59 7.8 6.92-6.29 1.51-12.24 3.04-18.78 2.84 3.56-3.33 7.11-6.79 10.98-9.76Z"/><path id="aw" d="M368.95 275.38c-1.15 1.76-2.17 3.59-3.17 5.43-2.35-1.51-4.4-3.33-6.47-5.2 3.68-1.41 5.95-2.07 9.64-.23Z"/><path id="ax" d="m385.1 274.03 1.48.16c-.37 1.66-.52 3.52-1.28 5.06-1.25 1.19-2.94 2.06-4.43 2.93-.01-2.06.01-4.11.06-6.17.56.92 1.12 1.84 1.69 2.76.24-1.32.48-2.63.74-3.94.48 1.49.94 2.99 1.41 4.48l.33-5.28Z"/><path id="ay" d="M309.68 274.77c3.55 1.07 6.43 3.23 9.82 4.63 1.93 2.04 3.68 4.39 5.85 6.16 1.5.18 2.92-.34 4.27-.91 4.8-2.17 8.96-5.49 11.96-9.83.43 2.69 1.96 7.14-.9 8.89-4.19 3.38-9.15 5.98-13.86 8.56-.75-.63-1.5-1.28-2.25-1.92-.33 1.91-.71 3.81-1.09 5.71-1.06-4.53-2.06-8.86-4.81-12.73-2.38-3.76-5.87-5.58-8.99-8.56Zm11.77 9.22c-.42.93-.14 1.49.83 1.7 1.78-.44.6-2.82-.83-1.7Z"/><path id="az" d="M287.38 275.5c.05 2.7-.05 5.38-.38 8.07-2.75-1.95-4.32-7.66.38-8.07Z"/><path id="aA" d="M291.56 276.3c1.09-.92 2.59.43 1.83 1.63-1.09 1-2.59-.44-1.83-1.63Z"/><path id="aB" d="M304.07 276.3c3.14.11 6.35 1.94 8.99 3.51-3.2.42-6.42.9-9.65 1.09-1.77-.64-3.49-1.39-5.21-2.17 1.82-1.06 3.65-2.54 5.87-2.43Z"/><path id="aC" d="m368.95 275.38 1.54.65c.53 2.35.9 4.73 1.18 7.12-2-.7-3.98-1.44-5.89-2.34 1-1.84 2.02-3.67 3.17-5.43Z"/><path id="aD" d="m289.12 277.27.83-.01.4.73-.41.73h-.82l-.4-.72.4-.73Z"/><path id="aE" d="M296.18 278.22c.98 1.49 1.87 3.01 2.76 4.55-1.31.83-2.62 1.65-3.94 2.47-1.29-1.7-2.58-3.42-3.85-5.14 1.68-.62 3.34-1.28 5.03-1.88Z"/><path id="aF" d="M372.47 277.86c1.86-.21 3.76-.28 5.63-.37.38 2.16.83 4.27 1.43 6.38-2.02-.05-4.04-.11-6.07-.18-.37-1.93-.84-3.89-.99-5.83Z"/><path id="aG" d="M275.98 279.8c.19 1.16.38 2.32.56 3.48-1.27-.12-2.53-.23-3.8-.35.28-.86.57-1.71.86-2.56.79-.21 1.58-.4 2.38-.57Z"/><path id="aH" d="M290.46 280.38c-.11.76-.24 1.52-.38 2.27-1.05 2.56-3.21 5.39-2.71 8.22.53 4.05 3.25 7.85 5.03 11.43-1.26 2.32-3.18 3.63-5.38 4.96a41.114 41.114 0 0 0-5.47-3.13c1.19 1.38 2.45 2.69 3.79 3.94-2.17 4.08-4.57 7.94-6.39 12.2-2.85.86-5.55 1.99-7.99 3.72-3.63-2.13-7.26-4.2-11.16-5.8-.37-.79-.74-1.57-1.12-2.36 1.68-2.8 3.38-6.16 5.89-8.3 3.21-.5 6.66.33 9.86-.24 1.69-.58 3.58-1.93 4.19-3.67.23-1.96-.09-4.33-1.14-6.04-.95-.84-2.05-1.53-3.08-2.26 2.24-2.07 4.44-4.18 6.78-6.14 3.27-2.91 6.87-5.03 9.28-8.8Z"/><path id="aI" d="M313.06 279.81c5.24 4.02 8.74 10.15 7.59 16.9-1.33 5.46-6.18 9.31-11.52 10.54-4.44.98-9.5 1.05-12.87-2.5-3.1-3.45-5.31-8.04-6.59-12.48-.86-2.75.31-4.76 1.42-7.17 1.5.47 3.03 1.1 4.59 1.3 2.95-.58 5.55-3.58 7.73-5.5 3.23-.19 6.45-.67 9.65-1.09Z"/><path id="aJ" d="M365.04 282.45c2.8.57 5.47 2.26 7.98 3.55-2.58 4.02-6.41 4.67-10.57 6.16-.05-1.42-.09-2.83-.13-4.25-1.13 2.07-1.96 5.17-4.22 6.2-4.46 2.41-9.29 4.24-14.06 5.96l-.24-2.42c1.91-.46 3.79-1.06 5.65-1.73-1.37-.19-2.78-.46-4.16-.44-1.23.74-2.33 1.74-3.45 2.62-2.49 1.39-4.91 2.73-7.05 4.64-3.02 2.64-5.44 5.43-9.27 6.96-3.85 1.58-7.68 1.49-11.77 1.47.18-.96.34-1.93.49-2.89 4.47-3.17 6.88-7.65 10.37-11.65 3.49-3.6 7.2-2.57 11.61-3.38 1.58-1.59 2.07-4.31 3.23-6.24 2.37-.68 5.05-.47 7.5-.61 4.15-.08 8.13-.93 12.16-1.84.6.65 1.2 1.31 1.8 1.97 1.03-1.26 2.3-4.1 4.13-4.08Z"/><path id="aK" d="M321.45 283.99c1.43-1.12 2.61 1.26.83 1.7-.97-.21-1.25-.77-.83-1.7Z"/><path id="aL" d="M377.44 287.46c1.65.33.37 2.39-.5 2.91l-.62-.22c-.19-1.42.19-2.32 1.12-2.69Z"/><path id="aM" d="M334.27 289.97c1.8-.45 2.39 1.55.75 2.3-1.79.41-2.37-1.52-.75-2.3Z"/><path id="aN" d="M374.01 292.93c5.93 3.01 11.96 6.22 17.29 10.21-1.14.45-2.26.92-3.38 1.41-1.01.45-2 .96-2.97 1.52-2.85 1.43-5.91 2.59-8.86 3.85-5.41 1.68-10.32 4.34-15.35 6.88-1.6.3-3.22.46-4.84.56-3.33-2.04-6.77-3.83-10.56-4.85 3.17 3.02 7.03 4.13 11.13 5.32.74.61 1.45 1.28 2.09 2-.8.7-1.61 1.39-2.43 2.06-7.81-3.25-15.09-7.44-22.21-11.96 1.49-5.09 5.58-6.12 9.85-8.2 8.19-3.5 16.42-7.27 24.88-10.05 1.89-.77 3.67.55 5.36 1.25Zm2.69 8.85c-1.68-1.33-3.67-3.34-5.87-3.64-2.28-.08-4.7.99-6.82 1.77-3.28 1.36-6.7 2.62-9.76 4.44-1.04.59-1.56 1.37-2 2.47 1.8 2.54 4.38 3.83 7.5 2.99 6.03-1.61 11.79-4.54 16.95-8.03Zm-34.43 8.71c-.85 1.51 1.03 2.71 2.17 1.52.82-1.49-1.04-2.66-2.17-1.52Z"/><path id="aO" d="M345.29 295.48c1.38-.02 2.79.25 4.16.44-1.86.67-3.74 1.27-5.65 1.73l-1.96.45c1.12-.88 2.22-1.88 3.45-2.62Z"/><path id="aP" d="M276.78 297.8c-.02 1.82-.04 3.65-.01 5.47-3.3 1.78-6.47 2.91-10.14 3.7-.2-2.76-1.22-5.02 1.13-7.16 2.63-2.69 5.6-2.24 9.02-2.01Z"/><path id="aQ" d="m341.84 298.1 1.96-.45.24 2.42c-3.77 1.81-9.91 3.29-10.99 7.89-2.9 5.16-7.95 8.16-13.2 10.49-2.02-2.07-4.34-3.6-6.96-4.81 2.04 2.42 4.41 4.51 6.48 6.89-3.76 4.41-6.46 9.44-8.82 14.7-1.12.07-2.24.15-3.35.27-2.46-2.92-4.9-5.53-8.73-6.55-.91-.31-1.84-.58-2.77-.83-.44-1.04-.95-2.09-1.3-3.16.42-2.74 2.44-5.37 3.82-7.73.89.01 1.79 0 2.68 0 3.63-.2 7 .23 10.01-2.15 1.23-1.1 2.08-2.46 2.84-3.91 4.09.02 7.92.11 11.77-1.47 3.83-1.53 6.25-4.32 9.27-6.96 2.14-1.91 4.56-3.25 7.05-4.64Z"/><path id="aR" d="M370.83 298.14c2.2.3 4.19 2.31 5.87 3.64-5.16 3.49-10.92 6.42-16.95 8.03-3.12.84-5.7-.45-7.5-2.99.44-1.1.96-1.88 2-2.47 3.06-1.82 6.48-3.08 9.76-4.44 2.12-.78 4.54-1.85 6.82-1.77Zm-11.71 6.63c.33.67.67 1.34 1 2.01 1.99-.86 3.97-1.74 5.93-2.66-.61-.11-1.21-.22-1.81-.32-1.73.2-3.42.6-5.12.97Z"/><path id="aS" d="M292.4 302.3c.7 1.64 1.02 3.31 1.37 5.04 1.53.49 3.05 1.01 4.58 1.53-1.86 1.77-3.72 3.54-5.6 5.29-.59-1.4-1.17-2.8-1.72-4.22-1.34-.88-2.68-1.78-4.01-2.68 2.2-1.33 4.12-2.64 5.38-4.96Z"/><path id="aT" d="M264.43 302.87c-1.43 4.36-5.15 8.01-7.71 11.86-1.33-.54-2.64-1.09-3.96-1.64 3.31-4.24 6.54-8.12 11.67-10.22Z"/><path id="aU" d="M364.24 303.8c.6.1 1.2.21 1.81.32-1.96.92-3.94 1.8-5.93 2.66-.33-.67-.67-1.34-1-2.01 1.7-.37 3.39-.77 5.12-.97Z"/><path id="aV" d="M391.3 303.14c.47 1.49.76 3.07 1.08 4.6-8.4 3.66-16.91 6.57-25.19 10.53-3.59 1.71-7.04 3.29-11.06 3.62.82-.67 1.63-1.36 2.43-2.06-.64-.72-1.35-1.39-2.09-2l-.57-.47c1.62-.1 3.24-.26 4.84-.56 5.68-.95 10.71-3.57 15.35-6.88 2.95-1.26 6.01-2.42 8.86-3.85 1.23.75 3.64 1.36 4.32-.37-.14-.55-.58-.94-1.35-1.15 1.12-.49 2.24-.96 3.38-1.41Z"/><path id="aW" d="M387.92 304.55c.77.21 1.21.6 1.35 1.15-.68 1.73-3.09 1.12-4.32.37.97-.56 1.96-1.07 2.97-1.52Z"/><path id="aX" d="M285.34 308.07c1.04.95 2.08 1.92 3.11 2.88-2.78 3.49-4.61 8.52-9.5 9.32 1.82-4.26 4.22-8.12 6.39-12.2Z"/><path id="aY" d="M333.05 307.96c-.52 1.85-.73 3.59-1.97 5.14-2.49 3.25-5.09 6.43-7.81 9.49-1.13-1.38-2.24-2.8-3.42-4.14 5.25-2.33 10.3-5.33 13.2-10.49Z"/><path id="aZ" d="M393.79 308.36c3.24 1.06 6.37.97 9.7 1.27 3.96 1.71 7.23 5.68 9.81 9.05 2.67 3.26.48 6.88 2.68 10.25 2.12 3.62 4.4 7.11 6.13 10.94 2.61 5.38 4.3 11.06 6.67 16.53-7.34 8-12.83 17.94-21.5 23.88-4.02 2.94-8.35 5.36-13.16 6.73-1.37-2.62-2.84-5.11-4.88-7.28.92 2.64 2.01 5.21 2.79 7.9l-.88.26c.45-1.38-1.54-3.01-1.86-1.03l1.09 1.26c-1.13.32-2.27.62-3.41.89.81-.62 1.85-2.8.05-2.73-.93.55-1.18 1.47-.75 2.76-1.64.02-3.28-.06-4.91-.19.79.05 1.58.1 2.38.14.27-1.44.53-2.89.79-4.33 1.61-.55 3.22-1.11 4.81-1.71-1.4-.23-3.08-.72-4.47-.26-2.09 1.11-3.06 4.16-4.16 6.12-1.01.25-2.02.5-3.04.75 1.27-2.91 3.15-5.48 4.5-8.33.5-2.44-.4-5.3-.71-7.74-1.85-9.97-3.87-21.11-9.06-29.96-2.19-3.92-5.77-3.45-9.7-3.84 8-3.53 16.31-6.77 23.91-11.07 1.87-1.19 3.98-2.12 4.6-4.44 1.54-5.01 1.96-10.64 2.58-15.82Zm18.63 12.32c-1.9-4.63-5.36-7.72-9.78-9.88 2.28 4.46 5.31 7.58 9.78 9.88Zm-11.94-2.18c2.17 1.33 4.45 2.4 6.77 3.43-2.14-2.55-4.44-4.94-7.1-6.96.08 1.19.19 2.36.33 3.53Zm4.86 23.58c-2.18 1.74-4.72 2.64-4.64 5.91-.07 6.71 2.85 14.22 9.21 17.31.85-1.43 1.68-2.85 2.48-4.3-1.27.73-2.53 1.48-3.8 2.23-.39-.6-.78-1.21-1.15-1.82.52-2.59 1.16-5.62.51-8.22-.52-1.91-1.8-3.24-3.02-4.75.17 1.94.41 3.86.64 5.79l.12 1.02c-1.09-2.68-2.78-5.26-3.48-8.06.8-1.74 3.09-2.65 4.61-3.69 1.99 4.06 4.29 7.48 3.91 12.21.83-.13 1.67-.27 2.5-.4-1.13-4.87-3.06-9.39-6.4-13.16-2.04-2.39-5.51-2.61-8.42-2.96 2 1.84 4.4 2.23 6.93 2.89Zm3.42 27.99c2.56-2.09 4.81-4.23 5.49-7.61.09-2-.49-4.05-.84-6.01.36 5.55-2.6 8.89-4.65 13.62Zm10.38-10.01c-.56 1.03-.28 1.7.85 2.03 2.09-.41.91-3.21-.85-2.03Z"/><path id="ba" d="M299.71 310.44c3.7-.3 7.4-.54 11.1-.82-.56 2.05-1.17 4.09-1.71 6.14l1.81-.68c-3.01 2.38-6.38 1.95-10.01 2.15-.57-2.24-1.1-4.47-1.19-6.79Z"/><path id="bb" d="M342.27 310.49c1.13-1.14 2.99.03 2.17 1.52-1.14 1.19-3.02-.01-2.17-1.52Z"/><path id="bc" d="M376.09 309.92c-4.64 3.31-9.67 5.93-15.35 6.88 5.03-2.54 9.94-5.2 15.35-6.88Z"/><path id="bd" d="m390.16 310.19 1.88-.55c-.04 5.22-.59 10.29-3.01 15-.11-4.74.31-9.78 1.13-14.45Z"/><path id="be" d="M389.24 310.74c-.52 5.01-.72 10.32-2.1 15.18-1.28 1.19-3.06 1.91-4.61 2.69-6.75 3.1-13.14 6.52-20.15 8.99-.04-5.24.15-10.49.21-15.73 8.73-4.09 17.69-7.59 26.65-11.13Z"/><path id="bf" d="M402.64 310.8c4.42 2.16 7.88 5.25 9.78 9.88-4.47-2.3-7.5-5.42-9.78-9.88Z"/><path id="bg" d="M345.34 312.51c3.79 1.02 7.23 2.81 10.56 4.85l.57.47c-4.1-1.19-7.96-2.3-11.13-5.32Z"/><path id="bh" d="M290.06 312.32c.34 1.19.59 2.39.76 3.61-.67 2.02-1.96 3.89-3 5.74-1.08-.62-2.14-1.28-3.18-1.97.58-3.26 3.07-5.3 5.42-7.38Z"/><path id="bi" d="M297.99 312.82c-1.63 3.99-3.9 7.39-6.03 11.11-.72-.67-1.45-1.34-2.17-2.01 2.17-3.63 4.48-6.9 8.2-9.1Z"/><path id="bj" d="M334.56 312.46c7.38 3.05 13.87 8.74 22.43 10.38.42.79.84 1.58 1.26 2.36-.19 1.15-.38 2.29-.55 3.44-.48 2.71-.39 5.41-.29 8.14l-.7 1.69c-6.66-2.65-13.2-5.98-19.22-9.88-1.91-.95-1.47-3.43-2.01-5.23 2.97.65 6.03 1.89 9.08 2.01 2.11-.33 2.35-1.44 2.85-3.3-2.74-3.78-9.17-4.42-12.65-7.26l-.2-2.35Z"/><path id="bk" d="m239.62 314.28 1.75.33c-1.68 1.34-3.32 2.73-4.93 4.14 3.47.4 6.79.51 10.15 1.54.94.43 1.88.89 2.8 1.37l.24 2.25c-1.31-.1-2.62-.19-3.92-.28 1.21.79 2.42 1.58 3.65 2.34-4.91-.5-9.82-.07-14.76-.41 3.73-.66 7.49-.87 11.24-1.37-3.28-1.18-6.18-2.4-9.71-1.34-2.29.41-1.79 3.08-2.39 4.81 5.6.06 10.98.18 16.46-1.21l1.8 1.05c.71-.41 1.42-.81 2.13-1.22 2.79 2.05 5.45 4.22 8.02 6.52-.38.87-.77 1.73-1.16 2.59-6.38-.18-12.85-.19-19.21.48 6.33 1.3 12.4-.73 18.82.35 1.94.21 3.88.42 5.83.54 1.17 1.21 2.57 2.44 3.35 3.94.77 1.87.75 4.14.93 6.13-5.06-.54-10.07-.18-15.02.96 5.34 1.11 9.89-.21 15.53-.27.55.77 1.1 1.53 1.66 2.29-4.51-.26-8.74-.77-12.92 1.29l-1.42.59c-7.52-5.41-14.15-11.75-20.87-18.08-2.27 4.22-4.27 8.63-5.84 13.16-1.58 4.65-1.99 9.23-3.11 13.96l-1.53.18c.86-4.39 1.43-8.76 2.61-13.09 1.39-5.42 3.73-10.48 5.86-15.66-1.51-2.28-4.35-5.19-3.84-8.12.56-4.12 3.99-8.19 7.8-9.76Zm-3.87 15.43c5.77 1.59 11.91-.05 17.99-.16l-.06-.91c-5.99-.01-11.97.56-17.93 1.07Zm2.93 3.12c6.04 1.16 12.57.51 18.59-.45-6.16-.11-12.46-.24-18.59.45Zm24.9 5.2c-6.19-.75-12.59.16-18.81.45 5.91.56 12.95.47 18.81-.45Zm-15.01 3.76c3.94.86 7.48.01 11.44-.1 2.5-.1 5-.18 7.49-.46-6.02-1.43-12.95-.91-18.93.56Zm3.13 2.93c5.8 1.34 12.33.17 18.19-.69-5.92-.96-12.22.4-18.19.69Z"/><path id="bl" d="m247.1 314.06-.51 6.23c-3.36-1.03-6.68-1.14-10.15-1.54 1.61-1.41 3.25-2.8 4.93-4.14 1.91-.18 3.81-.41 5.73-.55Z"/><path id="bm" d="M247.1 314.06c1.67.09 3.31.31 4.95.68-1.09-.02-2.19-.01-3.29.04-.29 1.67-.52 3.35-.75 5.03 2.22-1.42 4.42-2.87 6.6-4.35 2.01 1.48 3.78 3.03 4.56 5.49.83 2.41.26 4.63-.13 7.05-3.22-2.2-6.26-4.45-9.65-6.34-.92-.48-1.86-.94-2.8-1.37l.51-6.23Z"/><path id="bn" d="M332 314.65c4.14 2.12 8.38 4.05 12.49 6.23-.49 1.01-.84 2.05-1.06 3.1-.81-.19-1.62-.39-2.42-.61.21-.67.43-1.34.64-2.01-4.43-1.12-8.13-2.63-11.8-5.43.7-.46 1.42-.88 2.15-1.28Z"/><path id="bo" d="M248.76 314.78c1.1-.05 2.2-.06 3.29-.04.86.21 1.71.45 2.56.72-2.18 1.48-4.38 2.93-6.6 4.35.23-1.68.46-3.36.75-5.03Z"/><path id="bp" d="M400.15 314.97c2.66 2.02 4.96 4.41 7.1 6.96-2.32-1.03-4.6-2.1-6.77-3.43-.14-1.17-.25-2.34-.33-3.53Z"/><path id="bq" d="M329.85 315.93c3.67 2.8 7.37 4.31 11.8 5.43-.21.67-.43 1.34-.64 2.01-3.5-1.16-7.3-2.15-10.46-4.08-1.57-1.03-.9-1.82-.7-3.36Z"/><path id="br" d="M259.8 318.19c3.9 1.6 7.53 3.67 11.16 5.8-2.25 3.06-3.49 6.52-4.54 10.14-1.86-1.67-3.7-3.35-5.53-5.05.54-3.87.55-7.28-1.09-10.89Z"/><path id="bs" d="M328.19 320.65c1.26.22 2.5.66 3.73 1.03-2.02 2.12-4 4.28-5.99 6.43-.62-1.34-1.25-2.67-1.87-4 1.31-1.19 2.62-2.53 4.13-3.46Z"/><path id="bt" d="M319.37 320.53c.79.99 1.82 2.19 2.03 3.47-.27 1.64-.87 3.25-1.35 4.84 1.06-.98 2.12-1.96 3.19-2.92.34 2.57 1.24 4.68-.18 7.11-2.8 5.04-4.83 10.77-8.51 15.19-.39-3.84 1.65-6.38 2.74-9.87.88-2.52 1.18-5.11 1.41-7.75-1.72 3.32-2.5 6.91-3.81 10.37-.54 1.55-2.02 2.37-3.23 3.37-.73 3.58-1.73 6.29-4.12 9.12-3.71-4.68-7.77-9.04-11.67-13.55.58-4.08 1.33-7.79-.17-11.79.93.25 1.86.52 2.77.83 2.5 3.12 5.12 5.75 8.28 8.21l.45-1.66c1.11-.12 2.23-.2 3.35-.27 2.36-5.26 5.06-10.29 8.82-14.7Z"/><path id="bu" d="M344.49 320.88c2.31 1 1.36 3.77-1.06 3.1.22-1.05.57-2.09 1.06-3.1Z"/><path id="bv" d="M291.12 325.11c-2.64 1.17-5.14 2.59-7.62 4.07-4.21-2.18-8.5-2.08-13.1-1.89 1.91-1.78 3.74-3.73 6.28-4.6 5.02-1.46 10.1-.39 14.44 2.42Z"/><path id="bw" d="M236.13 322.85c3.53-1.06 6.43.16 9.71 1.34-3.75.5-7.51.71-11.24 1.37 4.94.34 9.85-.09 14.76.41l.84.48c-5.48 1.39-10.86 1.27-16.46 1.21.6-1.73.1-4.4 2.39-4.81Z"/><path id="bx" d="M356.99 322.84c1.49-.09 2.98-.2 4.46-.33-.08 5.53.04 10.96-.8 16.46-1.32-.14-2.63-.28-3.94-.5l.7-1.69c.56-1.29 1.23-2.61 1.61-3.96.3-1.39-.76-2.94-1.32-4.18.17-1.15.36-2.29.55-3.44-.42-.78-.84-1.57-1.26-2.36Z"/><path id="by" d="M333.35 323.52c.51 1.75.93 3.53 1.34 5.3-4.21 3.23-7.05 7.27-9.51 11.92 3.77 1.35 8.76 2.54 11.53 5.56 2.05 2.31 3.9 5.63 2.58 8.75-.65 2.02-3.38 2.6-5.17 3.21-7.67 2.01-15.43 3.58-23.27 4.77 2.38-3.6 3.64-7.39 4.9-11.47 1.66-2.99 3.67-5.69 4.91-8.92 2.97-7.19 6.99-13.77 12.69-19.12Zm-.13 21.77c-1.33 1.26-.04 3.26 1.62 2.31 1.34-1.26.04-3.27-1.62-2.31Zm-4.01 2.97c-1.57.6-.99 2.73.67 2.47 1.6-.55 1-2.79-.67-2.47Z"/><path id="bz" d="M291.12 325.11c4.33 3.38 4.61 7.77 3.2 12.78-3.71-2.78-7.11-5.94-10.82-8.71 2.48-1.48 4.98-2.9 7.62-4.07Z"/><path id="bA" d="M235.75 329.71c5.96-.51 11.94-1.08 17.93-1.07l.06.91c-6.08.11-12.22 1.75-17.99.16Z"/><path id="bB" d="M298.47 328.95c3.83 1.02 6.27 3.63 8.73 6.55l-.45 1.66c-3.16-2.46-5.78-5.09-8.28-8.21Z"/><path id="bC" d="M357.7 328.64c.56 1.24 1.62 2.79 1.32 4.18-.38 1.35-1.05 2.67-1.61 3.96-.1-2.73-.19-5.43.29-8.14Z"/><path id="bD" d="M271.49 331.51c1.16-.45 5.9-1.69 5.9.37-1.47 1.21-4.3.25-5.9-.37Z"/><path id="bE" d="M238.68 332.83c6.13-.69 12.43-.56 18.59-.45-6.02.96-12.55 1.61-18.59.45Z"/><path id="bF" d="M268.46 334.22c5.56-.75 12.1-1.79 17.07 1.4-5.3.05-12.26 1.31-17.07-1.4Z"/><path id="bG" d="M241.78 335.87c6.36-.67 12.83-.66 19.21-.48l-.39.83c-6.42-1.08-12.49.95-18.82-.35Z"/><path id="bH" d="M284.98 336.94c1.11.26 4.19.35 3.3 2.18-5.96.53-12.56.78-18.28-1.24 4.9-1.4 9.94-1.46 14.98-.94Z"/><path id="bI" d="M244.77 338.48c6.22-.29 12.62-1.2 18.81-.45-5.86.92-12.9 1.01-18.81.45Z"/><path id="bJ" d="M398.41 339.19c2.91.35 6.38.57 8.42 2.96 3.34 3.77 5.27 8.29 6.4 13.16-.83.13-1.67.27-2.5.4.38-4.73-1.92-8.15-3.91-12.21-1.52 1.04-3.81 1.95-4.61 3.69.7 2.8 2.39 5.38 3.48 8.06.38 2.12.81 4.2 1.75 6.16.37.61.76 1.22 1.15 1.82 1.27-.75 2.53-1.5 3.8-2.23-.8 1.45-1.63 2.87-2.48 4.3-6.36-3.09-9.28-10.6-9.21-17.31-.08-3.27 2.46-4.17 4.64-5.91-2.53-.66-4.93-1.05-6.93-2.89Z"/><path id="bK" d="M267.5 341.23c-2.49.28-4.99.36-7.49.46-3.96.11-7.5.96-11.44.1 5.98-1.47 12.91-1.99 18.93-.56Z"/><path id="bL" d="M272.72 340.77c6.2-.3 12.71-.61 18.81.64-6.15.35-12.78.86-18.81-.64Z"/><path id="bM" d="M269.89 344.03c-5.86.86-12.39 2.03-18.19.69 5.97-.29 12.27-1.65 18.19-.69Z"/><path id="bN" d="M276.3 344.03c5.88-.61 12.97-1.55 18.53.86-5.96.71-12.81 1.3-18.53-.86Z"/><path id="bO" d="M333.22 345.29c1.66-.96 2.96 1.05 1.62 2.31-1.66.95-2.95-1.05-1.62-2.31Z"/><path id="bP" d="M298.39 348.3c-4.61.28-9.33.32-13.94.15-1.69-.04-3.19-.64-4.75-1.25 6.15-1.12 12.75-.94 18.69 1.1Z"/><path id="bQ" d="M255.69 347.79c4.95-1.14 9.96-1.5 15.02-.96l.51.69c-5.64.06-10.19 1.38-15.53.27Z"/><path id="bR" d="M453.17 347.34c5.66-.44 11.39 3.96 11.72 9.78.39 6.04-4.64 10.99-10.08 12.68-7.58 2.6-14.39-1.19-22.13 1.07-.65-3.94-.22-9.59-3.55-12.32 7.39-5.62 14.47-10.46 24.04-11.21Z"/><path id="bS" d="M329.21 348.26c1.67-.32 2.27 1.92.67 2.47-1.66.26-2.24-1.87-.67-2.47Z"/><path id="bT" d="M312.7 348.85c.03 3.88-.43 7.02-2.37 10.41-.34-1.37-.76-2.78-.9-4.19.68-2.2 2.09-4.24 3.27-6.22Z"/><path id="bU" d="M404.93 348.44c1.22 1.51 2.5 2.84 3.02 4.75.65 2.6.01 5.63-.51 8.22-.94-1.96-1.37-4.04-1.75-6.16l-.12-1.02c-.23-1.93-.47-3.85-.64-5.79Z"/><path id="bV" d="m272.88 349.81.53.69c-4.48.34-8.97.32-13.45.6 4.18-2.06 8.41-1.55 12.92-1.29Z"/><path id="bW" d="M282.64 350.42c6.25-.91 12.36-1.22 18.48.7-6 1.4-12.62 1.28-18.48-.7Z"/><path id="bX" d="M249.68 350.92c-.56 1-1.12 1.99-1.67 2.98 2.05 2.16 3.99 4.37 5.84 6.71-1.51.31-3.01.62-4.52.94-.72-2-1.45-4-2.28-5.95-.6-.58-1.2-1.14-1.83-1.68 1.51-.96 2.99-1.99 4.46-3Z"/><path id="bY" d="M274.02 352.87c-1.54.6-3.21 1.61-4.89 1.69-2.1-.17-4.21-1.05-6.2-1.72 4.28-1.44 6.83-1.7 11.09.03Z"/><path id="bZ" d="M303.64 354.6c-5.68.77-11.74.72-17.31-.73 5.25-1.2 12.52-2.34 17.31.73Z"/><path id="ca" d="M245.22 353.92c.63.54 1.23 1.1 1.83 1.68-2.28.79-4.52 1.65-6.72 2.65 1.44.14 2.91.18 4.34.43 1.02.8 1.83 1.91 2.67 2.89-3.44-.89-6.47-1.25-10.02-1.23 2.04-3.22 4.57-4.75 7.9-6.42Z"/><path id="cb" d="M359.97 354.69c.5 2 1.09 4.07 1.18 6.14-.97 3.14-3.34 3.62-6.12 4.51 1.33-1.44 3.11-2.75 4.04-4.49.23-1.33.41-2.66.53-4l-1 .22c-1.18.21-2.37.41-3.55.6.31 1.6.63 3.19.98 4.78-1.1-.35-2.19-.7-3.28-1.06-.74-3.84 3.43-7.77 7.22-6.7Z"/><path id="cc" d="M364.31 354.14c1.79-1.21 2.94 1.6.84 2-1.13-.32-1.41-.99-.84-2Z"/><path id="cd" d="M289.33 356.34c5.65-.88 11.21-1.21 16.69.78-5.75 1.29-11.28 2.22-16.69-.78Z"/><path id="ce" d="M358.6 357.07c-.89 1.78-1.72 3.59-2.57 5.38-.35-1.59-.67-3.18-.98-4.78 1.18-.19 2.37-.39 3.55-.6Z"/><path id="cf" d="M413.41 356.45c.35 1.96.93 4.01.84 6.01-.68 3.38-2.93 5.52-5.49 7.61 2.05-4.73 5.01-8.07 4.65-13.62Z"/><path id="cg" d="M366.8 358.13c.31.85.59 1.71.82 2.58-1.21.33-2.43.5-3.67.68.91-1.13 1.81-2.25 2.85-3.26Z"/><path id="ch" d="M307.68 360.71c-4.99.75-9.82 1.04-14.58-.95 4.75-1.24 10.41-2.44 14.58.95Z"/><path id="ci" d="M429.13 358.55c1.45 7.9 2.01 15.91 3.35 23.81.5-2.24.92-4.5 1.38-6.75 2.21 5.52 1.49 10.99.2 16.62-.74-1.16-1.47-2.32-2.22-3.47-1.08 6.78-1.22 13.3-3.15 19.92-2.29 7.82-5.16 15.67-9.33 22.7-3.11 5.11-6.37 10.2-10.13 14.87-2.74 3.43-5.79 5.91-7.88 9.75-1.41 2.74-3.36 5.04-5.25 7.46 2.82-1.67 5.47-3.51 8.44-4.91-1.42 2.27-3.1 4.13-5.27 5.7-4.26 3.03-8.13 5.97-13.58 6.16 2.99-3.27 6.3-6.21 9.18-9.58-4.58 2.69-8.57 6.19-13.14 8.89-8.44 5.1-17.98 8.79-27.42 11.57-7.42 2.19-15.25 2.45-22.79 4.52 1.96.35 3.94.64 5.91.97-6.6 3.81-16.07 2.64-23.18.95-2.27-.36-3.43-1.78-4.87-3.4 5.87.2 11.09 1.96 16.97 1.41-2.35-.9-4.79-1.32-7.29-1.64-9.17-1.2-17.78-4.31-26.26-7.86-4.47-1.73-8.67-3.73-12.86-6.05 6.97.7 14.09.88 21.09.71 8.28-.16 16.06-3.31 23.75-6.11 7.8-2.85 14.28-7.3 21.1-11.94 6.79-4.66 11.86-10.61 16.93-17.01 4.02-5.24 7.95-10.1 10.57-16.22 1.14-2.67 2.46-4.63 4.77-6.42 1.14-.95 2.25-1.93 3.31-2.98-1.64.25-3.26.52-4.8 1.17-3.95 1.79-7.54 3.72-11.86 4.6-6.76 1.45-13.52.39-19.9-2.1.56-.82 1.09-1.66 1.59-2.51 4.4 4.41 10.44 3.03 16.14 3.33.34-.54.69-1.08 1.03-1.62.66 1.04 1.47 1.32 2.45.84 3.84-1.31 7.95-3.02 11.07-5.67 1.64-1.36 2.44-3.31 2.58-5.41.17-4.46-2.64-7.84-1.81-12.18 1.16 1.37 2.18 2.84 3.17 4.33l.36-.86c1.18.38 2.35.83 3.55 1.12 1.6-.53 3.1-1.52 4.53-2.4-1.51.54-3.01 1.11-4.51 1.67l.63-3.63c7.29-1.45 14.19-3.61 20.37-7.86 6.38-3.89 10.32-9.49 15.53-14.62 2.44-.65 2.5-1.38 3.38-3.63 1.03-2.34 2.25-4.51 4.17-6.24Zm-8.02 34.32c.72-.57 1.44-1.14 2.17-1.71-1.33 2.93-2.88 5.74-4.38 8.58 2.03-2.08 4.99-3.63 4.98-6.87.34-2.72-.65-4.9-2.16-7.07-.21 2.36-.34 4.72-.61 7.07Zm-37.03 4.93 1.26 1.11c2.02-1.05 4.29-2.01 5.78-3.8 1.22-1.43 1.62-3.66 2.09-5.45-1.4 1.78-2.54 3.79-4.04 5.48-1.26 1.35-3.43 1.93-5.09 2.66Zm22.01 5.48c-1.6.61-1.12 3.25.7 2.83 1.49-.74 1.2-3.19-.7-2.83Zm6.09 9.97c-1.46.21-1.45 2.2 0 2.41 1.45-.18 1.44-2.22 0-2.41Zm-37.56 30.71c3.17.36 6.83 1.34 9.98.62 3.51-1.61 6.15-5.6 8.25-8.71 1.79-2.81 4.12-6.34 4.05-9.77-.31-2.26-1.74-4.47-2.95-6.36.22 2.81 1.67 5.76 1.35 8.55-1.37 5.06-4.87 9.77-8.83 13.14-3.06 2.9-7.74 1.11-11.85 2.53Zm6.33-2.14c3.49-2.84 7.13-4.15 8.41-8.9.51.55 1.02 1.11 1.53 1.66.4-3.39 1.01-5.98 2.83-8.94-6.62 3.44-10.53 9.21-12.77 16.18Zm26.12-9.97c-.72 1.53-1.31 3.11-1.67 4.77 2.74-.1 4.48-3.07 1.67-4.77Zm-3.75 6.26.01.83.71.42.72-.43v-.83l-.72-.41-.72.42Zm-42.5 25.97c-3.68-.24-5.43.76-8.23 3.06-1.36-.23-2.73-.44-4.1-.62 1.15.92 2.34 1.92 3.66 2.58 2.89-.14 5.9-1.04 8.3-2.68 2.13-1.54 2.74-4.25 3.49-6.61-1.12 1.36-2.13 2.81-3.12 4.27Zm-29.52 2.19c-.59 1.02-.31 1.69.82 2.01 2.11-.42.97-3.2-.82-2.01Zm-2.97 18.79v.83l.73.4.72-.42-.01-.83-.73-.4-.71.42Z"/><path id="cj" d="M429.13 358.55c3.33 2.73 2.9 8.38 3.55 12.32l.42.86c1.41 2.88 3.62 5.04 3.9 8.25.39 4.48.13 9.77-2.27 13.71-2.76 4.27-2.61 9.83-4.14 14.85-4.23 15.24-11.72 29.95-22.19 41.85-2.87 3.29-.65 8.19-3.79 11.21-3.7 4-8.32 7.46-13.31 9.69-4.09 1.91-7.97-.3-11.89 2.14-11.24 6.36-23.52 10.13-36.27 11.94-4.19.51-6.01 5.11-10.3 5.29-6.62.53-13.56.24-19.99-1.56-4.03-1.05-4.52-5.42-8.53-6.43-18.12-5.9-34.89-13.91-48.76-27.23-3.36-3.25-4.78-7.1-9.67-8.32-4.78-1.24-6.97-6.15-8.79-10.27-1.69-3.85.53-7.49-1.63-11.27-4.32-9.05-7.23-18.6-8.62-28.53l-.25-1.74c-1.79-10.85-1.06-21.34-.05-32.2.64.26 1.29.52 1.94.77-1.17 10.39-1.85 20.53-.08 30.9 1.37 13.9 6.21 26.9 12.9 39.07-1.26-.56-2.51-1.13-3.77-1.68 1.39 5.79 3.11 8.69 7.95 12.16-.13-1.51-.27-3.02-.38-4.54 6.29 6.61 11.81 14.63 19.49 20.6 5.02 3.51 9.79 7.13 15.34 9.8 4.19 2.32 8.39 4.32 12.86 6.05 8.48 3.55 17.09 6.66 26.26 7.86 2.5.32 4.94.74 7.29 1.64-5.88.55-11.1-1.21-16.97-1.41 1.44 1.62 2.6 3.04 4.87 3.4 7.11 1.69 16.58 2.86 23.18-.95-1.97-.33-3.95-.62-5.91-.97 7.54-2.07 15.37-2.33 22.79-4.52 9.44-2.78 18.98-6.47 27.42-11.57 4.57-2.7 8.56-6.2 13.14-8.89-2.88 3.37-6.19 6.31-9.18 9.58 5.45-.19 9.32-3.13 13.58-6.16 2.17-1.57 3.85-3.43 5.27-5.7.31-1.39.5-2.78.66-4.19-1.29.52-2.57 1.08-3.85 1.64 2.09-3.84 5.14-6.32 7.88-9.75 3.76-4.67 7.02-9.76 10.13-14.87 4.17-7.03 7.04-14.88 9.33-22.7 1.93-6.62 2.07-13.14 3.15-19.92.75 1.15 1.48 2.31 2.22 3.47 1.29-5.63 2.01-11.1-.2-16.62-.46 2.25-.88 4.51-1.38 6.75-1.34-7.9-1.9-15.91-3.35-23.81Z"/><path id="ck" d="M419.14 360.06c1.76-1.18 2.94 1.62.85 2.03-1.13-.33-1.41-1-.85-2.03Z"/><path id="cl" d="M297.44 362.26c3.48-.4 6.82-.47 10.31-.16-3.3 3.75-6.57 1.98-10.31.16Z"/><path id="cm" d="M249.59 363.12c1.88-.06 3.76-.12 5.64-.17.15 5.62.24 10.89-2.07 16.16-1.77 4.29-4.89 7.02-8.12 10.18 3.36 1.46 6.53 2.85 10.22 3.3 5.58.68 11.45-.42 17.16-.37-5.29 2.57-10.73 2.47-16.47 2.18-4.91-.29-9.38-2.11-13.56-4.6-2.36-3.58-6.9-6.3-6.83-10.72-.48-4.64.65-8.71 1.27-13.24.69-.62 1.4-1.24 2.12-1.84 1.34.18 2.68.36 4.03.48-.94 1.73-2.09 3.46-2.74 5.32-.51 2.83-.6 5.65-.69 8.51l1.78-.9 1.75-.86c-.44 1.56-.06 4.04-1.85 4.7-1.44.39-2.99.42-4.46.56 1.21.68 2.42 1.34 3.63 2.02l2.04 1.17c3.37-2.95 5.07-5.83 6.57-10.02.76.55 1.51 1.11 2.26 1.66.72-4.79-.19-8.99-1.68-13.52Zm-11.36 4.06c.68.66.68.66 0 0Z"/><path id="cn" d="M245.94 364.27c-1.58 3.97-2.2 8.08-2.86 12.28l-1.75.86c-.33-2.54-.78-5.06-1.09-7.61.65-1.86 1.8-3.59 2.74-5.32.99-.04 1.97-.11 2.96-.21Z"/><path id="co" d="m245.94 364.27 1.78-.21c-.17 7.74-.25 14.97-7.32 19.77-1.21-.68-2.42-1.34-3.63-2.02 1.47-.14 3.02-.17 4.46-.56 1.79-.66 1.41-3.14 1.85-4.7.66-4.2 1.28-8.31 2.86-12.28Z"/><path id="cp" d="M283.98 365.1c-1.76 1.72-3.69 3.23-5.51 4.88-1.27 2.19-2.02 4.51-2.44 7 .14 2.1.14 4.8 1.45 6.54 1.45 1.93 3.78 3.3 5.62 4.85-2.24-.55-4.28-.76-5.86-2.64-4.06-4.33-3.44-12.05-.15-16.65 1.71-2.49 4.18-3.08 6.89-3.98Z"/><path id="cq" d="M292.3 367.65c4.04 3.58 3.97 10.51 1.43 14.93-.8 1.6-3.02 2.25-4.51 3.08.87-1.35 1.76-2.7 2.66-4.03-.56 0-1.13.01-1.69.02.26-2.71.8-5.64.35-8.34-.92-2.81-2.96-5.33-4.49-7.84 2.35.37 4.45.38 6.25 2.18Z"/><path id="cr" d="M424.96 364.79c-.88 2.25-.94 2.98-3.38 3.63 1.13-1.21 2.26-2.41 3.38-3.63Z"/><path id="cs" d="M236.83 365.84c-.62 4.53-1.75 8.6-1.27 13.24-.07 4.42 4.47 7.14 6.83 10.72-4.04-2.42-8.3-5.59-8.14-10.84.03-4.09-.1-9.76 2.58-13.12Z"/><path id="ct" d="M238.23 367.18c.68.66.68.66 0 0Z"/><path id="cu" d="M282.85 369.44c1.32 1.17 2.63 2.36 3.92 3.57-.38 1.25-.77 2.5-1.12 3.75l-.41 1.37c-.97-1.78-1.93-3.56-2.95-5.31-1.55 4-.75 6.74 1.29 10.35-.72.65-1.41 1.32-2.1 2-2.09-1.89-2.92-4.15-3.59-6.81l-1.86-1.38c.42-2.49 1.17-4.81 2.44-7 1.45-.21 2.92-.44 4.38-.54Zm-3.63 2.97c-1.19.59-1.86 2.84-1.02 3.91 1.28.78 2.64-4.25 1.02-3.91Z"/><path id="cv" d="M282.85 369.44c3.73-.78 5.66 2.46 6.14 5.67.84 4.94-2.2 9.85-7.51 10.06.69-.68 1.38-1.35 2.1-2 .66-.57 1.32-1.15 1.99-1.72.02-1.57.03-3.12.08-4.69.35-1.25.74-2.5 1.12-3.75-1.29-1.21-2.6-2.4-3.92-3.57Z"/><path id="cw" d="M240.24 369.8c.31 2.55.76 5.07 1.09 7.61l-1.78.9c.09-2.86.18-5.68.69-8.51Z"/><path id="cx" d="M279.22 372.41c1.62-.34.26 4.69-1.02 3.91-.84-1.07-.17-3.32 1.02-3.91Z"/><path id="cy" d="M282.29 372.82c1.02 1.75 1.98 3.53 2.95 5.31l.41-1.37c-.05 1.57-.06 3.12-.08 4.69-.67.57-1.33 1.15-1.99 1.72-2.04-3.61-2.84-6.35-1.29-10.35Z"/><path id="cz" d="M331.03 375.51c2.69.16 5.38 1.27 7.94 2.07.27.74.54 1.48.81 2.21-5.62-2.73-11.21-2.59-17.29-2.69 2.84-.5 5.67-1.33 8.54-1.59Z"/><path id="cA" d="M322.49 377.1c6.08.1 11.67-.04 17.29 2.69-.27-.73-.54-1.47-.81-2.21 7.22 2.09 11.41 9.29 11.54 16.56-.97-.73-1.94-1.44-2.93-2.13.18 2.85.74 5.6 1.23 8.4.69-1.87 1.27-3.77 1.76-5.7.23 1.97.37 3.94.47 5.91-2.6 1.06-5.2 2.15-7.79 3.24.29-3.25.96-6.88.23-10.08-1.32-4.3-5.62-7.74-9.56-9.55-5.09-2.3-9.39.61-14.43-.83-2.28-.67-4.31-.37-6.58.16-.59-.22-1.18-.41-1.78-.56 3.64-2.58 6.8-5.2 11.36-5.9Z"/><path id="cB" d="M264.56 380.16c1.39-1.27 3.63.88 2.16 2.24-1.65 1.11-3.3-.65-2.16-2.24Z"/><path id="cC" d="M389.24 379.73c2.04 2.17 3.51 4.66 4.88 7.28-.69.21-1.39.42-2.09.62-.78-2.69-1.87-5.26-2.79-7.9Z"/><path id="cD" d="M389.34 382.95c-1.59.6-3.2 1.16-4.81 1.71-.26 1.44-.52 2.89-.79 4.33-.8-.04-1.59-.09-2.38-.14l-.65-.04c1.1-1.96 2.07-5.01 4.16-6.12 1.39-.46 3.07.03 4.47.26Z"/><path id="cE" d="M311.13 383c.6.15 1.19.34 1.78.56-.53 1.13-1.25 1.81-2.16 2.06-1.64-.3-.58-2.14.38-2.62Z"/><path id="cF" d="M334.4 387.39c-2.44-.07-4.84-.63-7.27-.72-4.06.21-7.21 2.62-9.45 5.86-.99 1.87-1.92 3.77-2.92 5.63.35-2.87.67-5.55 2.45-7.94 3.77-5.48 11.82-6.6 17.19-2.83Z"/><path id="cG" d="M327.13 386.67c2.43.09 4.83.65 7.27.72.6.43 1.18.88 1.75 1.35 2.1 3.7 3.7 7.36 4.63 11.54-.28 1.55-.6 3.11-.91 4.66-7.41 1.09-14.3 1.22-20.61-3.42 1.37-1.44 2.66-2.93 3.9-4.48-1.24-.41-2.48-.81-3.73-1.21.15-1.15.29-2.29.41-3.44-.72.04-1.44.09-2.16.14 2.24-3.24 5.39-5.65 9.45-5.86Zm.93 6.5c-.6 1.03-.32 1.69.83 1.99 2.1-.45.98-3.19-.83-1.99Z"/><path id="cH" d="M387.02 386.28c1.8-.07.76 2.11-.05 2.73l-.7.03c-.43-1.29-.18-2.21.75-2.76Z"/><path id="cI" d="m391.15 387.89-.77.23-1.09-1.26c.32-1.98 2.31-.35 1.86 1.03Z"/><path id="cJ" d="M421.72 385.8c1.51 2.17 2.5 4.35 2.16 7.07.01 3.24-2.95 4.79-4.98 6.87 1.5-2.84 3.05-5.65 4.38-8.58-.73.57-1.45 1.14-2.17 1.71.27-2.35.4-4.71.61-7.07Z"/><path id="cK" d="M336.15 388.74c4.07 3.06 6.17 6.29 4.63 11.54-.93-4.18-2.53-7.84-4.63-11.54Z"/><path id="cL" d="M393.21 389.66c-.47 1.79-.87 4.02-2.09 5.45-1.49 1.79-3.76 2.75-5.78 3.8l-1.26-1.11c1.66-.73 3.83-1.31 5.09-2.66 1.5-1.69 2.64-3.7 4.04-5.48Z"/><path id="cM" d="M382.46 391.71c1.07-.29 2.14-.56 3.22-.81l-.63 3.63c1.5-.56 3-1.13 4.51-1.67-1.43.88-2.93 1.87-4.53 2.4-1.2-.29-2.37-.74-3.55-1.12.32-.81.65-1.62.98-2.43Z"/><path id="cN" d="M319.84 392.39c-.12 1.15-.26 2.29-.41 3.44 1.25.4 2.49.8 3.73 1.21a69.097 69.097 0 0 1-3.9 4.48c-1.52-1.09-3.01-2.23-4.5-3.36 1-1.86 1.93-3.76 2.92-5.63.72-.05 1.44-.1 2.16-.14Z"/><path id="cO" d="M347.58 392.01c.99.69 1.96 1.4 2.93 2.13l.06.57c-.49 1.93-1.07 3.83-1.76 5.7-.49-2.8-1.05-5.55-1.23-8.4Z"/><path id="cP" d="M328.06 393.17c1.81-1.2 2.93 1.54.83 1.99-1.15-.3-1.43-.96-.83-1.99Z"/><path id="cQ" d="m226.6 395.31.25 1.74c-3.51 3.22-8.27 2.5-12.69 3.3-5.68.66-11.44 3.34-14.15 8.63-2.99 5.85-2.94 14.16 2.15 18.86 6.59 6.2 18.17 5.66 24.56 11.41 4.22 4.09 4.23 8.98 4.19 14.47 3.76 2.77 8.95 5.62 8.27 11.1-2.38 4.87-8.94 3-10.95-1.1-1.18-2.85-.68-6.57-.61-9.6-5.18-.07-10.22-.71-14.27 3.22-5.3 5.28-4.13 14.18 2.26 18.04 11.25 7.22 23.86-.94 35.17 4.74 4.93 2.42 9.47 6.21 10.19 12 .57 4.12-1.61 6.94-3.41 10.37l-1.74-.69c1.41-2.96 3.49-6.23 2.92-9.64-.9-5.56-5.5-9.63-10.76-11.11-8.32-2.39-18.32.47-26.76-1.27-5.11-1.16-9.94-4.05-11.99-9.09-2.82-6.03-.34-13.77 5.45-17.03 4.27-2.47 9.64-1.49 14.33-1.09-.3-4.25-.02-8.09-3.16-11.42-3.95-4.23-11.52-5.17-16.79-7.2-4.45-1.58-8.53-3.84-10.99-8.02-4.55-8.08-1.7-19.75 6.46-24.41 6.87-3.95 14.86-2.59 22.07-6.21Zm2.62 60.81c-.21 3.08-.36 6.32 2.06 8.62 1.24 1.2 2.79 1.29 4.42 1.2.9-1.2 1.8-2.15 1.25-3.76-1.25-3.45-4.23-5.4-7.73-6.06Z"/><path id="cR" d="M314.68 402.05c1.04.62 2.05 1.27 3.05 1.94 1.07 2.04 1.83 4.11 3.82 5.43 2.45 1.65 5.76 2.3 8.53 3.31-7.36 1.65-13.74-3.69-15.4-10.68Z"/><path id="cS" d="M350.06 403.27c-.91 2.84-2.04 5.54-3.57 8.11-.5.85-1.03 1.69-1.59 2.51-2.29 2.05-5.01 3.22-7.87 4.25 1.76-1.35 3.58-2.62 5.29-4.04 3.14-2.72 4.52-6.31 5.65-10.19.7-.22 1.39-.43 2.09-.64Z"/><path id="cT" d="M406.09 403.28c1.9-.36 2.19 2.09.7 2.83-1.82.42-2.3-2.22-.7-2.83Z"/><path id="cU" d="M248.93 403.72c.32.57.63 1.15.92 1.74-.13 1.32-.34 2.73-.2 4.05.42 1.39 1.99 2.45 3 3.43 1.11.94 2.22 1.88 3.32 2.83-2.54-1.18-6.14-1.57-7.16-4.54-1.42-2.86-1.13-4.68.12-7.51Z"/><path id="cV" d="M317.73 403.99c6.02 1.95 12 3.07 18.31 3.56-.65.9-1.26 1.81-1.87 2.73l2.14-.49c-2.1.93-4.13 2-6.23 2.94-2.77-1.01-6.08-1.66-8.53-3.31-1.99-1.32-2.75-3.39-3.82-5.43Z"/><path id="cW" d="M347.97 403.91c-1.13 3.88-2.51 7.47-5.65 10.19l-1.47-2.49c-1.48.44-2.96.89-4.44 1.33.29-1.15.58-2.29.88-3.43.18-.62.35-1.24.53-1.86l1.2.03c3.02-1.2 5.83-2.81 8.95-3.77Z"/><path id="cX" d="M240.31 406.54c1.64-.94 3.02.99 1.64 2.26-1.65.94-3.03-.98-1.64-2.26Z"/><path id="cY" d="M249.85 405.46c1.39 2.41 2.36 4.73 2.8 7.48-1.01-.98-2.58-2.04-3-3.43-.14-1.32.07-2.73.2-4.05Z"/><path id="cZ" d="M336.04 407.55c.6.03 1.19.06 1.78.1-.18.62-.35 1.24-.53 1.86l-.98.28-2.14.49c.61-.92 1.22-1.83 1.87-2.73Z"/><path id="da" d="M277.61 407.39c-.64 1.53-1.35 3.03-2.01 4.55-.65 3.09-.18 5.37 1.29 8.13 1.48 3.85 5.15 3.63 8.51 4.89-2.13.34-4 .97-6.01-.24-3.83-1.97-5.6-6.63-5.64-10.7.07-2.99 1.79-4.75 3.86-6.63Z"/><path id="db" d="M286.34 407.8c1.14 1.11 2.42 2.36 3.1 3.81.59 1.89.29 4.11.3 6.08-1.89-3.05-3.7-6.13-5.6-9.17.73-.24 1.47-.48 2.2-.72Z"/><path id="dc" d="M278.3 409.76c2.07 0 3.92-.12 5.61 1.31 3.19 3.38 3.64 8.57-.36 11.59.09-.69.16-1.38.24-2.07.16-1.71.3-3.35-.25-5-.39-1.31-.8-2.6-1.21-3.89-1.34-.32-2.67-.64-4.01-.98l-.02-.96Z"/><path id="dd" d="M381.46 410.22a51.744 51.744 0 0 1-3.31 2.98l-1.49-1.81c1.54-.65 3.16-.92 4.8-1.17Z"/><path id="de" d="M278.32 410.72c1.34.34 2.67.66 4.01.98.41 1.29.82 2.58 1.21 3.89-1.43-.61-2.89-1.13-4.37-1.62.98 3.03 2.18 4.63 4.62 6.62-.08.69-.15 1.38-.24 2.07l-.84.9c-1.84-1.82-3.58-3.73-5.38-5.57.43-.83 1.33-3.75-.35-3.67-.54.83-.62 1.94-.21 3.34l.12 2.41c-1.47-2.76-1.94-5.04-1.29-8.13.93.4 1.86.81 2.79 1.21-.03-.81-.05-1.62-.07-2.43Z"/><path id="df" d="M366.11 413.93c-.98.48-1.79.2-2.45-.84.77-1.79 3.01-1.09 2.45.84Z"/><path id="dg" d="M412.18 413.25c1.44.19 1.45 2.23 0 2.41-1.45-.21-1.46-2.2 0-2.41Z"/><path id="dh" d="M276.98 414.32c1.68-.08.78 2.84.35 3.67l-.56-.33c-.41-1.4-.33-2.51.21-3.34Z"/><path id="di" d="M279.17 413.97c1.48.49 2.94 1.01 4.37 1.62.55 1.65.41 3.29.25 5-2.44-1.99-3.64-3.59-4.62-6.62Z"/><path id="dj" d="M365.94 418.16c1.43-.15 2.87-.27 4.31-.35-.27.93-.55 1.86-.85 2.79l-.75.46c-.47-1.71-1-1.72-1.58-.02-.43-.95-.8-1.91-1.13-2.88Z"/><path id="dk" d="m368.65 421.06-.8.4-.78-.42c.58-1.7 1.11-1.69 1.58.02Z"/><path id="dl" d="M393.95 419.74c1.21 1.89 2.64 4.1 2.95 6.36.07 3.43-2.26 6.96-4.05 9.77-2.1 3.11-4.74 7.1-8.25 8.71-3.15.72-6.81-.26-9.98-.62 4.11-1.42 8.79.37 11.85-2.53 3.96-3.37 7.46-8.08 8.83-13.14.32-2.79-1.13-5.74-1.35-8.55Z"/><path id="dm" d="M250.48 422.05a1.007 1.007 0 0 1 .73 1.74c-.97-.28-1.22-.86-.73-1.74Z"/><path id="dn" d="M393.72 425.64c-1.82 2.96-2.43 5.55-2.83 8.94-.51-.55-1.02-1.11-1.53-1.66-1.28 4.75-4.92 6.06-8.41 8.9 2.24-6.97 6.15-12.74 12.77-16.18Z"/><path id="do" d="M357.18 429.19c1.79-1.2 2.92 1.59.82 2-1.14-.31-1.41-.98-.82-2Z"/><path id="dp" d="M407.07 431.85c2.81 1.7 1.07 4.67-1.67 4.77.36-1.66.95-3.24 1.67-4.77Z"/><path id="dq" d="M303.22 436.39c1.77-1.19 2.93 1.58.83 2-1.14-.3-1.41-.97-.83-2Z"/><path id="dr" d="M243.08 437.38c1.79-1.18 2.9 1.59.81 2.01-1.14-.31-1.41-.98-.81-2.01Z"/><path id="ds" d="M293.29 436.89c.13.95.25 1.9.38 2.85-.9-.09-1.81-.19-2.71-.28.78-.86 1.56-1.71 2.33-2.57Z"/><path id="dt" d="m403.32 438.11.72-.42.72.41v.83l-.72.43-.71-.42-.01-.83Z"/><path id="du" d="M334.46 453.18c-1.25.49-2.54.97-3.74 1.58-2.89-3.34-6.45-5.72-10.1-8.15 5.84-.69 11.33.79 13.84 6.57Z"/><path id="dv" d="M272.69 447.04c.64 1.51 1.19 3.05 1.72 4.6 2.11.87 4.14 1.89 6.2 2.86l.15 3.54c1.82-.42 3.64-.85 5.45-1.28l-.54 1.88c-5.15 1.68-9.21-1.13-12.51-4.79-1.54-1.61-.62-4.82-.47-6.81Zm3.55 7.16c-.61 1.18 2.35 3.3 3.36 2.59.59-1.16-2.38-3.26-3.36-2.59Z"/><path id="dw" d="M302.18 447.8c1.06 1.52 1.99 3.12 2.9 4.74.54 1.29 1.01 2.61 1.42 3.95-2.73-2.38-3.66-5.25-4.32-8.69Z"/><path id="dx" d="M310.37 448.28c3.47 3.19 7.12 3.42 11.6 3.72.33 1.11.66 2.23.98 3.34-2.44-.14-5.19.02-7.52-.8-2.36-1.08-4.49-2.76-6.65-4.18-.24 1.37-.43 2.76-.62 4.14-.87-.53-1.74-1.07-2.6-1.63.83-2.86 1.73-4.25 4.81-4.59Z"/><path id="dy" d="M310.37 448.28c6.24-.92 12.34.45 17.06 4.75-.28 1.52-.6 3.04-.93 4.55-.99-2.9-1.07-4.91-4.53-5.58-4.48-.3-8.13-.53-11.6-3.72Z"/><path id="dz" d="M308.78 450.36c2.16 1.42 4.29 3.1 6.65 4.18 2.33.82 5.08.66 7.52.8-.32-1.11-.65-2.23-.98-3.34 3.46.67 3.54 2.68 4.53 5.58.33-1.51.65-3.03.93-4.55.38 1.44.69 2.88 1 4.33-4.67 2.33-11.02 1.21-15.75-.54l.57 1.92c-.41-.46-.83-.91-1.25-1.36-1.89-.04-3.73-.16-5.5-.89-.41-1.34-.88-2.66-1.42-3.95l.48.33c.86.56 1.73 1.1 2.6 1.63.19-1.38.38-2.77.62-4.14Z"/><path id="dA" d="M334.46 453.18c-2.25 2.14-4.77 5.49-7.91 6.23-4.36.98-9 .27-13.3-.67l-.57-1.92c4.73 1.75 11.08 2.87 15.75.54.77-.87 1.53-1.73 2.29-2.6 1.2-.61 2.49-1.09 3.74-1.58Z"/><path id="dB" d="M276.24 454.2c.98-.67 3.95 1.43 3.36 2.59-1.01.71-3.97-1.41-3.36-2.59Z"/><path id="dC" d="M286.21 456.76c-1.81.43-3.63.86-5.45 1.28l-.15-3.54c2.72.04 3.7.29 5.6 2.26Z"/><path id="dD" d="M405.2 454.36c-.16 1.41-.35 2.8-.66 4.19-2.97 1.4-5.62 3.24-8.44 4.91 1.89-2.42 3.84-4.72 5.25-7.46 1.28-.56 2.56-1.12 3.85-1.64Z"/><path id="dE" d="M229.22 456.12c3.5.66 6.48 2.61 7.73 6.06.55 1.61-.35 2.56-1.25 3.76-1.63.09-3.18 0-4.42-1.2-2.42-2.3-2.27-5.54-2.06-8.62Z"/><path id="dF" d="M363.94 459.81c-.75 2.36-1.36 5.07-3.49 6.61-2.4 1.64-5.41 2.54-8.3 2.68-1.32-.66-2.51-1.66-3.66-2.58 1.37.18 2.74.39 4.1.62 2.8-2.3 4.55-3.3 8.23-3.06.99-1.46 2-2.91 3.12-4.27Z"/><path id="dG" d="M331.3 466.27c1.79-1.19 2.93 1.59.82 2.01-1.13-.32-1.41-.99-.82-2.01Z"/><path id="dH" d="m328.33 485.06.71-.42.73.4.01.83-.72.42-.73-.4v-.83Z"/><path id="dI" d="M242.71 494.68c.48 3 .54 6.01.41 9.04 1.24-1.06 2.58-2.77 4.2-3.16 2.79-.28 5.79.61 8.5 1.24l1.74.69c-1.61 2.88-2.33 6.21-4.05 9.01-2.08 2.83-7.87.99-10.3 2.76-1.55 2.58-1.53 6.43-2.38 9.36-.85 0-1.7-.01-2.55-.02-1.43-2.52-2.8-5.07-4.15-7.64-2.39.92-5.04 2.35-7.63 2.42-.61-.42-1.18-.9-1.72-1.43.78-2.79 2.41-5.26 3.19-8.02-.6-3.16-2.29-6.08-3.1-9.21 3.37.17 6.67.72 9.99 1.24 2.52-2.59 4.04-5.59 7.85-6.28Zm-16.14 6.29c.93 2.58 2.54 5.21 2.91 7.92-.69 2.62-2 5.08-2.9 7.64 2.46-.39 5.74-2.16 8.14-1.55 1.9 2.26 3.1 5.19 4.63 7.71.83-3.04 1.14-6.23 2.09-9.23 1.03-1.43 3.72-1.76 5.33-2.43 1.43.01 2.9.11 4.32-.03.54-1.13.94-2.35 1.37-3.53.44.42.89.84 1.33 1.26.37-2.17.73-4.33 1.11-6.49-1.57.27-3.14.53-4.72.72-2.07-.37-3.77-.02-5.75.57.37.91.75 1.81 1.13 2.72l.41.95c-1.38-.47-2.77-.91-4.17-1.36-.02-3.24.03-6.45-.35-9.68-2.23 2.04-4.09 4.55-6.49 6.38-2.82-.2-5.61-1.05-8.39-1.57Z"/><path id="dJ" d="M241.45 496.16c.38 3.23.33 6.44.35 9.68 1.4.45 2.79.89 4.17 1.36 1.05.75 2.11 1.5 3.16 2.25-.78.54-1.56 1.06-2.36 1.58-1.61.67-4.3 1-5.33 2.43-.95 3-1.26 6.19-2.09 9.23-1.53-2.52-2.73-5.45-4.63-7.71-2.4-.61-5.68 1.16-8.14 1.55.9-2.56 2.21-5.02 2.9-7.64-.37-2.71-1.98-5.34-2.91-7.92 2.78.52 5.57 1.37 8.39 1.57 2.4-1.83 4.26-4.34 6.49-6.38Zm-6.57 14.48 3.47-.09c-1.17-2.25-2.36-4.48-3.59-6.69-.62 2.31-.27 4.48.12 6.78Z"/><path id="dK" d="M254.9 502.24c-.38 2.16-.74 4.32-1.11 6.49-.44-.42-.89-.84-1.33-1.26-.43 1.18-.83 2.4-1.37 3.53-1.42.14-2.89.04-4.32.03.8-.52 1.58-1.04 2.36-1.58-1.05-.75-2.11-1.5-3.16-2.25l-.41-.95c1.98.61 3.9 1.36 5.8 2.18-.39-1.83-.79-3.65-1.18-5.47 1.58-.19 3.15-.45 4.72-.72Z"/><path id="dL" d="M250.18 502.96c.39 1.82.79 3.64 1.18 5.47-1.9-.82-3.82-1.57-5.8-2.18-.38-.91-.76-1.81-1.13-2.72 1.98-.59 3.68-.94 5.75-.57Z"/><path id="dM" d="M234.76 503.86c1.23 2.21 2.42 4.44 3.59 6.69l-3.47.09c-.39-2.3-.74-4.47-.12-6.78Z"/></defs><g stroke-width="10pt"><use xlink:href="#a" stroke="#c8c8c8"/><use xlink:href="#b" stroke="#1d1d1d"/><use xlink:href="#c" stroke="#dedede"/><use xlink:href="#d" stroke="#c8c8c8"/><use xlink:href="#e" stroke="#dedede"/><use xlink:href="#f" stroke="#c8c8c8"/><use xlink:href="#g" stroke="#dedede"/><use xlink:href="#h" stroke="#dedede"/><use xlink:href="#i" stroke="#c8c8c8"/><use xlink:href="#j" stroke="#dedede"/><use xlink:href="#k" stroke="#dedede"/><use xlink:href="#l" stroke="#dedede"/><use xlink:href="#m" stroke="#dedede"/><use xlink:href="#n" stroke="#1d1d1d"/><use xlink:href="#o" stroke="#dedede"/><use xlink:href="#p" stroke="#1d1d1d"/><use xlink:href="#q" stroke="#dedede"/><use xlink:href="#r" stroke="#1d1d1d"/><use xlink:href="#s" stroke="#c8c8c8"/><use xlink:href="#t" stroke="#dedede"/><use xlink:href="#u" stroke="#656565"/><use xlink:href="#v" stroke="#dedede"/><use xlink:href="#w" stroke="#c8c8c8"/><use xlink:href="#x" stroke="#404040"/><use xlink:href="#y" stroke="#8a8a8a"/><use xlink:href="#z" stroke="#dedede"/><use xlink:href="#A" stroke="#404040"/><use xlink:href="#B" stroke="#dedede"/><use xlink:href="#C" stroke="#dedede"/><use xlink:href="#D" stroke="#dedede"/><use xlink:href="#E" stroke="#dedede"/><use xlink:href="#F" stroke="#c8c8c8"/><use xlink:href="#G" stroke="#c8c8c8"/><use xlink:href="#H" stroke="#dedede"/><use xlink:href="#I" stroke="#8a8a8a"/><use xlink:href="#J" stroke="#c8c8c8"/><use xlink:href="#K" stroke="#dedede"/><use xlink:href="#L" stroke="#dedede"/><use xlink:href="#M" stroke="#8a8a8a"/><use xlink:href="#N" stroke="#dedede"/><use xlink:href="#O" stroke="#dedede"/><use xlink:href="#P" stroke="#dedede"/><use xlink:href="#Q" stroke="#1d1d1d"/><use xlink:href="#R" stroke="#dedede"/><use xlink:href="#S" stroke="#8a8a8a"/><use xlink:href="#T" stroke="#dedede"/><use xlink:href="#U" stroke="#c8c8c8"/><use xlink:href="#V" stroke="#dedede"/><use xlink:href="#W" stroke="#c8c8c8"/><use xlink:href="#X" stroke="#dedede"/><use xlink:href="#Y" stroke="#8a8a8a"/><use xlink:href="#Z" stroke="#8a8a8a"/><use xlink:href="#aa" stroke="#8a8a8a"/><use xlink:href="#ab" stroke="#dedede"/><use xlink:href="#ac" stroke="#dedede"/><use xlink:href="#ad" stroke="#8a8a8a"/><use xlink:href="#ae" stroke="#dedede"/><use xlink:href="#af" stroke="#dedede"/><use xlink:href="#ag" stroke="#656565"/><use xlink:href="#ah" stroke="#dedede"/><use xlink:href="#ai" stroke="#dedede"/><use xlink:href="#aj" stroke="#c8c8c8"/><use xlink:href="#ak" stroke="#8a8a8a"/><use xlink:href="#al" stroke="#c8c8c8"/><use xlink:href="#am" stroke="#8a8a8a"/><use xlink:href="#an" stroke="#dedede"/><use xlink:href="#ao" stroke="#c8c8c8"/><use xlink:href="#ap" stroke="#656565"/><use xlink:href="#aq" stroke="#dedede"/><use xlink:href="#ar" stroke="#dedede"/><use xlink:href="#as" stroke="#dedede"/><use xlink:href="#at" stroke="#8a8a8a"/><use xlink:href="#au" stroke="#8a8a8a"/><use xlink:href="#av" stroke="#c8c8c8"/><use xlink:href="#aw" stroke="#8a8a8a"/><use xlink:href="#ax" stroke="#8a8a8a"/><use xlink:href="#ay" stroke="#c8c8c8"/><use xlink:href="#az" stroke="#c8c8c8"/><use xlink:href="#aA" stroke="#c8c8c8"/><use xlink:href="#aB" stroke="#8a8a8a"/><use xlink:href="#aC" stroke="#c8c8c8"/><use xlink:href="#aD" stroke="#8a8a8a"/><use xlink:href="#aE" stroke="#c8c8c8"/><use xlink:href="#aF" stroke="#dedede"/><use xlink:href="#aG" stroke="#8a8a8a"/><use xlink:href="#aH" stroke="#c8c8c8"/><use xlink:href="#aI" stroke="#8a8a8a"/><use xlink:href="#aJ" stroke="#8a8a8a"/><use xlink:href="#aK" stroke="#1d1d1d"/><use xlink:href="#aL" stroke="#c8c8c8"/><use xlink:href="#aM" stroke="#656565"/><use xlink:href="#aN" stroke="#c8c8c8"/><use xlink:href="#aO" stroke="#404040"/><use xlink:href="#aP" stroke="#c8c8c8"/><use xlink:href="#aQ" stroke="#c8c8c8"/><use xlink:href="#aR" stroke="#8a8a8a"/><use xlink:href="#aS" stroke="#8a8a8a"/><use xlink:href="#aT" stroke="#dedede"/><use xlink:href="#aU" stroke="#656565"/><use xlink:href="#aV" stroke="#8a8a8a"/><use xlink:href="#aW" stroke="#404040"/><use xlink:href="#aX" stroke="#8a8a8a"/><use xlink:href="#aY" stroke="#8a8a8a"/><use xlink:href="#aZ" stroke="#c8c8c8"/><use xlink:href="#ba" stroke="#c8c8c8"/><use xlink:href="#bb" stroke="#656565"/><use xlink:href="#bc" stroke="#1d1d1d"/><use xlink:href="#bd" stroke="#8a8a8a"/><use xlink:href="#be" stroke="#dedede"/><use xlink:href="#bf" stroke="#1d1d1d"/><use xlink:href="#bg" stroke="#1d1d1d"/><use xlink:href="#bh" stroke="#8a8a8a"/><use xlink:href="#bi" stroke="#c8c8c8"/><use xlink:href="#bj" stroke="#dedede"/><use xlink:href="#bk" stroke="#1d1d1d"/><use xlink:href="#bl" stroke="#c8c8c8"/><use xlink:href="#bm" stroke="#8a8a8a"/><use xlink:href="#bn" stroke="#dedede"/><use xlink:href="#bo" stroke="#c8c8c8"/><use xlink:href="#bp" stroke="#1d1d1d"/><use xlink:href="#bq" stroke="#dedede"/><use xlink:href="#br" stroke="#8a8a8a"/><use xlink:href="#bs" stroke="#c8c8c8"/><use xlink:href="#bt" stroke="#8a8a8a"/><use xlink:href="#bu" stroke="#dedede"/><use xlink:href="#bv" stroke="#c8c8c8"/><use xlink:href="#bw" stroke="#8a8a8a"/><use xlink:href="#bx" stroke="#c8c8c8"/><use xlink:href="#by" stroke="#c8c8c8"/><use xlink:href="#bz" stroke="#8a8a8a"/><use xlink:href="#bA" stroke="#c8c8c8"/><use xlink:href="#bB" stroke="#1d1d1d"/><use xlink:href="#bC" stroke="#8a8a8a"/><use xlink:href="#bD" stroke="#8a8a8a"/><use xlink:href="#bE" stroke="#dedede"/><use xlink:href="#bF" stroke="#8a8a8a"/><use xlink:href="#bG" stroke="#dedede"/><use xlink:href="#bH" stroke="#8a8a8a"/><use xlink:href="#bI" stroke="#dedede"/><use xlink:href="#bJ" stroke="#1d1d1d"/><use xlink:href="#bK" stroke="#c8c8c8"/><use xlink:href="#bL" stroke="#c8c8c8"/><use xlink:href="#bM" stroke="#c8c8c8"/><use xlink:href="#bN" stroke="#8a8a8a"/><use xlink:href="#bO" stroke="#656565"/><use xlink:href="#bP" stroke="#c8c8c8"/><use xlink:href="#bQ" stroke="#c8c8c8"/><use xlink:href="#bR" stroke="#c8c8c8"/><use xlink:href="#bS" stroke="#1d1d1d"/><use xlink:href="#bT" stroke="#c8c8c8"/><use xlink:href="#bU" stroke="#656565"/><use xlink:href="#bV" stroke="#c8c8c8"/><use xlink:href="#bW" stroke="#8a8a8a"/><use xlink:href="#bX" stroke="#8a8a8a"/><use xlink:href="#bY" stroke="#656565"/><use xlink:href="#bZ" stroke="#8a8a8a"/><use xlink:href="#ca" stroke="#1d1d1d"/><use xlink:href="#cb" stroke="#1d1d1d"/><use xlink:href="#cc" stroke="#656565"/><use xlink:href="#cd" stroke="#8a8a8a"/><use xlink:href="#ce" stroke="#dedede"/><use xlink:href="#cf" stroke="#1d1d1d"/><use xlink:href="#cg" stroke="#1d1d1d"/><use xlink:href="#ch" stroke="#656565"/><use xlink:href="#ci" stroke="#c8c8c8"/><use xlink:href="#cj" stroke="#1d1d1d"/><use xlink:href="#ck" stroke="#656565"/><use xlink:href="#cl" stroke="#656565"/><use xlink:href="#cm" stroke="#c8c8c8"/><use xlink:href="#cn" stroke="#656565"/><use xlink:href="#co" stroke="#1d1d1d"/><use xlink:href="#cp" stroke="#1d1d1d"/><use xlink:href="#cq" stroke="#c8c8c8"/><use xlink:href="#cr" stroke="#1d1d1d"/><use xlink:href="#cs" stroke="#1d1d1d"/><use xlink:href="#ct" stroke="#404040"/><use xlink:href="#cu" stroke="#dedede"/><use xlink:href="#cv" stroke="#1d1d1d"/><use xlink:href="#cw" stroke="#404040"/><use xlink:href="#cx" stroke="#656565"/><use xlink:href="#cy" stroke="#656565"/><use xlink:href="#cz" stroke="#1d1d1d"/><use xlink:href="#cA" stroke="#c8c8c8"/><use xlink:href="#cB" stroke="#1d1d1d"/><use xlink:href="#cC" stroke="#1d1d1d"/><use xlink:href="#cD" stroke="#1d1d1d"/><use xlink:href="#cE" stroke="#656565"/><use xlink:href="#cF" stroke="#1d1d1d"/><use xlink:href="#cG" stroke="#c8c8c8"/><use xlink:href="#cH" stroke="#8a8a8a"/><use xlink:href="#cI" stroke="#c8c8c8"/><use xlink:href="#cJ" stroke="#1d1d1d"/><use xlink:href="#cK" stroke="#1d1d1d"/><use xlink:href="#cL" stroke="#1d1d1d"/><use xlink:href="#cM" stroke="#1d1d1d"/><use xlink:href="#cN" stroke="#656565"/><use xlink:href="#cO" stroke="#1d1d1d"/><use xlink:href="#cP" stroke="#404040"/><use xlink:href="#cQ" stroke="#dedede"/><use xlink:href="#cR" stroke="#1d1d1d"/><use xlink:href="#cS" stroke="#1d1d1d"/><use xlink:href="#cT" stroke="#1d1d1d"/><use xlink:href="#cU" stroke="#1d1d1d"/><use xlink:href="#cV" stroke="#c8c8c8"/><use xlink:href="#cW" stroke="#c8c8c8"/><use xlink:href="#cX" stroke="#1d1d1d"/><use xlink:href="#cY" stroke="#dedede"/><use xlink:href="#cZ" stroke="#1d1d1d"/><use xlink:href="#da" stroke="#1d1d1d"/><use xlink:href="#db" stroke="#c8c8c8"/><use xlink:href="#dc" stroke="#1d1d1d"/><use xlink:href="#dd" stroke="#1d1d1d"/><use xlink:href="#de" stroke="#dedede"/><use xlink:href="#df" stroke="#656565"/><use xlink:href="#dg" stroke="#8a8a8a"/><use xlink:href="#dh" stroke="#1d1d1d"/><use xlink:href="#di" stroke="#656565"/><use xlink:href="#dj" stroke="#8a8a8a"/><use xlink:href="#dk" stroke="#404040"/><use xlink:href="#dl" stroke="#1d1d1d"/><use xlink:href="#dm" stroke="#656565"/><use xlink:href="#dn" stroke="#1d1d1d"/><use xlink:href="#do" stroke="#656565"/><use xlink:href="#dp" stroke="#1d1d1d"/><use xlink:href="#dq" stroke="#8a8a8a"/><use xlink:href="#dr" stroke="#656565"/><use xlink:href="#ds" stroke="#1d1d1d"/><use xlink:href="#dt" stroke="#404040"/><use xlink:href="#du" stroke="#c8c8c8"/><use xlink:href="#dv" stroke="#1d1d1d"/><use xlink:href="#dw" stroke="#1d1d1d"/><use xlink:href="#dx" stroke="#656565"/><use xlink:href="#dy" stroke="#1d1d1d"/><use xlink:href="#dz" stroke="#c8c8c8"/><use xlink:href="#dA" stroke="#1d1d1d"/><use xlink:href="#dB" stroke="#dedede"/><use xlink:href="#dC" stroke="#dedede"/><use xlink:href="#dD" stroke="#656565"/><use xlink:href="#dE" stroke="#c8c8c8"/><use xlink:href="#dF" stroke="#1d1d1d"/><use xlink:href="#dG" stroke="#656565"/><use xlink:href="#dH" stroke="#656565"/><use xlink:href="#dI" stroke="#1d1d1d"/><use xlink:href="#dJ" stroke="#dedede"/><use xlink:href="#dK" stroke="#656565"/><use xlink:href="#dL" stroke="#dedede"/><use xlink:href="#dM" stroke="#1d1d1d"/></g><use xlink:href="#a" fill="#c8c8c8"/><use xlink:href="#b" fill="#1d1d1d"/><use xlink:href="#c" fill="#dedede"/><use xlink:href="#d" fill="#c8c8c8"/><use xlink:href="#e" fill="#dedede"/><use xlink:href="#f" fill="#c8c8c8"/><use xlink:href="#g" fill="#dedede"/><use xlink:href="#h" fill="#dedede"/><use xlink:href="#i" fill="#c8c8c8"/><use xlink:href="#j" fill="#dedede"/><use xlink:href="#k" fill="#dedede"/><use xlink:href="#l" fill="#dedede"/><use xlink:href="#m" fill="#dedede"/><use xlink:href="#n" fill="#1d1d1d"/><use xlink:href="#o" fill="#dedede"/><use xlink:href="#p" fill="#1d1d1d"/><use xlink:href="#q" fill="#dedede"/><use xlink:href="#r" fill="#1d1d1d"/><use xlink:href="#s" fill="#c8c8c8"/><use xlink:href="#t" fill="#dedede"/><use xlink:href="#u" fill="#656565"/><use xlink:href="#v" fill="#dedede"/><use xlink:href="#w" fill="#c8c8c8"/><use xlink:href="#x" fill="#404040"/><use xlink:href="#y" fill="#8a8a8a"/><use xlink:href="#z" fill="#dedede"/><use xlink:href="#A" fill="#404040"/><use xlink:href="#B" fill="#dedede"/><use xlink:href="#C" fill="#dedede"/><use xlink:href="#D" fill="#dedede"/><use xlink:href="#E" fill="#dedede"/><use xlink:href="#F" fill="#c8c8c8"/><use xlink:href="#G" fill="#c8c8c8"/><use xlink:href="#H" fill="#dedede"/><use xlink:href="#I" fill="#8a8a8a"/><use xlink:href="#J" fill="#c8c8c8"/><use xlink:href="#K" fill="#dedede"/><use xlink:href="#L" fill="#dedede"/><use xlink:href="#M" fill="#8a8a8a"/><use xlink:href="#N" fill="#dedede"/><use xlink:href="#O" fill="#dedede"/><use xlink:href="#P" fill="#dedede"/><use xlink:href="#Q" fill="#1d1d1d"/><use xlink:href="#R" fill="#dedede"/><use xlink:href="#S" fill="#8a8a8a"/><use xlink:href="#T" fill="#dedede"/><use xlink:href="#U" fill="#c8c8c8"/><use xlink:href="#V" fill="#dedede"/><use xlink:href="#W" fill="#c8c8c8"/><use xlink:href="#X" fill="#dedede"/><use xlink:href="#Y" fill="#8a8a8a"/><use xlink:href="#Z" fill="#8a8a8a"/><use xlink:href="#aa" fill="#8a8a8a"/><use xlink:href="#ab" fill="#dedede"/><use xlink:href="#ac" fill="#dedede"/><use xlink:href="#ad" fill="#8a8a8a"/><use xlink:href="#ae" fill="#dedede"/><use xlink:href="#af" fill="#dedede"/><use xlink:href="#ag" fill="#656565"/><use xlink:href="#ah" fill="#dedede"/><use xlink:href="#ai" fill="#dedede"/><use xlink:href="#aj" fill="#c8c8c8"/><use xlink:href="#ak" fill="#8a8a8a"/><use xlink:href="#al" fill="#c8c8c8"/><use xlink:href="#am" fill="#8a8a8a"/><use xlink:href="#an" fill="#dedede"/><use xlink:href="#ao" fill="#c8c8c8"/><use xlink:href="#ap" fill="#656565"/><use xlink:href="#aq" fill="#dedede"/><use xlink:href="#ar" fill="#dedede"/><use xlink:href="#as" fill="#dedede"/><use xlink:href="#at" fill="#8a8a8a"/><use xlink:href="#au" fill="#8a8a8a"/><use xlink:href="#av" fill="#c8c8c8"/><use xlink:href="#aw" fill="#8a8a8a"/><use xlink:href="#ax" fill="#8a8a8a"/><use xlink:href="#ay" fill="#c8c8c8"/><use xlink:href="#az" fill="#c8c8c8"/><use xlink:href="#aA" fill="#c8c8c8"/><use xlink:href="#aB" fill="#8a8a8a"/><use xlink:href="#aC" fill="#c8c8c8"/><use xlink:href="#aD" fill="#8a8a8a"/><use xlink:href="#aE" fill="#c8c8c8"/><use xlink:href="#aF" fill="#dedede"/><use xlink:href="#aG" fill="#8a8a8a"/><use xlink:href="#aH" fill="#c8c8c8"/><use xlink:href="#aI" fill="#8a8a8a"/><use xlink:href="#aJ" fill="#8a8a8a"/><use xlink:href="#aK" fill="#1d1d1d"/><use xlink:href="#aL" fill="#c8c8c8"/><use xlink:href="#aM" fill="#656565"/><use xlink:href="#aN" fill="#c8c8c8"/><use xlink:href="#aO" fill="#404040"/><use xlink:href="#aP" fill="#c8c8c8"/><use xlink:href="#aQ" fill="#c8c8c8"/><use xlink:href="#aR" fill="#8a8a8a"/><use xlink:href="#aS" fill="#8a8a8a"/><use xlink:href="#aT" fill="#dedede"/><use xlink:href="#aU" fill="#656565"/><use xlink:href="#aV" fill="#8a8a8a"/><use xlink:href="#aW" fill="#404040"/><use xlink:href="#aX" fill="#8a8a8a"/><use xlink:href="#aY" fill="#8a8a8a"/><use xlink:href="#aZ" fill="#c8c8c8"/><use xlink:href="#ba" fill="#c8c8c8"/><use xlink:href="#bb" fill="#656565"/><use xlink:href="#bc" fill="#1d1d1d"/><use xlink:href="#bd" fill="#8a8a8a"/><use xlink:href="#be" fill="#dedede"/><use xlink:href="#bf" fill="#1d1d1d"/><use xlink:href="#bg" fill="#1d1d1d"/><use xlink:href="#bh" fill="#8a8a8a"/><use xlink:href="#bi" fill="#c8c8c8"/><use xlink:href="#bj" fill="#dedede"/><use xlink:href="#bk" fill="#1d1d1d"/><use xlink:href="#bl" fill="#c8c8c8"/><use xlink:href="#bm" fill="#8a8a8a"/><use xlink:href="#bn" fill="#dedede"/><use xlink:href="#bo" fill="#c8c8c8"/><use xlink:href="#bp" fill="#1d1d1d"/><use xlink:href="#bq" fill="#dedede"/><use xlink:href="#br" fill="#8a8a8a"/><use xlink:href="#bs" fill="#c8c8c8"/><use xlink:href="#bt" fill="#8a8a8a"/><use xlink:href="#bu" fill="#dedede"/><use xlink:href="#bv" fill="#c8c8c8"/><use xlink:href="#bw" fill="#8a8a8a"/><use xlink:href="#bx" fill="#c8c8c8"/><use xlink:href="#by" fill="#c8c8c8"/><use xlink:href="#bz" fill="#8a8a8a"/><use xlink:href="#bA" fill="#c8c8c8"/><use xlink:href="#bB" fill="#1d1d1d"/><use xlink:href="#bC" fill="#8a8a8a"/><use xlink:href="#bD" fill="#8a8a8a"/><use xlink:href="#bE" fill="#dedede"/><use xlink:href="#bF" fill="#8a8a8a"/><use xlink:href="#bG" fill="#dedede"/><use xlink:href="#bH" fill="#8a8a8a"/><use xlink:href="#bI" fill="#dedede"/><use xlink:href="#bJ" fill="#1d1d1d"/><use xlink:href="#bK" fill="#c8c8c8"/><use xlink:href="#bL" fill="#c8c8c8"/><use xlink:href="#bM" fill="#c8c8c8"/><use xlink:href="#bN" fill="#8a8a8a"/><use xlink:href="#bO" fill="#656565"/><use xlink:href="#bP" fill="#c8c8c8"/><use xlink:href="#bQ" fill="#c8c8c8"/><use xlink:href="#bR" fill="#c8c8c8"/><use xlink:href="#bS" fill="#1d1d1d"/><use xlink:href="#bT" fill="#c8c8c8"/><use xlink:href="#bU" fill="#656565"/><use xlink:href="#bV" fill="#c8c8c8"/><use xlink:href="#bW" fill="#8a8a8a"/><use xlink:href="#bX" fill="#8a8a8a"/><use xlink:href="#bY" fill="#656565"/><use xlink:href="#bZ" fill="#8a8a8a"/><use xlink:href="#ca" fill="#1d1d1d"/><use xlink:href="#cb" fill="#1d1d1d"/><use xlink:href="#cc" fill="#656565"/><use xlink:href="#cd" fill="#8a8a8a"/><use xlink:href="#ce" fill="#dedede"/><use xlink:href="#cf" fill="#1d1d1d"/><use xlink:href="#cg" fill="#1d1d1d"/><use xlink:href="#ch" fill="#656565"/><use xlink:href="#ci" fill="#c8c8c8"/><use xlink:href="#cj" fill="#1d1d1d"/><use xlink:href="#ck" fill="#656565"/><use xlink:href="#cl" fill="#656565"/><use xlink:href="#cm" fill="#c8c8c8"/><use xlink:href="#cn" fill="#656565"/><use xlink:href="#co" fill="#1d1d1d"/><use xlink:href="#cp" fill="#1d1d1d"/><use xlink:href="#cq" fill="#c8c8c8"/><use xlink:href="#cr" fill="#1d1d1d"/><use xlink:href="#cs" fill="#1d1d1d"/><use xlink:href="#ct" fill="#404040"/><use xlink:href="#cu" fill="#dedede"/><use xlink:href="#cv" fill="#1d1d1d"/><use xlink:href="#cw" fill="#404040"/><use xlink:href="#cx" fill="#656565"/><use xlink:href="#cy" fill="#656565"/><use xlink:href="#cz" fill="#1d1d1d"/><use xlink:href="#cA" fill="#c8c8c8"/><use xlink:href="#cB" fill="#1d1d1d"/><use xlink:href="#cC" fill="#1d1d1d"/><use xlink:href="#cD" fill="#1d1d1d"/><use xlink:href="#cE" fill="#656565"/><use xlink:href="#cF" fill="#1d1d1d"/><use xlink:href="#cG" fill="#c8c8c8"/><use xlink:href="#cH" fill="#8a8a8a"/><use xlink:href="#cI" fill="#c8c8c8"/><use xlink:href="#cJ" fill="#1d1d1d"/><use xlink:href="#cK" fill="#1d1d1d"/><use xlink:href="#cL" fill="#1d1d1d"/><use xlink:href="#cM" fill="#1d1d1d"/><use xlink:href="#cN" fill="#656565"/><use xlink:href="#cO" fill="#1d1d1d"/><use xlink:href="#cP" fill="#404040"/><use xlink:href="#cQ" fill="#dedede"/><use xlink:href="#cR" fill="#1d1d1d"/><use xlink:href="#cS" fill="#1d1d1d"/><use xlink:href="#cT" fill="#1d1d1d"/><use xlink:href="#cU" fill="#1d1d1d"/><use xlink:href="#cV" fill="#c8c8c8"/><use xlink:href="#cW" fill="#c8c8c8"/><use xlink:href="#cX" fill="#1d1d1d"/><use xlink:href="#cY" fill="#dedede"/><use xlink:href="#cZ" fill="#1d1d1d"/><use xlink:href="#da" fill="#1d1d1d"/><use xlink:href="#db" fill="#c8c8c8"/><use xlink:href="#dc" fill="#1d1d1d"/><use xlink:href="#dd" fill="#1d1d1d"/><use xlink:href="#de" fill="#dedede"/><use xlink:href="#df" fill="#656565"/><use xlink:href="#dg" fill="#8a8a8a"/><use xlink:href="#dh" fill="#1d1d1d"/><use xlink:href="#di" fill="#656565"/><use xlink:href="#dj" fill="#8a8a8a"/><use xlink:href="#dk" fill="#404040"/><use xlink:href="#dl" fill="#1d1d1d"/><use xlink:href="#dm" fill="#656565"/><use xlink:href="#dn" fill="#1d1d1d"/><use xlink:href="#do" fill="#656565"/><use xlink:href="#dp" fill="#1d1d1d"/><use xlink:href="#dq" fill="#8a8a8a"/><use xlink:href="#dr" fill="#656565"/><use xlink:href="#ds" fill="#1d1d1d"/><use xlink:href="#dt" fill="#404040"/><use xlink:href="#du" fill="#c8c8c8"/><use xlink:href="#dv" fill="#1d1d1d"/><use xlink:href="#dw" fill="#1d1d1d"/><use xlink:href="#dx" fill="#656565"/><use xlink:href="#dy" fill="#1d1d1d"/><use xlink:href="#dz" fill="#c8c8c8"/><use xlink:href="#dA" fill="#1d1d1d"/><use xlink:href="#dB" fill="#dedede"/><use xlink:href="#dC" fill="#dedede"/><use xlink:href="#dD" fill="#656565"/><use xlink:href="#dE" fill="#c8c8c8"/><use xlink:href="#dF" fill="#1d1d1d"/><use xlink:href="#dG" fill="#656565"/><use xlink:href="#dH" fill="#656565"/><use xlink:href="#dI" fill="#1d1d1d"/><use xlink:href="#dJ" fill="#dedede"/><use xlink:href="#dK" fill="#656565"/><use xlink:href="#dL" fill="#dedede"/><use xlink:href="#dM" fill="#1d1d1d"/></svg>